<?xml version="1.0" encoding="utf-8"?><!-- Uploaded to: SVG Repo, www.svgrepo.com, Generator: SVG Repo Mixer Tools -->
<svg version="1.1" id="Uploaded to svgrepo.com" xmlns="http://www.w3.org/2000/svg" xmlns:xlink="http://www.w3.org/1999/xlink" 
	 width="800px" height="800px" viewBox="0 0 32 32" xml:space="preserve">
<style type="text/css">
	.feather_een{fill:#0B1719;}
</style>
<path class="feather_een" d="M20,10.5c0,0.276-0.224,0.5-0.5,0.5h-3c-0.276,0-0.5-0.224-0.5-0.5s0.224-0.5,0.5-0.5h3
	C19.776,10,20,10.224,20,10.5z M12.5,11h-2c-0.276,0-0.5,0.224-0.5,0.5s0.224,0.5,0.5,0.5h2c0.276,0,0.5-0.224,0.5-0.5
	S12.776,11,12.5,11z M12.5,13h-2c-0.276,0-0.5,0.224-0.5,0.5s0.224,0.5,0.5,0.5h2c0.276,0,0.5-0.224,0.5-0.5S12.776,13,12.5,13z
	 M27.519,15.824l-2.988,0.261c-0.274,0.024-0.479,0.267-0.454,0.542c0.022,0.26,0.241,0.456,0.497,0.456
	c0.015,0,0.029-0.001,0.045-0.002l2.988-0.261c0.274-0.024,0.479-0.267,0.454-0.542C28.036,16.004,27.803,15.799,27.519,15.824z
	 M30.968,26.564c0.144,1.651-1.077,3.106-2.727,3.25l-1.992,0.174C26.16,29.996,26.072,30,25.984,30
	c-1.539,0-2.849-1.177-2.985-2.739L22,15.844V27c0,1.657-1.343,3-3,3h-2c-1.045,0-1.963-0.535-2.5-1.345
	C13.963,29.465,13.045,30,12,30h-1c-1.045,0-1.963-0.535-2.5-1.345C7.963,29.465,7.045,30,6,30H4c-1.657,0-3-1.343-3-3V7
	c0-1.657,1.343-3,3-3h2c1.657,0,3,1.343,3,3v1.779C9.532,8.3,10.228,8,11,8h1c0.772,0,1.468,0.3,2,0.779V6c0-1.657,1.343-3,3-3h2
	c1.657,0,3,1.343,3,3v7.124c0.361-1.111,1.356-1.956,2.593-2.064l1.992-0.174c0.089-0.008,0.177-0.012,0.265-0.012
	c1.539,0,2.849,1.177,2.985,2.739L30.968,26.564z M8,27V7c0-1.103-0.897-2-2-2H4C2.897,5,2,5.897,2,7v20c0,1.103,0.897,2,2,2h2
	C7.103,29,8,28.103,8,27z M14,11c0-1.103-0.897-2-2-2h-1c-1.103,0-2,0.897-2,2v16c0,1.103,0.897,2,2,2h1c1.103,0,2-0.897,2-2V11z
	 M21,6c0-1.103-0.897-2-2-2h-2c-1.103,0-2,0.897-2,2v3v18c0,1.103,0.897,2,2,2h2c1.103,0,2-0.897,2-2V6z M29.972,26.651
	l-1.133-12.951c-0.09-1.024-0.963-1.826-1.989-1.826c-0.059,0-0.118,0.003-0.178,0.008l-1.992,0.174
	c-0.532,0.047-1.014,0.298-1.358,0.707c-0.343,0.409-0.507,0.928-0.46,1.46l1.133,12.951C24.085,28.198,24.958,29,25.984,29
	c0.059,0,0.118-0.003,0.178-0.008l1.992-0.174c0.532-0.047,1.014-0.298,1.358-0.707S30.019,27.183,29.972,26.651z M24.443,15.089
	l2.989-0.262c0.274-0.024,0.479-0.267,0.454-0.542c-0.023-0.274-0.256-0.479-0.542-0.454l-2.989,0.262
	c-0.274,0.024-0.479,0.267-0.454,0.542c0.022,0.26,0.241,0.456,0.497,0.456C24.413,15.091,24.428,15.09,24.443,15.089z M19.5,6h-3
	C16.224,6,16,6.224,16,6.5S16.224,7,16.5,7h3C19.776,7,20,6.776,20,6.5S19.776,6,19.5,6z M19.5,8h-3C16.224,8,16,8.224,16,8.5
	S16.224,9,16.5,9h3C19.776,9,20,8.776,20,8.5S19.776,8,19.5,8z M6.5,11h-3C3.224,11,3,11.224,3,11.5S3.224,12,3.5,12h3
	C6.776,12,7,11.776,7,11.5S6.776,11,6.5,11z M6.5,7h-3C3.224,7,3,7.224,3,7.5S3.224,8,3.5,8h3C6.776,8,7,7.776,7,7.5S6.776,7,6.5,7z
	 M6.5,9h-3C3.224,9,3,9.224,3,9.5S3.224,10,3.5,10h3C6.776,10,7,9.776,7,9.5S6.776,9,6.5,9z"/>
</svg>