<svg xmlns="http://www.w3.org/2000/svg" width="1024" height="1024" viewBox="0 0 1024 1024">
<g>
<path d="M 0.00 0.00 L 1024.00 0.00 L 1024.00 1024.00 L 0.00 1024.00 ZM 636.47 935.75 L 635.94 946.00 L 647.71 946.00 L 648.37 918.25 C648.73,902.99 649.31,883.19 649.66,874.25 L 650.29 858.00 L 663.32 858.00 L 662.69 902.00 L 662.06 946.00 L 664.53 946.00 C666.93,946.00 667.00,945.79 667.14,938.25 C667.21,933.99 667.55,914.12 667.89,894.10 L 668.50 857.71 L 677.75 857.60 L 687.00 857.50 L 687.00 901.75 C687.00,944.17 687.08,946.00 688.85,946.00 C691.51,946.00 692.00,937.94 692.00,894.35 L 692.00 858.00 L 713.00 858.00 L 713.00 902.00 C713.00,945.33 713.03,946.00 715.00,946.00 C716.97,946.00 717.00,945.33 717.00,902.07 L 717.00 858.13 L 727.25 857.81 C732.89,857.63 737.84,857.62 738.25,857.80 C738.66,857.97 739.00,877.89 739.00,902.06 C739.00,945.93 739.00,946.00 741.09,946.00 L 743.17 946.00 L 742.62 857.74 L 753.19 857.62 L 763.77 857.50 L 764.38 863.40 C764.72,866.64 765.00,881.08 765.00,895.49 C765.00,930.93 765.84,946.00 767.80,946.00 C769.12,946.00 769.21,940.69 768.57,902.00 L 767.84 858.00 L 785.72 858.00 L 786.37 880.75 C786.73,893.26 787.30,913.06 787.65,924.75 L 788.28 946.00 L 792.52 946.00 C796.63,946.00 796.81,945.87 798.13,941.75 C799.20,938.42 799.35,933.18 798.82,917.50 C798.44,906.50 796.97,859.47 795.55,813.00 C794.13,766.53 791.84,692.05 790.47,647.50 C789.11,602.95 787.74,564.70 787.44,562.50 C786.83,558.07 790.66,543.90 795.85,531.34 C799.86,521.64 808.82,508.29 816.41,500.71 L 822.66 494.45 L 820.80 480.48 C819.78,472.79 818.59,463.01 818.17,458.75 L 817.40 451.00 L 833.00 451.00 L 833.00 456.03 C833.00,462.26 835.03,467.32 838.41,469.53 C840.07,470.62 843.93,471.40 849.31,471.74 C859.99,472.41 866.24,470.07 868.55,464.54 C871.35,457.82 872.49,446.57 871.23,437.95 C869.10,423.31 866.28,421.00 850.48,421.00 C835.42,421.00 833.00,423.22 833.00,437.05 L 833.00 445.00 L 817.14 445.00 L 816.56 439.75 C815.40,429.26 814.01,395.06 814.01,376.75 L 814.00 358.00 L 831.74 358.00 L 832.45 365.18 C833.08,371.56 833.53,372.73 836.56,375.76 L 839.97 379.17 L 851.57 378.84 C863.08,378.50 863.19,378.48 865.91,375.43 C869.75,371.13 871.38,362.56 870.80,349.77 C870.22,337.00 868.71,333.64 862.25,330.79 C858.36,329.07 856.21,328.82 848.53,329.22 C843.53,329.48 838.40,330.25 837.13,330.93 C833.85,332.69 832.00,337.92 832.00,345.47 L 832.00 352.00 L 814.05 352.00 L 814.48 349.25 C814.71,347.74 815.16,338.85 815.47,329.50 C815.79,320.15 816.70,304.85 817.51,295.50 C818.31,286.15 818.98,277.26 818.99,275.75 C819.00,273.02 819.05,273.00 825.86,273.00 L 832.73 273.00 L 833.25 279.25 C834.29,291.77 836.58,293.50 852.07,293.50 C862.13,293.50 863.01,293.34 865.45,291.05 C870.25,286.54 872.91,271.88 871.07,260.04 C869.59,250.49 867.98,247.61 863.02,245.62 C858.29,243.73 842.45,243.38 838.71,245.09 C834.62,246.95 833.00,251.02 833.00,259.45 L 833.00 267.10 L 826.75 266.80 L 820.50 266.50 L 820.81 262.50 C821.18,257.63 829.99,203.82 830.56,202.90 C831.51,201.36 826.80,197.19 823.41,196.55 C813.69,194.72 807.22,191.92 801.78,187.16 C796.97,182.95 795.50,182.23 790.73,181.74 C783.28,180.97 780.79,179.49 769.87,169.44 C755.21,155.92 743.95,150.23 727.25,147.90 C704.29,144.69 683.30,151.79 664.37,169.15 C653.54,179.10 649.34,181.48 640.85,182.52 C636.16,183.09 634.62,183.80 631.85,186.69 C627.48,191.24 622.65,193.65 613.21,196.01 C608.21,197.25 604.89,198.68 603.76,200.07 C602.80,201.24 602.19,202.50 602.40,202.85 C603.55,204.74 612.91,265.75 612.17,266.50 C611.89,266.77 608.82,267.00 605.33,267.00 L 599.00 267.00 L 599.00 259.13 C599.00,252.76 598.62,250.78 596.98,248.71 C594.03,244.96 589.06,243.70 579.13,244.20 C569.41,244.69 565.03,246.44 563.15,250.57 C561.01,255.26 560.05,266.92 561.10,275.33 C563.11,291.36 565.85,294.00 580.50,294.00 C594.58,294.00 597.95,291.37 598.78,279.77 L 599.27 273.00 L 612.91 273.00 L 613.46 276.25 C613.76,278.04 614.66,286.25 615.46,294.50 C616.75,307.76 617.53,317.39 619.55,344.75 L 620.08 352.00 L 600.00 352.00 L 600.00 343.92 C600.00,336.39 599.81,335.66 597.17,333.02 C595.00,330.85 592.99,330.02 588.56,329.46 C576.37,327.94 566.49,330.44 564.12,335.64 C561.67,341.02 560.81,350.65 561.95,360.02 C564.03,377.14 566.02,379.00 582.23,379.00 C593.57,379.00 595.83,378.16 598.51,372.99 C599.35,371.36 600.00,367.46 600.00,364.05 L 600.00 358.00 L 620.27 358.00 L 619.60 396.25 C619.23,417.29 618.67,436.86 618.37,439.75 L 617.81 445.00 L 601.00 445.00 L 601.00 437.45 C601.00,423.90 597.74,421.00 582.52,421.00 C569.93,421.00 566.61,422.36 563.82,428.67 C560.14,436.99 561.11,457.25 565.61,466.16 C567.71,470.30 574.32,472.36 583.73,471.80 C596.44,471.04 599.27,468.57 600.57,457.08 L 601.26 451.00 L 617.00 451.00 L 617.00 453.81 C617.00,457.03 613.27,488.37 612.48,491.76 C612.06,493.56 613.62,495.79 620.10,502.66 C631.41,514.67 640.26,528.85 644.33,541.50 C648.90,555.68 648.99,556.70 647.97,584.84 C647.44,599.50 646.11,639.40 645.00,673.50 C643.90,707.60 642.11,762.50 641.03,795.50 C639.95,828.50 638.60,871.25 638.03,890.50 C637.46,909.75 636.76,930.11 636.47,935.75 ZM 284.50 727.50 C313.35,730.82 346.55,728.08 375.27,720.02 C431.34,704.28 467.30,668.40 475.06,620.50 C476.55,611.24 476.54,592.46 475.02,582.55 C473.77,574.42 469.38,560.65 465.74,553.50 C458.74,539.72 445.26,524.17 429.07,511.17 C411.78,497.29 394.23,486.10 348.00,459.50 C321.75,444.39 309.70,435.90 298.49,424.59 C285.24,411.23 280.02,400.32 280.02,386.00 C280.03,368.91 287.41,355.60 302.23,345.96 C311.48,339.94 321.81,337.53 338.50,337.52 C355.68,337.50 364.50,339.35 377.01,345.61 C397.20,355.72 408.19,374.13 408.28,398.00 C408.33,409.06 406.46,417.30 401.55,427.69 C398.96,433.18 398.44,435.12 399.37,435.89 C400.90,437.16 408.54,438.94 412.61,438.98 C415.69,439.00 415.80,438.81 421.80,424.25 C425.14,416.14 432.24,399.15 437.58,386.50 L 437.94 385.63 C461.59,329.58 462.80,326.71 461.85,325.33 C461.79,325.25 461.73,325.18 461.66,325.10 C461.02,324.32 459.02,323.07 457.22,322.32 C454.16,321.04 453.71,321.12 450.61,323.49 C441.94,330.10 431.29,330.45 404.50,325.01 C345.46,313.03 296.91,319.25 260.55,343.44 C238.73,357.96 224.74,376.45 217.37,400.54 C214.89,408.66 214.62,411.00 214.56,425.50 C214.51,439.59 214.78,442.40 216.84,449.00 C221.07,462.55 225.45,469.46 237.49,481.60 C251.65,495.88 269.06,508.14 297.00,523.49 C335.51,544.66 351.32,554.11 364.07,563.60 C383.95,578.39 395.94,593.49 402.29,611.71 C405.18,620.00 405.36,621.38 405.42,636.00 C405.50,653.47 404.56,657.90 397.97,671.00 C388.49,689.83 368.07,703.94 342.00,709.64 C329.92,712.28 299.90,712.29 288.50,709.65 C269.56,705.25 255.08,697.33 244.00,685.29 C231.04,671.22 225.92,659.12 225.24,641.00 C224.58,623.50 227.21,614.24 236.01,603.11 C244.82,591.96 257.99,586.42 273.86,587.18 C281.95,587.57 283.74,588.03 291.00,591.64 C300.15,596.19 301.00,595.90 301.00,588.25 C301.00,577.50 296.91,565.75 290.58,558.36 C280.76,546.89 258.17,541.56 235.88,545.47 C219.71,548.30 207.34,553.61 195.00,563.00 C174.91,578.29 164.07,598.70 163.92,621.50 C163.78,643.31 170.73,661.96 185.77,680.14 C207.38,706.26 241.30,722.53 284.50,727.50 ZM 665.65 545.75 L 666.27 556.00 L 662.11 556.00 C659.64,556.00 657.78,555.49 657.56,554.75 C657.36,554.06 655.98,549.45 654.51,544.50 C649.57,527.95 639.58,510.97 627.30,498.26 L 621.02 491.76 L 623.00 475.63 C627.80,436.49 629.62,393.36 628.06,355.22 C626.09,306.80 621.30,261.39 613.96,221.39 C612.33,212.53 611.00,205.03 611.00,204.72 C611.00,204.41 612.46,203.84 614.25,203.46 C624.40,201.26 630.46,198.65 634.88,194.56 C638.36,191.34 640.61,190.12 644.00,189.61 C653.81,188.15 657.78,186.08 666.78,177.73 C681.30,164.26 690.65,159.23 706.50,156.33 C721.24,153.64 738.40,156.80 750.99,164.53 C754.02,166.39 761.00,171.99 766.50,176.98 C776.85,186.36 781.94,189.00 789.67,189.00 C792.12,189.00 793.71,189.81 795.74,192.10 C799.55,196.38 805.16,199.44 814.00,202.06 C818.12,203.28 821.60,204.35 821.71,204.44 C821.83,204.52 821.03,209.52 819.94,215.54 C817.06,231.52 812.34,265.23 810.57,282.50 C807.32,314.20 806.63,329.87 806.56,372.50 C806.50,419.00 807.18,432.08 811.64,470.25 L 814.18 491.99 L 808.29 497.80 C801.50,504.47 792.31,517.83 788.11,527.11 C785.43,533.02 780.93,546.77 779.55,553.25 C779.10,555.35 778.38,556.00 776.48,556.00 C774.58,556.00 774.00,555.48 774.00,553.75 C773.99,546.58 776.09,482.99 776.59,475.25 C777.15,466.63 777.33,466.00 779.34,465.99 C783.04,465.97 791.60,461.37 793.87,458.18 C796.66,454.26 799.00,447.61 798.99,443.62 C798.98,439.50 794.97,431.18 791.38,427.80 C785.01,421.83 774.41,420.22 766.85,424.07 L 762.79 426.15 L 763.38 420.32 C763.70,417.12 764.43,408.42 764.99,401.00 C765.55,393.58 766.26,384.29 766.58,380.38 L 767.15 373.25 L 771.05 374.24 C780.09,376.54 791.61,371.47 794.97,363.73 C801.34,349.04 795.19,334.82 780.78,330.94 C775.85,329.61 767.24,331.24 763.47,334.21 L 760.81 336.30 L 761.49 329.90 C761.86,326.38 763.26,314.77 764.58,304.10 C765.91,293.43 767.00,284.58 767.00,284.42 C767.00,284.27 768.46,284.56 770.24,285.07 C784.42,289.14 798.42,280.09 799.78,265.98 C801.61,246.93 780.10,235.45 764.19,246.98 C759.03,250.72 756.93,254.73 756.25,262.12 C755.81,267.05 756.14,268.76 758.44,273.47 C759.93,276.52 761.93,279.43 762.89,279.94 C764.51,280.81 764.39,282.72 760.91,310.79 C758.40,331.07 756.64,341.79 755.47,344.05 C754.09,346.73 753.86,348.92 754.32,354.95 C754.91,362.54 750.58,400.42 740.04,480.00 C736.41,507.41 734.62,521.82 732.03,544.50 C731.47,549.45 731.00,554.06 731.00,554.75 C731.00,555.65 728.65,556.00 722.61,556.00 L 714.23 556.00 L 713.12 549.75 C712.50,546.31 711.09,537.65 709.96,530.50 C708.16,519.04 705.37,501.65 700.50,471.50 C696.54,446.99 693.79,429.42 690.55,408.00 C688.60,395.08 686.36,380.67 685.57,376.00 C684.77,371.33 683.21,361.20 682.08,353.50 C680.96,345.80 677.98,325.90 675.45,309.28 L 670.87 279.06 L 672.96 276.81 C674.11,275.58 675.71,272.35 676.51,269.64 C679.41,259.88 675.05,249.43 666.14,244.79 C658.96,241.06 653.04,241.06 645.88,244.79 C633.90,251.05 630.44,264.77 637.97,276.15 C643.06,283.83 652.97,287.45 662.76,285.19 C663.25,285.08 663.69,284.94 664.08,284.83 C664.87,284.59 665.46,284.40 665.96,284.56 C667.74,285.10 668.20,289.97 671.53,312.00 C673.48,324.92 675.35,336.40 675.68,337.50 C676.15,339.04 675.51,338.75 672.94,336.24 C671.08,334.42 667.26,332.24 664.34,331.32 C650.63,327.00 636.61,337.45 636.61,352.00 C636.62,366.32 650.38,377.75 663.32,374.18 C663.67,374.08 663.99,373.97 664.28,373.88 C665.00,373.64 665.54,373.46 665.98,373.60 C667.56,374.10 667.84,378.71 669.98,399.50 C671.12,410.50 672.29,421.14 672.60,423.15 L 673.14 426.80 L 668.40 424.40 C662.79,421.56 654.84,421.21 649.22,423.55 C627.80,432.50 634.06,465.87 657.17,465.98 L 661.84 466.00 L 662.40 472.25 C662.71,475.69 663.42,491.33 663.99,507.00 C664.56,522.67 665.31,540.11 665.65,545.75 ZM 292.00 315.74 C292.00,316.58 292.59,316.99 293.38,316.68 C296.44,315.51 318.48,310.88 327.69,309.47 C333.08,308.65 346.05,307.53 356.50,306.98 C393.10,305.06 406.90,301.64 417.58,291.84 C424.48,285.51 426.46,280.49 426.32,269.69 C426.26,264.84 426.01,260.67 425.75,260.42 C425.50,260.17 422.19,262.93 418.40,266.56 C403.36,280.96 382.22,291.38 351.50,299.54 C344.35,301.44 338.11,303.00 337.63,303.00 C335.89,303.00 339.68,299.53 348.65,292.90 C365.14,280.71 371.47,271.86 371.47,261.01 C371.47,250.15 364.37,243.98 351.93,244.02 C344.31,244.05 339.05,246.16 333.04,251.59 C320.38,263.02 318.45,285.96 329.05,299.19 C330.67,301.22 332.00,303.26 332.00,303.71 C332.00,304.17 328.51,305.27 324.25,306.15 C307.38,309.65 292.00,314.22 292.00,315.74 ZM 708.30 547.75 L 709.66 556.00 L 692.36 556.00 L 690.59 540.75 C687.14,510.98 684.01,485.29 681.96,470.00 C680.70,460.53 680.11,452.15 680.45,448.45 C680.81,444.58 680.50,440.63 679.58,437.45 C678.80,434.73 677.66,427.55 677.06,421.50 C676.45,415.45 675.07,402.85 673.97,393.50 C672.88,384.15 671.83,374.94 671.63,373.03 C671.35,370.30 671.86,368.98 674.03,366.81 C675.55,365.30 677.24,362.36 677.79,360.28 C678.78,356.54 678.79,356.54 678.90,359.58 C678.95,361.28 679.45,365.10 680.00,368.08 C680.56,371.06 683.51,389.92 686.57,410.00 C689.63,430.08 693.49,455.05 695.14,465.50 C699.44,492.61 706.71,538.06 708.30,547.75 ZM 751.40 551.75 L 750.88 556.00 L 733.77 556.00 L 734.46 549.25 C734.84,545.54 738.51,515.72 742.63,483.00 C746.74,450.27 750.96,416.52 752.00,408.00 C753.04,399.48 754.65,386.42 755.58,378.99 L 757.28 365.48 L 760.70 368.90 L 764.12 372.32 L 762.47 399.91 C760.93,425.66 760.64,427.89 758.19,433.32 C755.17,440.01 754.80,447.77 757.26,452.53 C758.51,454.96 758.64,457.09 757.95,464.01 C756.53,478.26 753.14,522.77 752.51,535.50 C752.19,542.10 751.69,549.41 751.40,551.75 ZM 764.00 839.25 L 764.00 851.00 L 742.00 851.00 L 742.00 831.16 C742.00,820.25 741.70,799.78 741.34,785.66 L 740.68 760.00 L 762.68 760.00 L 763.34 793.75 C763.70,812.31 764.00,832.79 764.00,839.25 ZM 738.00 760.00 L 738.00 851.00 L 717.00 851.00 L 717.00 760.00 ZM 760.66 634.34 L 761.32 663.00 L 739.32 663.00 L 738.64 622.25 C738.27,599.84 737.69,579.59 737.35,577.25 L 736.74 573.00 L 750.72 573.00 L 751.48 591.25 C751.90,601.29 752.58,613.10 752.97,617.50 L 753.70 625.50 L 753.79 619.00 C753.83,615.42 753.53,606.07 753.11,598.20 C752.69,590.34 752.55,581.45 752.80,578.45 C753.25,573.02 753.26,573.00 756.62,573.00 L 760.00 573.00 L 760.00 589.34 C760.00,598.32 760.30,618.57 760.66,634.34 ZM 713.00 760.00 L 713.00 851.00 L 692.00 851.00 L 692.00 819.16 C692.00,801.65 692.29,781.17 692.66,773.66 L 693.31 760.00 ZM 762.34 727.75 L 762.72 754.00 L 741.30 754.00 L 740.65 738.75 C740.29,730.36 739.97,711.41 739.94,696.63 L 739.87 669.76 L 750.33 669.29 L 760.78 668.81 L 761.37 685.16 C761.70,694.15 762.13,713.31 762.34,727.75 ZM 713.00 622.64 L 713.00 663.00 L 693.50 663.00 L 693.79 619.25 C693.95,595.19 694.27,574.94 694.51,574.25 C694.81,573.38 697.51,573.00 703.33,573.00 L 711.73 573.00 L 712.36 577.64 C712.71,580.19 713.00,600.44 713.00,622.64 ZM 713.00 668.81 L 713.00 754.00 L 692.98 754.00 L 693.50 669.74 L 703.25 669.27 ZM 737.00 739.25 L 737.00 754.00 L 717.00 754.00 L 717.00 669.00 L 735.68 669.00 L 736.34 696.75 C736.70,712.01 737.00,731.14 737.00,739.25 ZM 687.00 834.16 L 687.00 851.00 L 668.50 851.00 L 669.12 820.25 C669.47,803.34 669.81,782.86 669.87,774.75 L 670.00 760.00 L 688.32 760.00 L 687.66 788.66 C687.30,804.43 687.00,824.90 687.00,834.16 ZM 785.63 846.25 L 786.19 851.00 L 777.06 851.00 C770.63,851.00 767.82,850.63 767.55,849.75 C767.34,849.06 766.92,828.59 766.62,804.25 L 766.08 760.00 L 782.82 760.00 L 783.37 763.75 C783.67,765.81 784.18,784.15 784.50,804.50 C784.81,824.85 785.32,843.64 785.63,846.25 ZM 735.40 618.75 L 736.09 663.00 L 717.00 663.00 L 717.00 573.00 L 729.00 573.00 L 729.13 584.75 C729.20,591.21 729.58,599.88 729.97,604.00 C730.55,610.13 730.72,608.30 730.91,594.00 C731.14,576.20 731.64,572.51 733.60,573.79 C734.36,574.28 734.92,588.33 735.40,618.75 ZM 689.19 621.50 L 689.00 663.00 L 680.50 663.00 C675.83,663.00 671.96,662.66 671.92,662.25 C671.57,659.05 672.15,600.35 672.66,588.21 L 673.29 572.92 L 689.50 573.50 L 689.44 576.75 C689.41,578.54 689.30,598.67 689.19,621.50 ZM 688.22 719.50 L 688.00 754.00 L 669.68 754.00 L 670.34 734.34 C670.70,723.53 671.00,704.37 671.00,691.77 L 671.00 668.87 L 679.75 669.18 L 688.50 669.50 L 688.47 677.25 C688.46,681.51 688.34,700.53 688.22,719.50 ZM 771.40 552.75 L 770.91 556.00 L 753.84 556.00 L 754.45 549.75 C754.79,546.31 755.72,533.15 756.52,520.50 C758.87,483.36 760.05,466.71 760.57,463.37 L 761.05 460.24 L 774.18 466.50 L 773.61 482.00 C773.29,490.52 772.77,509.20 772.46,523.50 C772.15,537.80 771.67,550.96 771.40,552.75 ZM 783.00 745.25 L 783.00 754.00 L 766.32 754.00 L 765.66 735.84 C765.30,725.85 765.00,706.73 765.00,693.34 L 765.00 669.00 L 771.75 669.02 C775.46,669.02 779.01,669.36 779.64,669.77 C780.71,670.46 783.02,722.13 783.00,745.25 ZM 780.65 645.75 L 781.29 663.00 L 764.26 663.00 L 763.65 646.25 C763.32,637.04 762.92,616.90 762.77,601.50 L 762.50 573.50 L 770.68 572.90 L 771.48 598.70 C773.13,651.88 773.74,657.78 773.25,615.75 L 772.75 573.00 L 778.70 573.00 L 779.36 600.75 C779.72,616.01 780.30,636.26 780.65,645.75 ZM 687.60 552.25 L 688.18 556.00 L 671.39 556.00 L 669.61 513.75 C668.64,490.51 667.47,467.68 667.02,463.02 C666.23,454.85 666.29,454.46 668.60,452.32 L 671.00 450.10 L 671.00 453.58 C671.00,455.50 670.32,458.68 669.50,460.65 C667.86,464.58 668.16,464.51 673.67,459.70 L 675.85 457.80 L 676.43 462.15 C676.76,464.54 678.39,477.98 680.05,492.00 C683.26,518.94 686.65,545.99 687.60,552.25 ZM 664.00 830.25 L 664.00 851.00 L 650.35 851.00 L 650.68 840.25 C650.86,834.34 651.46,815.78 652.01,799.00 C652.56,782.22 653.01,766.59 653.00,764.25 L 653.00 760.00 L 665.32 760.00 L 664.66 784.75 C664.30,798.36 664.00,818.84 664.00,830.25 ZM 665.34 732.25 L 664.68 754.00 L 659.51 754.00 C656.66,754.00 654.15,753.81 653.92,753.59 C653.46,753.13 654.52,708.12 655.55,684.25 L 656.21 669.00 L 666.00 669.00 L 666.00 689.75 C666.00,701.16 665.70,720.29 665.34,732.25 ZM 666.35 651.75 L 665.76 663.00 L 655.70 663.00 L 656.32 653.25 C656.67,647.89 657.20,629.55 657.52,612.50 C657.83,595.45 658.33,579.56 658.61,577.20 L 659.14 572.89 L 663.32 573.20 L 667.50 573.50 L 667.22 607.00 C667.06,625.42 666.67,645.56 666.35,651.75 ZM 662.00 449.50 C662.00,452.68 661.74,453.00 659.15,453.00 C655.45,453.00 649.78,449.15 648.62,445.86 C648.12,444.44 648.04,441.98 648.44,440.39 L 649.17 437.50 L 650.50 440.67 C653.57,447.97 663.01,447.65 666.28,440.15 C667.41,437.58 667.45,437.63 667.79,441.92 C667.98,444.35 667.84,447.49 667.49,448.90 L 666.85 451.46 L 665.19 448.73 C662.97,445.06 662.00,445.29 662.00,449.50 ZM 663.38 360.05 C658.77,361.80 655.02,361.17 651.97,358.13 C648.61,354.77 647.39,350.89 648.88,348.32 C649.81,346.73 649.94,346.71 649.97,348.16 C650.01,350.11 655.48,355.00 657.63,355.00 C660.61,355.00 665.19,351.78 666.44,348.80 L 667.73 345.73 L 668.19 348.86 C668.58,351.47 668.32,352.00 666.70,352.00 C665.01,352.00 664.82,352.50 665.31,355.55 C665.82,358.66 665.59,359.21 663.38,360.05 ZM 663.24 270.28 C660.82,272.47 656.17,273.22 653.00,271.93 C649.03,270.31 647.04,266.99 647.06,262.00 L 647.08 257.50 L 648.65 260.50 C651.59,266.14 656.24,267.62 660.84,264.40 C663.47,262.56 663.62,262.62 664.48,266.05 C664.93,267.85 664.57,269.08 663.24,270.28 ZM 780.00 359.00 C775.70,361.20 774.60,361.32 771.23,359.96 C768.36,358.81 767.54,356.73 768.93,354.13 C769.96,352.21 770.17,352.19 772.80,353.70 C775.37,355.17 775.86,355.16 779.34,353.51 C782.10,352.20 783.26,350.93 783.70,348.75 C784.21,346.20 784.43,346.02 785.27,347.51 C785.92,348.67 785.85,350.55 785.08,353.13 C784.19,356.09 783.00,357.47 780.00,359.00 ZM 782.03 270.35 C778.92,272.42 775.10,272.46 772.22,270.44 C769.65,268.64 769.53,268.03 771.29,265.62 C772.39,264.12 772.97,264.03 775.22,265.05 C778.96,266.76 782.74,265.47 785.03,261.72 L 786.99 258.50 L 787.00 262.06 C787.00,265.91 785.87,267.79 782.03,270.35 ZM 781.60 450.94 C777.21,453.65 777.00,453.59 777.00,449.60 C777.00,446.71 777.46,446.04 780.03,445.14 C781.95,444.47 783.55,442.93 784.39,440.93 C785.59,438.06 785.76,437.97 786.27,439.92 C787.27,443.75 785.16,448.74 781.60,450.94 ZM 775.20 449.07 C774.66,452.75 773.60,452.75 769.92,449.08 C767.66,446.82 767.00,445.24 767.00,442.14 C767.00,436.99 768.30,436.18 769.82,440.39 C770.48,442.19 772.05,444.22 773.32,444.90 C775.13,445.87 775.54,446.78 775.20,449.07 ZM 781.32 365.88 C779.13,367.00 771.60,367.29 769.25,366.34 C768.56,366.06 768.00,364.74 768.00,363.39 C768.00,361.02 768.06,361.00 770.52,362.61 C773.73,364.71 780.20,363.97 784.15,361.04 C785.72,359.89 786.99,359.29 786.98,359.72 C786.94,361.07 783.59,364.72 781.32,365.88 ZM 780.98 278.00 C779.98,278.00 778.56,278.17 777.83,278.38 C777.10,278.59 775.60,278.57 774.50,278.34 C773.40,278.11 771.49,277.71 770.25,277.44 C768.82,277.14 768.00,276.23 768.00,274.96 C768.00,273.06 768.16,273.03 770.95,274.47 C775.95,277.06 781.96,275.86 787.25,271.22 C788.50,270.13 789.00,270.05 789.00,270.94 C789.00,272.79 783.08,278.00 780.98,278.00 ZM 666.00 274.35 C666.00,276.25 665.25,276.83 661.75,277.63 C655.29,279.10 647.18,276.52 645.64,272.51 C645.34,271.72 646.63,272.17 648.70,273.57 C653.09,276.55 658.32,276.71 662.75,274.01 L 666.00 272.03 ZM 665.80 364.37 C665.55,366.17 664.73,366.54 660.50,366.78 C656.40,367.01 654.83,366.58 651.75,364.37 C649.69,362.89 648.00,361.27 648.00,360.77 C648.00,360.27 648.69,360.55 649.53,361.39 C651.72,363.58 657.78,364.47 662.26,363.28 C665.87,362.31 666.09,362.38 665.80,364.37 ZM 662.00 458.23 C662.00,462.10 653.31,459.45 648.60,454.14 C646.13,451.37 647.28,451.41 651.09,454.23 C653.01,455.65 655.54,456.45 658.05,456.45 C661.16,456.45 662.00,456.83 662.00,458.23 ZM 782.00 457.75 C777.80,460.62 777.00,460.58 777.00,457.50 C777.00,455.42 777.48,455.00 779.87,455.00 C781.44,455.00 784.03,453.99 785.62,452.76 L 788.50 450.51 L 786.90 453.01 C786.02,454.38 783.81,456.51 782.00,457.75 ZM 774.98 456.19 C774.93,460.90 770.82,459.86 766.54,454.05 C763.80,450.34 764.10,448.18 766.88,451.60 C769.03,454.26 772.74,456.28 774.02,455.49 C774.56,455.15 774.99,455.47 774.98,456.19 ZM 768.98 349.53 C768.99,350.09 768.10,351.33 767.00,352.27 C765.07,353.92 765.00,353.88 765.02,351.24 C765.02,349.73 765.47,347.83 766.02,347.00 C766.89,345.67 767.11,345.67 767.98,347.00 C768.53,347.83 768.98,348.96 768.98,349.53 ZM 770.31 259.09 C770.66,260.43 770.15,261.99 768.94,263.30 L 767.00 265.38 L 767.03 262.94 C767.05,261.60 767.67,259.70 768.41,258.73 C769.68,257.06 769.79,257.08 770.31,259.09 ZM 665.60 257.84 C667.33,260.30 667.23,260.99 665.25,260.28 C664.56,260.03 664.00,258.87 664.00,257.69 C664.00,255.57 664.01,255.57 665.60,257.84 Z" fill="rgb(177,20,35)"/>
<path d="M 636.47 935.75 C636.76,930.11 637.46,909.75 638.03,890.50 C638.60,871.25 639.95,828.50 641.03,795.50 C642.11,762.50 643.90,707.60 645.00,673.50 C646.11,639.40 647.44,599.50 647.97,584.84 C648.99,556.70 648.90,555.68 644.33,541.50 C640.26,528.85 631.41,514.67 620.10,502.66 C613.62,495.79 612.06,493.56 612.48,491.76 C613.27,488.37 617.00,457.03 617.00,453.81 L 617.00 451.00 L 609.13 451.00 L 601.26 451.00 L 600.57 457.08 C599.27,468.57 596.44,471.04 583.73,471.80 C574.32,472.36 567.71,470.30 565.61,466.16 C561.11,457.25 560.14,436.99 563.82,428.67 C566.61,422.36 569.93,421.00 582.52,421.00 C597.74,421.00 601.00,423.90 601.00,437.45 L 601.00 445.00 L 609.40 445.00 L 617.81 445.00 L 618.37 439.75 C618.67,436.86 619.23,417.29 619.60,396.25 L 620.27 358.00 L 610.14 358.00 L 600.00 358.00 L 600.00 364.05 C600.00,367.46 599.35,371.36 598.51,372.99 C595.83,378.16 593.57,379.00 582.23,379.00 C566.02,379.00 564.03,377.14 561.95,360.02 C560.81,350.65 561.67,341.02 564.12,335.64 C566.49,330.44 576.37,327.94 588.56,329.46 C592.99,330.02 595.00,330.85 597.17,333.02 C599.81,335.66 600.00,336.39 600.00,343.92 L 600.00 352.00 L 610.04 352.00 L 620.08 352.00 L 619.55 344.75 C617.53,317.39 616.75,307.76 615.46,294.50 C614.66,286.25 613.76,278.04 613.46,276.25 L 612.91 273.00 L 606.09 273.00 L 599.27 273.00 L 598.78 279.77 C597.95,291.37 594.58,294.00 580.50,294.00 C565.85,294.00 563.11,291.36 561.10,275.33 C560.05,266.92 561.01,255.26 563.15,250.57 C565.03,246.44 569.41,244.69 579.13,244.20 C589.06,243.70 594.03,244.96 596.98,248.71 C598.62,250.78 599.00,252.76 599.00,259.13 L 599.00 267.00 L 605.33 267.00 C608.82,267.00 611.89,266.77 612.17,266.50 C612.91,265.75 603.55,204.74 602.40,202.85 C602.19,202.50 602.80,201.24 603.76,200.07 C604.89,198.68 608.21,197.25 613.21,196.01 C622.65,193.65 627.48,191.24 631.85,186.69 C634.62,183.80 636.16,183.09 640.85,182.52 C649.34,181.48 653.54,179.10 664.37,169.15 C683.30,151.79 704.29,144.69 727.25,147.90 C743.95,150.23 755.21,155.92 769.87,169.44 C780.79,179.49 783.28,180.97 790.73,181.74 C795.50,182.23 796.97,182.95 801.78,187.16 C807.22,191.92 813.69,194.72 823.41,196.55 C826.80,197.19 831.51,201.36 830.56,202.90 C829.99,203.82 821.18,257.63 820.81,262.50 L 820.50 266.50 L 826.75 266.80 L 833.00 267.10 L 833.00 259.45 C833.00,251.02 834.62,246.95 838.71,245.09 C842.45,243.38 858.29,243.73 863.02,245.62 C867.98,247.61 869.59,250.49 871.07,260.04 C872.91,271.88 870.25,286.54 865.45,291.05 C863.01,293.34 862.13,293.50 852.07,293.50 C836.58,293.50 834.29,291.77 833.25,279.25 L 832.73 273.00 L 825.86 273.00 C819.05,273.00 819.00,273.02 818.99,275.75 C818.98,277.26 818.31,286.15 817.51,295.50 C816.70,304.85 815.79,320.15 815.47,329.50 C815.16,338.85 814.71,347.74 814.48,349.25 L 814.05 352.00 L 823.03 352.00 L 832.00 352.00 L 832.00 345.47 C832.00,337.92 833.85,332.69 837.13,330.93 C838.40,330.25 843.53,329.48 848.53,329.22 C856.21,328.82 858.36,329.07 862.25,330.79 C868.71,333.64 870.22,337.00 870.80,349.77 C871.38,362.56 869.75,371.13 865.91,375.43 C863.19,378.48 863.08,378.50 851.57,378.84 L 839.97 379.17 L 836.56 375.76 C833.53,372.73 833.08,371.56 832.45,365.18 L 831.74 358.00 L 822.87 358.00 L 814.00 358.00 L 814.01 376.75 C814.01,395.06 815.40,429.26 816.56,439.75 L 817.14 445.00 L 825.07 445.00 L 833.00 445.00 L 833.00 437.05 C833.00,423.22 835.42,421.00 850.48,421.00 C866.28,421.00 869.10,423.31 871.23,437.95 C872.49,446.57 871.35,457.82 868.55,464.54 C866.24,470.07 859.99,472.41 849.31,471.74 C843.93,471.40 840.07,470.62 838.41,469.53 C835.03,467.32 833.00,462.26 833.00,456.03 L 833.00 451.00 L 825.20 451.00 L 817.40 451.00 L 818.17 458.75 C818.59,463.01 819.78,472.79 820.80,480.48 L 822.66 494.45 L 816.41 500.71 C808.82,508.29 799.86,521.64 795.85,531.34 C790.66,543.90 786.83,558.07 787.44,562.50 C787.74,564.70 789.11,602.95 790.47,647.50 C791.84,692.05 794.13,766.53 795.55,813.00 C796.97,859.47 798.44,906.50 798.82,917.50 C799.35,933.18 799.20,938.42 798.13,941.75 C796.81,945.87 796.63,946.00 792.52,946.00 L 788.28 946.00 L 787.65 924.75 C787.30,913.06 786.73,893.26 786.37,880.75 L 785.72 858.00 L 776.78 858.00 L 767.84 858.00 L 768.57 902.00 C769.21,940.69 769.12,946.00 767.80,946.00 C765.84,946.00 765.00,930.93 765.00,895.49 C765.00,881.08 764.72,866.64 764.38,863.40 L 763.77 857.50 L 753.19 857.62 L 742.62 857.74 L 742.89 901.87 L 743.17 946.00 L 741.09 946.00 C739.00,946.00 739.00,945.93 739.00,902.06 C739.00,877.89 738.66,857.97 738.25,857.80 C737.84,857.62 732.89,857.63 727.25,857.81 L 717.00 858.13 L 717.00 902.07 C717.00,945.33 716.97,946.00 715.00,946.00 C713.03,946.00 713.00,945.33 713.00,902.00 L 713.00 858.00 L 702.50 858.00 L 692.00 858.00 L 692.00 894.35 C692.00,937.94 691.51,946.00 688.85,946.00 C687.08,946.00 687.00,944.17 687.00,901.75 L 687.00 857.50 L 677.75 857.60 L 668.50 857.71 L 667.89 894.10 C667.55,914.12 667.21,933.99 667.14,938.25 C667.00,945.79 666.93,946.00 664.53,946.00 L 662.06 946.00 L 662.69 902.00 L 663.32 858.00 L 656.81 858.00 L 650.29 858.00 L 649.66 874.25 C649.31,883.19 648.73,902.99 648.37,918.25 L 647.71 946.00 L 641.82 946.00 L 635.94 946.00 L 636.47 935.75 ZM 664.00 830.25 C664.00,818.84 664.30,798.36 664.66,784.75 L 665.32 760.00 L 659.16 760.00 L 653.00 760.00 L 653.00 764.25 C653.01,766.59 652.56,782.22 652.01,799.00 C651.46,815.78 650.86,834.34 650.68,840.25 L 650.35 851.00 L 657.18 851.00 L 664.00 851.00 L 664.00 830.25 ZM 687.00 834.16 C687.00,824.90 687.30,804.43 687.66,788.66 L 688.32 760.00 L 679.16 760.00 L 670.00 760.00 L 669.87 774.75 C669.81,782.86 669.47,803.34 669.12,820.25 L 668.50 851.00 L 677.75 851.00 L 687.00 851.00 L 687.00 834.16 ZM 713.00 805.50 L 713.00 760.00 L 703.16 760.00 L 693.31 760.00 L 692.66 773.66 C692.29,781.17 692.00,801.65 692.00,819.16 L 692.00 851.00 L 702.50 851.00 L 713.00 851.00 L 713.00 805.50 ZM 738.00 805.50 L 738.00 760.00 L 727.50 760.00 L 717.00 760.00 L 717.00 805.50 L 717.00 851.00 L 727.50 851.00 L 738.00 851.00 L 738.00 805.50 ZM 764.00 839.25 C764.00,832.79 763.70,812.31 763.34,793.75 L 762.68 760.00 L 751.68 760.00 L 740.68 760.00 L 741.34 785.66 C741.70,799.78 742.00,820.25 742.00,831.16 L 742.00 851.00 L 753.00 851.00 L 764.00 851.00 L 764.00 839.25 ZM 785.63 846.25 C785.32,843.64 784.81,824.85 784.50,804.50 C784.18,784.15 783.67,765.81 783.37,763.75 L 782.82 760.00 L 774.45 760.00 L 766.08 760.00 L 766.62 804.25 C766.92,828.59 767.34,849.06 767.55,849.75 C767.82,850.63 770.63,851.00 777.06,851.00 L 786.19 851.00 L 785.63 846.25 ZM 665.34 732.25 C665.70,720.29 666.00,701.16 666.00,689.75 L 666.00 669.00 L 661.11 669.00 L 656.21 669.00 L 655.55 684.25 C654.52,708.12 653.46,753.13 653.92,753.59 C654.15,753.81 656.66,754.00 659.51,754.00 L 664.68 754.00 L 665.34 732.25 ZM 688.22 719.50 C688.34,700.53 688.46,681.51 688.47,677.25 L 688.50 669.50 L 679.75 669.18 L 671.00 668.87 L 671.00 691.77 C671.00,704.37 670.70,723.53 670.34,734.34 L 669.68 754.00 L 678.84 754.00 L 688.00 754.00 L 688.22 719.50 ZM 713.00 711.40 L 713.00 668.81 L 703.25 669.27 L 693.50 669.74 L 693.24 711.87 L 692.98 754.00 L 702.99 754.00 L 713.00 754.00 L 713.00 711.40 ZM 737.00 739.25 C737.00,731.14 736.70,712.01 736.34,696.75 L 735.68 669.00 L 726.34 669.00 L 717.00 669.00 L 717.00 711.50 L 717.00 754.00 L 727.00 754.00 L 737.00 754.00 L 737.00 739.25 ZM 762.34 727.75 C762.13,713.31 761.70,694.15 761.37,685.16 L 760.78 668.81 L 750.33 669.29 L 739.87 669.76 L 739.94 696.63 C739.97,711.41 740.29,730.36 740.65,738.75 L 741.30 754.00 L 752.01 754.00 L 762.72 754.00 L 762.34 727.75 ZM 783.00 745.25 C783.02,722.13 780.71,670.46 779.64,669.77 C779.01,669.36 775.46,669.02 771.75,669.02 L 765.00 669.00 L 765.00 693.34 C765.00,706.73 765.30,725.85 765.66,735.84 L 766.32 754.00 L 774.66 754.00 L 783.00 754.00 L 783.00 745.25 ZM 666.35 651.75 C666.67,645.56 667.06,625.42 667.22,607.00 L 667.50 573.50 L 663.32 573.20 L 659.14 572.89 L 658.61 577.20 C658.33,579.56 657.83,595.45 657.52,612.50 C657.20,629.55 656.67,647.89 656.32,653.25 L 655.70 663.00 L 660.73 663.00 L 665.76 663.00 L 666.35 651.75 ZM 689.19 621.50 C689.30,598.67 689.41,578.54 689.44,576.75 L 689.50 573.50 L 681.40 573.21 L 673.29 572.92 L 672.66 588.21 C672.15,600.35 671.57,659.05 671.92,662.25 C671.96,662.66 675.83,663.00 680.50,663.00 L 689.00 663.00 L 689.19 621.50 ZM 713.00 622.64 C713.00,600.44 712.71,580.19 712.36,577.64 L 711.73 573.00 L 703.33 573.00 C697.51,573.00 694.81,573.38 694.51,574.25 C694.27,574.94 693.95,595.19 693.79,619.25 L 693.50 663.00 L 703.25 663.00 L 713.00 663.00 L 713.00 622.64 ZM 735.40 618.75 C734.92,588.33 734.36,574.28 733.60,573.79 C731.64,572.51 731.14,576.20 730.91,594.00 C730.72,608.30 730.55,610.13 729.97,604.00 C729.58,599.88 729.20,591.21 729.13,584.75 L 729.00 573.00 L 723.00 573.00 L 717.00 573.00 L 717.00 618.00 L 717.00 663.00 L 726.55 663.00 L 736.09 663.00 L 735.40 618.75 ZM 760.66 634.34 C760.30,618.57 760.00,598.32 760.00,589.34 L 760.00 573.00 L 756.62 573.00 C753.26,573.00 753.25,573.02 752.80,578.45 C752.55,581.45 752.69,590.34 753.11,598.20 C753.53,606.07 753.83,615.42 753.79,619.00 L 753.70 625.50 L 752.97 617.50 C752.58,613.10 751.90,601.29 751.48,591.25 L 750.72 573.00 L 743.73 573.00 L 736.74 573.00 L 737.35 577.25 C737.69,579.59 738.27,599.84 738.64,622.25 L 739.32 663.00 L 750.32 663.00 L 761.32 663.00 L 760.66 634.34 ZM 780.65 645.75 C780.30,636.26 779.72,616.01 779.36,600.75 L 778.70 573.00 L 775.73 573.00 L 772.75 573.00 L 773.25 615.75 C773.74,657.78 773.13,651.88 771.48,598.70 L 770.68 572.90 L 766.59 573.20 L 762.50 573.50 L 762.77 601.50 C762.92,616.90 763.32,637.04 763.65,646.25 L 764.26 663.00 L 772.77 663.00 L 781.29 663.00 L 780.65 645.75 ZM 665.65 545.75 C665.31,540.11 664.56,522.67 663.99,507.00 C663.42,491.33 662.71,475.69 662.40,472.25 L 661.84 466.00 L 657.17 465.98 C634.06,465.87 627.80,432.50 649.22,423.55 C654.84,421.21 662.79,421.56 668.40,424.40 L 673.14 426.80 L 672.60 423.15 C672.29,421.14 671.12,410.50 669.98,399.50 C666.99,370.53 667.64,372.98 663.32,374.18 C650.38,377.75 636.62,366.32 636.61,352.00 C636.61,337.45 650.63,327.00 664.34,331.32 C667.26,332.24 671.08,334.42 672.94,336.24 C675.51,338.75 676.15,339.04 675.68,337.50 C675.35,336.40 673.48,324.92 671.53,312.00 C666.81,280.83 667.85,284.02 662.76,285.19 C652.97,287.45 643.06,283.83 637.97,276.15 C630.44,264.77 633.90,251.05 645.88,244.79 C653.04,241.06 658.96,241.06 666.14,244.79 C675.05,249.43 679.41,259.88 676.51,269.64 C675.71,272.35 674.11,275.58 672.96,276.81 L 670.87 279.06 L 675.45 309.28 C677.98,325.90 680.96,345.80 682.08,353.50 C683.21,361.20 684.77,371.33 685.57,376.00 C686.36,380.67 688.60,395.08 690.55,408.00 C693.79,429.42 696.54,446.99 700.50,471.50 C705.37,501.65 708.16,519.04 709.96,530.50 C711.09,537.65 712.50,546.31 713.12,549.75 L 714.23 556.00 L 722.61 556.00 C728.65,556.00 731.00,555.65 731.00,554.75 C731.00,554.06 731.47,549.45 732.03,544.50 C734.62,521.82 736.41,507.41 740.04,480.00 C750.58,400.42 754.91,362.54 754.32,354.95 C753.86,348.92 754.09,346.73 755.47,344.05 C756.64,341.79 758.40,331.07 760.91,310.79 C764.39,282.72 764.51,280.81 762.89,279.94 C761.93,279.43 759.93,276.52 758.44,273.47 C756.14,268.76 755.81,267.05 756.25,262.12 C756.93,254.73 759.03,250.72 764.19,246.98 C780.10,235.45 801.61,246.93 799.78,265.98 C798.42,280.09 784.42,289.14 770.24,285.07 C768.46,284.56 767.00,284.27 767.00,284.42 C767.00,284.58 765.91,293.43 764.58,304.10 C763.26,314.77 761.86,326.38 761.49,329.90 L 760.81 336.30 L 763.47 334.21 C767.24,331.24 775.85,329.61 780.78,330.94 C795.19,334.82 801.34,349.04 794.97,363.73 C791.61,371.47 780.09,376.54 771.05,374.24 L 767.15 373.25 L 766.58 380.38 C766.26,384.29 765.55,393.58 764.99,401.00 C764.43,408.42 763.70,417.12 763.38,420.32 L 762.79 426.15 L 766.85 424.07 C774.41,420.22 785.01,421.83 791.38,427.80 C794.97,431.18 798.98,439.50 798.99,443.62 C799.00,447.61 796.66,454.26 793.87,458.18 C791.60,461.37 783.04,465.97 779.34,465.99 C777.33,466.00 777.15,466.63 776.59,475.25 C776.09,482.99 773.99,546.58 774.00,553.75 C774.00,555.48 774.58,556.00 776.48,556.00 C778.38,556.00 779.10,555.35 779.55,553.25 C780.93,546.77 785.43,533.02 788.11,527.11 C792.31,517.83 801.50,504.47 808.29,497.80 L 814.18 491.99 L 811.64 470.25 C807.18,432.08 806.50,419.00 806.56,372.50 C806.63,329.87 807.32,314.20 810.57,282.50 C812.34,265.23 817.06,231.52 819.94,215.54 C821.03,209.52 821.83,204.52 821.71,204.44 C821.60,204.35 818.12,203.28 814.00,202.06 C805.16,199.44 799.55,196.38 795.74,192.10 C793.71,189.81 792.12,189.00 789.67,189.00 C781.94,189.00 776.85,186.36 766.50,176.98 C761.00,171.99 754.02,166.39 750.99,164.53 C738.40,156.80 721.24,153.64 706.50,156.33 C690.65,159.23 681.30,164.26 666.78,177.73 C657.78,186.08 653.81,188.15 644.00,189.61 C640.61,190.12 638.36,191.34 634.88,194.56 C630.46,198.65 624.40,201.26 614.25,203.46 C612.46,203.84 611.00,204.41 611.00,204.72 C611.00,205.03 612.33,212.53 613.96,221.39 C621.30,261.39 626.09,306.80 628.06,355.22 C629.62,393.36 627.80,436.49 623.00,475.63 L 621.02 491.76 L 627.30 498.26 C639.58,510.97 649.57,527.95 654.51,544.50 C655.98,549.45 657.36,554.06 657.56,554.75 C657.78,555.49 659.64,556.00 662.11,556.00 L 666.27 556.00 L 665.65 545.75 ZM 687.60 552.25 C686.65,545.99 683.26,518.94 680.05,492.00 C678.39,477.98 676.76,464.54 676.43,462.15 L 675.85 457.80 L 673.67 459.70 C668.16,464.51 667.86,464.58 669.50,460.65 C670.32,458.68 671.00,455.50 671.00,453.58 L 671.00 450.10 L 668.60 452.32 C666.29,454.46 666.23,454.85 667.02,463.02 C667.47,467.68 668.64,490.51 669.61,513.75 L 671.39 556.00 L 679.78 556.00 L 688.18 556.00 L 687.60 552.25 ZM 708.30 547.75 C706.71,538.06 699.44,492.61 695.14,465.50 C693.49,455.05 689.63,430.08 686.57,410.00 C683.51,389.92 680.56,371.06 680.00,368.08 C679.45,365.10 678.95,361.28 678.90,359.58 C678.79,356.54 678.78,356.54 677.79,360.28 C677.24,362.36 675.55,365.30 674.03,366.81 C671.86,368.98 671.35,370.30 671.63,373.03 C671.83,374.94 672.88,384.15 673.97,393.50 C675.07,402.85 676.45,415.45 677.06,421.50 C677.66,427.55 678.80,434.73 679.58,437.45 C680.50,440.63 680.81,444.58 680.45,448.45 C680.11,452.15 680.70,460.53 681.96,470.00 C684.01,485.29 687.14,510.98 690.59,540.75 L 692.36 556.00 L 701.01 556.00 L 709.66 556.00 L 708.30 547.75 ZM 751.40 551.75 C751.69,549.41 752.19,542.10 752.51,535.50 C753.14,522.77 756.53,478.26 757.95,464.01 C758.64,457.09 758.51,454.96 757.26,452.53 C754.80,447.77 755.17,440.01 758.19,433.32 C760.64,427.89 760.93,425.66 762.47,399.91 L 764.12 372.32 L 760.70 368.90 L 757.28 365.48 L 755.58 378.99 C754.65,386.42 753.04,399.48 752.00,408.00 C750.96,416.52 746.74,450.27 742.63,483.00 C738.51,515.72 734.84,545.54 734.46,549.25 L 733.77 556.00 L 742.32 556.00 L 750.88 556.00 L 751.40 551.75 ZM 771.40 552.75 C771.67,550.96 772.15,537.80 772.46,523.50 C772.77,509.20 773.29,490.52 773.61,482.00 L 774.18 466.50 L 767.61 463.37 L 761.05 460.24 L 760.57 463.37 C760.05,466.71 758.87,483.36 756.52,520.50 C755.72,533.15 754.79,546.31 754.45,549.75 L 753.84 556.00 L 762.38 556.00 L 770.91 556.00 L 771.40 552.75 ZM 662.00 458.23 C662.00,456.83 661.16,456.45 658.05,456.45 C655.54,456.45 653.01,455.65 651.09,454.23 C647.28,451.41 646.13,451.37 648.60,454.14 C653.31,459.45 662.00,462.10 662.00,458.23 ZM 774.98 456.19 C774.99,455.47 774.56,455.15 774.02,455.49 C772.74,456.28 769.03,454.26 766.88,451.60 C764.10,448.18 763.80,450.34 766.54,454.05 C770.82,459.86 774.93,460.90 774.98,456.19 ZM 782.00 457.75 C783.81,456.51 786.02,454.38 786.90,453.01 L 788.50 450.51 L 785.62 452.76 C784.03,453.99 781.44,455.00 779.87,455.00 C777.48,455.00 777.00,455.42 777.00,457.50 C777.00,460.58 777.80,460.62 782.00,457.75 ZM 662.00 449.50 C662.00,445.29 662.97,445.06 665.19,448.73 L 666.85 451.46 L 667.49 448.90 C667.84,447.49 667.98,444.35 667.79,441.92 C667.45,437.63 667.41,437.58 666.28,440.15 C663.01,447.65 653.57,447.97 650.50,440.67 L 649.17 437.50 L 648.44 440.39 C648.04,441.98 648.12,444.44 648.62,445.86 C649.78,449.15 655.45,453.00 659.15,453.00 C661.74,453.00 662.00,452.68 662.00,449.50 ZM 781.60 450.94 C785.16,448.74 787.27,443.75 786.27,439.92 C785.76,437.97 785.59,438.06 784.39,440.93 C783.55,442.93 781.95,444.47 780.03,445.14 C777.46,446.04 777.00,446.71 777.00,449.60 C777.00,453.59 777.21,453.65 781.60,450.94 ZM 775.20 449.07 C775.54,446.78 775.13,445.87 773.32,444.90 C772.05,444.22 770.48,442.19 769.82,440.39 C768.30,436.18 767.00,436.99 767.00,442.14 C767.00,445.24 767.66,446.82 769.92,449.08 C773.60,452.75 774.66,452.75 775.20,449.07 ZM 665.80 364.37 C666.09,362.38 665.87,362.31 662.26,363.28 C657.78,364.47 651.72,363.58 649.53,361.39 C648.69,360.55 648.00,360.27 648.00,360.77 C648.00,361.27 649.69,362.89 651.75,364.37 C654.83,366.58 656.40,367.01 660.50,366.78 C664.73,366.54 665.55,366.17 665.80,364.37 ZM 781.32 365.88 C783.59,364.72 786.94,361.07 786.98,359.72 C786.99,359.29 785.72,359.89 784.15,361.04 C780.20,363.97 773.73,364.71 770.52,362.61 C768.06,361.00 768.00,361.02 768.00,363.39 C768.00,364.74 768.56,366.06 769.25,366.34 C771.60,367.29 779.13,367.00 781.32,365.88 ZM 663.38 360.05 C665.59,359.21 665.82,358.66 665.31,355.55 C664.82,352.50 665.01,352.00 666.70,352.00 C668.32,352.00 668.58,351.47 668.19,348.86 L 667.73 345.73 L 666.44 348.80 C665.19,351.78 660.61,355.00 657.63,355.00 C655.48,355.00 650.01,350.11 649.97,348.16 C649.94,346.71 649.81,346.73 648.88,348.32 C647.39,350.89 648.61,354.77 651.97,358.13 C655.02,361.17 658.77,361.80 663.38,360.05 ZM 780.00 359.00 C783.00,357.47 784.19,356.09 785.08,353.13 C785.85,350.55 785.92,348.67 785.27,347.51 C784.43,346.02 784.21,346.20 783.70,348.75 C783.26,350.93 782.10,352.20 779.34,353.51 C775.86,355.16 775.37,355.17 772.80,353.70 C770.17,352.19 769.96,352.21 768.93,354.13 C767.54,356.73 768.36,358.81 771.23,359.96 C774.60,361.32 775.70,361.20 780.00,359.00 ZM 768.98 349.53 C768.98,348.96 768.53,347.83 767.98,347.00 C767.11,345.67 766.89,345.67 766.02,347.00 C765.47,347.83 765.02,349.73 765.02,351.24 C765.00,353.88 765.07,353.92 767.00,352.27 C768.10,351.33 768.99,350.09 768.98,349.53 ZM 666.00 274.35 L 666.00 272.03 L 662.75 274.01 C658.32,276.71 653.09,276.55 648.70,273.57 C646.63,272.17 645.34,271.72 645.64,272.51 C647.18,276.52 655.29,279.10 661.75,277.63 C665.25,276.83 666.00,276.25 666.00,274.35 ZM 780.98 278.00 C783.08,278.00 789.00,272.79 789.00,270.94 C789.00,270.05 788.50,270.13 787.25,271.22 C781.96,275.86 775.95,277.06 770.95,274.47 C768.16,273.03 768.00,273.06 768.00,274.96 C768.00,276.23 768.82,277.14 770.25,277.44 C771.49,277.71 773.40,278.11 774.50,278.34 C775.60,278.57 777.10,278.59 777.83,278.38 C778.56,278.17 779.98,278.00 780.98,278.00 ZM 663.24 270.28 C664.57,269.08 664.93,267.85 664.48,266.05 C663.62,262.62 663.47,262.56 660.84,264.40 C656.24,267.62 651.59,266.14 648.65,260.50 L 647.08 257.50 L 647.06 262.00 C647.04,266.99 649.03,270.31 653.00,271.93 C656.17,273.22 660.82,272.47 663.24,270.28 ZM 782.03 270.35 C785.87,267.79 787.00,265.91 787.00,262.06 L 786.99 258.50 L 785.03 261.72 C782.74,265.47 778.96,266.76 775.22,265.05 C772.97,264.03 772.39,264.12 771.29,265.62 C769.53,268.03 769.65,268.64 772.22,270.44 C775.10,272.46 778.92,272.42 782.03,270.35 ZM 770.31 259.09 C769.79,257.08 769.68,257.06 768.41,258.73 C767.67,259.70 767.05,261.60 767.03,262.94 L 767.00 265.38 L 768.94 263.30 C770.15,261.99 770.66,260.43 770.31,259.09 ZM 665.60 257.84 C664.01,255.57 664.00,255.57 664.00,257.69 C664.00,258.87 664.56,260.03 665.25,260.28 C667.23,260.99 667.33,260.30 665.60,257.84 ZM 284.50 727.50 C241.30,722.53 207.38,706.26 185.77,680.14 C170.73,661.96 163.78,643.31 163.92,621.50 C164.07,598.70 174.91,578.29 195.00,563.00 C207.34,553.61 219.71,548.30 235.88,545.47 C258.17,541.56 280.76,546.89 290.58,558.36 C296.91,565.75 301.00,577.50 301.00,588.25 C301.00,595.90 300.15,596.19 291.00,591.64 C283.74,588.03 281.95,587.57 273.86,587.18 C257.99,586.42 244.82,591.96 236.01,603.11 C227.21,614.24 224.58,623.50 225.24,641.00 C225.92,659.12 231.04,671.22 244.00,685.29 C255.08,697.33 269.56,705.25 288.50,709.65 C299.90,712.29 329.92,712.28 342.00,709.64 C368.07,703.94 388.49,689.83 397.97,671.00 C404.56,657.90 405.50,653.47 405.42,636.00 C405.36,621.38 405.18,620.00 402.29,611.71 C395.94,593.49 383.95,578.39 364.07,563.60 C351.32,554.11 335.51,544.66 297.00,523.49 C269.06,508.14 251.65,495.88 237.49,481.60 C225.45,469.46 221.07,462.55 216.84,449.00 C214.78,442.40 214.51,439.59 214.56,425.50 C214.62,411.00 214.89,408.66 217.37,400.54 C224.74,376.45 238.73,357.96 260.55,343.44 C296.91,319.25 345.46,313.03 404.50,325.01 C431.29,330.45 441.94,330.10 450.61,323.49 C453.71,321.12 454.16,321.04 457.22,322.32 C459.02,323.07 461.02,324.32 461.66,325.10 C462.87,326.56 462.99,326.26 437.58,386.50 C432.24,399.15 425.14,416.14 421.80,424.25 C415.80,438.81 415.69,439.00 412.61,438.98 C408.54,438.94 400.90,437.16 399.37,435.89 C398.44,435.12 398.96,433.18 401.55,427.69 C406.46,417.30 408.33,409.06 408.28,398.00 C408.19,374.13 397.20,355.72 377.01,345.61 C364.50,339.35 355.68,337.50 338.50,337.52 C321.81,337.53 311.48,339.94 302.23,345.96 C287.41,355.60 280.03,368.91 280.02,386.00 C280.02,400.32 285.24,411.23 298.49,424.59 C309.70,435.90 321.75,444.39 348.00,459.50 C394.23,486.10 411.78,497.29 429.07,511.17 C445.26,524.17 458.74,539.72 465.74,553.50 C469.38,560.65 473.77,574.42 475.02,582.55 C476.54,592.46 476.55,611.24 475.06,620.50 C467.30,668.40 431.34,704.28 375.27,720.02 C346.55,728.08 313.35,730.82 284.50,727.50 ZM 292.00 315.74 C292.00,314.22 307.38,309.65 324.25,306.15 C328.51,305.27 332.00,304.17 332.00,303.71 C332.00,303.26 330.67,301.22 329.05,299.19 C318.45,285.96 320.38,263.02 333.04,251.59 C339.05,246.16 344.31,244.05 351.93,244.02 C364.37,243.98 371.47,250.15 371.47,261.01 C371.47,271.86 365.14,280.71 348.65,292.90 C339.68,299.53 335.89,303.00 337.63,303.00 C338.11,303.00 344.35,301.44 351.50,299.54 C382.22,291.38 403.36,280.96 418.40,266.56 C422.19,262.93 425.50,260.17 425.75,260.42 C426.01,260.67 426.26,264.84 426.32,269.69 C426.46,280.49 424.48,285.51 417.58,291.84 C406.90,301.64 393.10,305.06 356.50,306.98 C346.05,307.53 333.08,308.65 327.69,309.47 C318.48,310.88 296.44,315.51 293.38,316.68 C292.59,316.99 292.00,316.58 292.00,315.74 Z" fill="rgb(252,246,245)"/>
</g>
</svg>