<?xml version="1.0" encoding="UTF-8"?>
<!-- Created with Inkscape (http://www.inkscape.org/) -->
<svg width="100mm" height="50mm" version="1.1" viewBox="0 0 100 50" xmlns="http://www.w3.org/2000/svg" xmlns:cc="http://creativecommons.org/ns#" xmlns:dc="http://purl.org/dc/elements/1.1/" xmlns:rdf="http://www.w3.org/1999/02/22-rdf-syntax-ns#">
 <metadata>
  <rdf:RDF>
   <cc:Work rdf:about="">
    <dc:format>image/svg+xml</dc:format>
    <dc:type rdf:resource="http://purl.org/dc/dcmitype/StillImage"/>
    <dc:title/>
   </cc:Work>
  </rdf:RDF>
 </metadata>
 <g transform="translate(0,-247)">
  <g transform="matrix(.31483 0 0 .30338 -37.673 191.96)" aria-label="ŚPIEW ">
   <path d="m138.82 257.96v-12.958q6 3.5 10.083 3.5 2.375 0 3.75-1.2917 1.375-1.3333 1.375-3.5 0-1.6667-1.125-3.125-1.0833-1.4583-3.7917-3.5417-6.5417-5-9.5-9.2917-2.9167-4.3333-2.9167-9.625 0-7.2083 4.5417-11.75 4.5417-4.5417 11.75-4.5417 5.3333 0 10.583 2.2917v12.458q-5.625-3.0833-9.125-3.0833-2.3333 0-3.7083 1.1667-1.3333 1.125-1.3333 3.125 0 3.5 6.2917 7.875 3.75 2.5833 7.5833 7.2917 3.875 4.6667 3.875 10.833 0 7.2083-5.0417 11.958-5.0417 4.7083-12.792 4.7083-5.2917 0-10.5-2.5zm7.3333-59.042 5.8333-12.458h13.125l-11.5 12.458z" style="font-feature-settings:normal;font-variant-caps:normal;font-variant-ligatures:normal;font-variant-numeric:normal"/>
   <path d="m176.15 203.38h15.625q8.25 0 13.25 4.7083 5 4.7083 5 12.417 0 8.125-5.0833 12.75-5.0417 4.5833-14 4.5833h-2.1667v21.167h-12.625zm12.625 10.667v13.125q4.25-0.0833 6.25-1.625 2.0417-1.5417 2.0417-4.875 0-3.5833-1.9583-5.0417-1.9583-1.5-6.3333-1.5833z" style="font-feature-settings:normal;font-variant-caps:normal;font-variant-ligatures:normal;font-variant-numeric:normal"/>
   <path d="m220.11 203.38h12.625v55.625h-12.625z" style="font-feature-settings:normal;font-variant-caps:normal;font-variant-ligatures:normal;font-variant-numeric:normal"/>
   <path d="m245.15 203.38h25.542v11.833h-12.917v10.25h11.208v11.542h-11.208v10.125h13v11.875h-25.625z" style="font-feature-settings:normal;font-variant-caps:normal;font-variant-ligatures:normal;font-variant-numeric:normal"/>
   <path d="m275.69 203.38h12.125l7.1667 33.542h0.16667l6.5-33.542h11l6.5833 33.167h0.16667l6.8333-33.167h12.458l-13.333 55.625h-11.417l-5.2917-24.875q-0.875-4.0833-1.4583-7.875h-0.16667q-1.0417 6.4583-1.5 8.625l-5.25 24.125h-11.25z" style="font-feature-settings:normal;font-variant-caps:normal;font-variant-ligatures:normal;font-variant-numeric:normal"/>
  </g>
  <flowRoot fill="#000000" font-family="sans-serif" font-size="40px" letter-spacing="0px" word-spacing="0px" style="line-height:1.25" xml:space="preserve"><flowRegion><rect x="117.86" y="193.23" width="83.571" height="77.143"/></flowRegion><flowPara/></flowRoot>
  <g transform="matrix(.31483 0 0 .30338 -37.62 199.12)" aria-label=" NIK">
   <path d="m138.82 253.38h12.75l16.042 32.083-0.45833-6v-26.083h12.625v55.625h-12.958l-15.708-31.583 0.33334 6.9167v24.667h-12.625z" style="font-feature-settings:normal;font-variant-caps:normal;font-variant-ligatures:normal;font-variant-numeric:normal"/>
   <path d="m192.27 253.38h12.625v55.625h-12.625z" style="font-feature-settings:normal;font-variant-caps:normal;font-variant-ligatures:normal;font-variant-numeric:normal"/>
   <path d="m217.32 253.38h12.625v26.167h0.20833l11.917-26.167h13.25l-12.917 28.417 12.375 27.208h-13.875l-10.75-23.125h-0.20833v23.125h-12.625z" style="font-feature-settings:normal;font-variant-caps:normal;font-variant-ligatures:normal;font-variant-numeric:normal"/>
  </g>
  <g transform="scale(1.0833 .92315)" stroke-width=".40325" aria-label="aj">
   <path d="m76.726 282.53q0.18902-0.32134 0.24573-0.51037 0.22683-0.56707 0.45366-0.73719 0.52927-0.0567 0.775-0.0567 0.32134 0 0.62378 0.13232l0.05671 0.22683q0 0.11341-0.09451 0.34024-0.05671 0.11341-0.24573 0.71829l-0.15122 0.37805-1.2476 3.3835q-0.7939 2.2872-1.3988 3.6482-0.58598 1.361-1.0207 2.7787-0.43476 1.3988-0.7939 2.0036l-0.07561 0.18903q0 0.11341 0.20793 0.30244 0.85061-0.47257 1.4366-1.0207 1.5122-1.4177 1.7957-1.7579 0.20793-0.24573 0.39695-0.45366 0.22683 0.18903 0.41585 0.39695-0.52927 0.7372-1.7768 2.0037-1.2476 1.2665-2.2494 1.7957-0.775 0.39695-1.4555 0.39695-0.43476 0-0.66158-0.18903-0.20793-0.18902-0.20793-0.49146 0-0.26463 0.18902-0.98292 0.47256-1.2476 0.66158-1.6445t0.51036-1.2287q0.18902-0.51036 0.775-1.7768-0.35915 0.35915-0.88841 1.0585-1.5311 1.928-3.5158 3.6482-0.45366 0.39695-2.1927 1.2665-0.64268 0.24573-1.5122 0.32134-0.73719-0.0189-0.98292-0.15122-0.45366-0.24573-0.73719-0.775-0.20793-0.39695-0.20793-1.2287 0-1.2098 0.52927-2.6841 0.90732-2.514 1.8335-3.7238 1.5878-2.0982 3.1378-3.3268 1.5689-1.2286 2.8732-1.7957 1.7201-0.75609 2.9866-0.75609 0.41585 0 0.7939 0.0756 0.37805 0.0756 0.71829 0.22683zm-8.9975 12.4q0.45366-0.11341 0.7939-0.32134 0.20793-0.11341 1.4744-1.0396 2.3061-2.325 2.6085-2.6652 0.66158-0.73719 1.4933-2.0226 0.22683-0.32134 0.96402-1.7768l0.49146-1.3043q0.26463-1.153 0.26463-1.3232 0-0.52926-0.43476-1.0018-0.28354-0.28354-0.92622-0.28354-0.73719 0-1.2665 0.24573-1.1909 0.56707-2.1738 1.4366-1.3232 1.1909-2.5518 3.0622-1.2287 1.8524-1.739 3.1-0.69939 1.7201-0.69939 2.5707 0 0.69939 0.28354 1.0396t0.71829 0.34024q0.15122 0 0.69939-0.0567z" style="font-feature-settings:normal;font-variant-caps:normal;font-variant-ligatures:normal;font-variant-numeric:normal"/>
   <path d="m86.367 274.21q0-0.58598 0.47256-1.0207 0.47256-0.45366 1.2098-0.45366 0.41585 0 0.73719 0.37805 0.34024 0.35914 0.34024 0.92622 0 0.60487-0.37805 0.98292t-1.0774 0.37805q-0.58598 0-0.94512-0.35915-0.35915-0.35914-0.35915-0.8317zm-15.973 28.769q0.43476-0.13232 0.62378-0.13232 0.32134 0 0.68049 0.30244 0.34024 0.32134 0.54817 0.92622 0.18902 0.62378 0.52927 0.7939 0.71829 0 1.3232-0.17012 0.66158-0.26464 1.2098-0.7372 0.52927-0.47256 1.361-1.7012 0.64268-0.94512 1.6067-3.0244 0.96402-2.0604 1.4744-3.3646 0.26463-0.73719 0.52927-1.361l2.514-6.1055 0.88841-2.136q0.26463-0.58597 0.73719-1.5878 0.49146-1.0018 0.49146-1.7579 0-0.18903-0.11342-0.30244-0.11341-0.13232-0.24573-0.13232-0.26463 0-1.0018 0.51037-1.0207 0.71829-2.5896 2.6652-0.26463-0.13232-0.49146-0.37805 0.83171-1.1908 2.136-2.4762 1.3232-1.2854 2.6652-1.928 0.83171-0.39695 1.7012-0.39695 0.28354 0.24573 0.28354 0.51036 0 1.9091-2.5707 7.6555-0.26463 0.60487-0.52927 1.3232-0.7939 2.1738-2.3061 5.5573-2.1927 4.9335-3.0433 6.2567-0.85061 1.3421-1.9659 2.2683-1.1341 0.94512-2.0604 1.2286-1.361 0.43476-2.4195 0.43476-0.94512 0-1.361-0.18903-0.66158-0.28353-1.0585-0.7939-0.22683-0.28353-0.22683-0.73719 0-0.62378 0.68049-1.0207z" style="font-feature-settings:normal;font-variant-caps:normal;font-variant-ligatures:normal;font-variant-numeric:normal"/>
  </g>
 </g>
</svg>
