<?xml version="1.0" encoding="UTF-8" standalone="no"?>
<svg
   xmlns:dc="http://purl.org/dc/elements/1.1/"
   xmlns:cc="http://creativecommons.org/ns#"
   xmlns:rdf="http://www.w3.org/1999/02/22-rdf-syntax-ns#"
   xmlns:svg="http://www.w3.org/2000/svg"
   xmlns="http://www.w3.org/2000/svg"
   id="svg835"
   version="1.1"
   viewBox="0 0 1024 1024"
   height="1024"
   width="1024">
  <metadata
     id="metadata841">
    <rdf:RDF>
      <cc:Work
         rdf:about="">
        <dc:format>image/svg+xml</dc:format>
        <dc:type
           rdf:resource="http://purl.org/dc/dcmitype/StillImage" />
        <dc:title></dc:title>
      </cc:Work>
    </rdf:RDF>
  </metadata>
  <defs
     id="defs839" />
  <rect
     y="0.6011157"
     x="-0.34971797"
     height="1024"
     width="1024"
     id="rect843"
     style="opacity:1;fill:#b11423;fill-opacity:1;stroke:none;stroke-width:0.99359775;stroke-opacity:1" />
  <g
     transform="matrix(0.78404513,0,0,0.78404513,113.86946,107.26833)"
     id="g833">
    <path
       style="fill:#b11423"
       id="path829"
       d="M 0,0 H 1024 V 1024 H 0 Z M 636.47,935.75 635.94,946 h 11.77 l 0.66,-27.75 c 0.36,-15.26 0.94,-35.06 1.29,-44 L 650.29,858 h 13.03 l -0.63,44 -0.63,44 h 2.47 c 2.4,0 2.47,-0.21 2.61,-7.75 0.07,-4.26 0.41,-24.13 0.75,-44.15 l 0.61,-36.39 9.25,-0.11 9.25,-0.1 v 44.25 c 0,42.42 0.08,44.25 1.85,44.25 2.66,0 3.15,-8.06 3.15,-51.65 V 858 h 21 v 44 c 0,43.33 0.03,44 2,44 1.97,0 2,-0.67 2,-43.93 v -43.94 l 10.25,-0.32 c 5.64,-0.18 10.59,-0.19 11,-0.01 0.41,0.17 0.75,20.09 0.75,44.26 0,43.87 0,43.94 2.09,43.94 h 2.08 l -0.55,-88.26 10.57,-0.12 10.58,-0.12 0.61,5.9 c 0.34,3.24 0.62,17.68 0.62,32.09 0,35.44 0.84,50.51 2.8,50.51 1.32,0 1.41,-5.31 0.77,-44 l -0.73,-44 h 17.88 l 0.65,22.75 c 0.36,12.51 0.93,32.31 1.28,44 l 0.63,21.25 h 4.24 c 4.11,0 4.29,-0.13 5.61,-4.25 1.07,-3.33 1.22,-8.57 0.69,-24.25 -0.38,-11 -1.85,-58.03 -3.27,-104.5 -1.42,-46.47 -3.71,-120.95 -5.08,-165.5 -1.36,-44.55 -2.73,-82.8 -3.03,-85 -0.61,-4.43 3.22,-18.6 8.41,-31.16 4.01,-9.7 12.97,-23.05 20.56,-30.63 l 6.25,-6.26 -1.86,-13.97 c -1.02,-7.69 -2.21,-17.47 -2.63,-21.73 L 817.4,451 H 833 v 5.03 c 0,6.23 2.03,11.29 5.41,13.5 1.66,1.09 5.52,1.87 10.9,2.21 10.68,0.67 16.93,-1.67 19.24,-7.2 2.8,-6.72 3.94,-17.97 2.68,-26.59 C 869.1,423.31 866.28,421 850.48,421 835.42,421 833,423.22 833,437.05 V 445 h -15.86 l -0.58,-5.25 c -1.16,-10.49 -2.55,-44.69 -2.55,-63 L 814,358 h 17.74 l 0.71,7.18 c 0.63,6.38 1.08,7.55 4.11,10.58 l 3.41,3.41 11.6,-0.33 c 11.51,-0.34 11.62,-0.36 14.34,-3.41 3.84,-4.3 5.47,-12.87 4.89,-25.66 -0.58,-12.77 -2.09,-16.13 -8.55,-18.98 -3.89,-1.72 -6.04,-1.97 -13.72,-1.57 -5,0.26 -10.13,1.03 -11.4,1.71 -3.28,1.76 -5.13,6.99 -5.13,14.54 V 352 h -17.95 l 0.43,-2.75 c 0.23,-1.51 0.68,-10.4 0.99,-19.75 0.32,-9.35 1.23,-24.65 2.04,-34 0.8,-9.35 1.47,-18.24 1.48,-19.75 0.01,-2.73 0.06,-2.75 6.87,-2.75 h 6.87 l 0.52,6.25 c 1.04,12.52 3.33,14.25 18.82,14.25 10.06,0 10.94,-0.16 13.38,-2.45 4.8,-4.51 7.46,-19.17 5.62,-31.01 -1.48,-9.55 -3.09,-12.43 -8.05,-14.42 -4.73,-1.89 -20.57,-2.24 -24.31,-0.53 -4.09,1.86 -5.71,5.93 -5.71,14.36 v 7.65 l -6.25,-0.3 -6.25,-0.3 0.31,-4 c 0.37,-4.87 9.18,-58.68 9.75,-59.6 0.95,-1.54 -3.76,-5.71 -7.15,-6.35 -9.72,-1.83 -16.19,-4.63 -21.63,-9.39 -4.81,-4.21 -6.28,-4.93 -11.05,-5.42 -7.45,-0.77 -9.94,-2.25 -20.86,-12.3 -14.66,-13.52 -25.92,-19.21 -42.62,-21.54 -22.96,-3.21 -43.95,3.89 -62.88,21.25 -10.83,9.95 -15.03,12.33 -23.52,13.37 -4.69,0.57 -6.23,1.28 -9,4.17 -4.37,4.55 -9.2,6.96 -18.64,9.32 -5,1.24 -8.32,2.67 -9.45,4.06 -0.96,1.17 -1.57,2.43 -1.36,2.78 1.15,1.89 10.51,62.9 9.77,63.65 -0.28,0.27 -3.35,0.5 -6.84,0.5 H 599 v -7.87 c 0,-6.37 -0.38,-8.35 -2.02,-10.42 -2.95,-3.75 -7.92,-5.01 -17.85,-4.51 -9.72,0.49 -14.1,2.24 -15.98,6.37 -2.14,4.69 -3.1,16.35 -2.05,24.76 2.01,16.03 4.75,18.67 19.4,18.67 14.08,0 17.45,-2.63 18.28,-14.23 l 0.49,-6.77 h 13.64 l 0.55,3.25 c 0.3,1.79 1.2,10 2,18.25 1.29,13.26 2.07,22.89 4.09,50.25 l 0.53,7.25 H 600 v -8.08 c 0,-7.53 -0.19,-8.26 -2.83,-10.9 -2.17,-2.17 -4.18,-3 -8.61,-3.56 -12.19,-1.52 -22.07,0.98 -24.44,6.18 -2.45,5.38 -3.31,15.01 -2.17,24.38 2.08,17.12 4.07,18.98 20.28,18.98 11.34,0 13.6,-0.84 16.28,-6.01 0.84,-1.63 1.49,-5.53 1.49,-8.94 V 358 h 20.27 l -0.67,38.25 c -0.37,21.04 -0.93,40.61 -1.23,43.5 L 617.81,445 H 601 v -7.55 C 601,423.9 597.74,421 582.52,421 c -12.59,0 -15.91,1.36 -18.7,7.67 -3.68,8.32 -2.71,28.58 1.79,37.49 2.1,4.14 8.71,6.2 18.12,5.64 12.71,-0.76 15.54,-3.23 16.84,-14.72 L 601.26,451 H 617 v 2.81 c 0,3.22 -3.73,34.56 -4.52,37.95 -0.42,1.8 1.14,4.03 7.62,10.9 11.31,12.01 20.16,26.19 24.23,38.84 4.57,14.18 4.66,15.2 3.64,43.34 -0.53,14.66 -1.86,54.56 -2.97,88.66 -1.1,34.1 -2.89,89 -3.97,122 -1.08,33 -2.43,75.75 -3,95 -0.57,19.25 -1.27,39.61 -1.56,45.25 z M 284.5,727.5 c 28.85,3.32 62.05,0.58 90.77,-7.48 56.07,-15.74 92.03,-51.62 99.79,-99.52 1.49,-9.26 1.48,-28.04 -0.04,-37.95 -1.25,-8.13 -5.64,-21.9 -9.28,-29.05 -7,-13.78 -20.48,-29.33 -36.67,-42.33 C 411.78,497.29 394.23,486.1 348,459.5 321.75,444.39 309.7,435.9 298.49,424.59 285.24,411.23 280.02,400.32 280.02,386 c 0.01,-17.09 7.39,-30.4 22.21,-40.04 9.25,-6.02 19.58,-8.43 36.27,-8.44 17.18,-0.02 26,1.83 38.51,8.09 20.19,10.11 31.18,28.52 31.27,52.39 0.05,11.06 -1.82,19.3 -6.73,29.69 -2.59,5.49 -3.11,7.43 -2.18,8.2 1.53,1.27 9.17,3.05 13.24,3.09 3.08,0.02 3.19,-0.17 9.19,-14.73 3.34,-8.11 10.44,-25.1 15.78,-37.75 l 0.36,-0.87 c 23.65,-56.05 24.86,-58.92 23.91,-60.3 -0.06,-0.08 -0.12,-0.15 -0.19,-0.23 -0.64,-0.78 -2.64,-2.03 -4.44,-2.78 -3.06,-1.28 -3.51,-1.2 -6.61,1.17 -8.67,6.61 -19.32,6.96 -46.11,1.52 -59.04,-11.98 -107.59,-5.76 -143.95,18.43 -21.82,14.52 -35.81,33.01 -43.18,57.1 -2.48,8.12 -2.75,10.46 -2.81,24.96 -0.05,14.09 0.22,16.9 2.28,23.5 4.23,13.55 8.61,20.46 20.65,32.6 14.16,14.28 31.57,26.54 59.51,41.89 38.51,21.17 54.32,30.62 67.07,40.11 19.88,14.79 31.87,29.89 38.22,48.11 2.89,8.29 3.07,9.67 3.13,24.29 0.08,17.47 -0.86,21.9 -7.45,35 -9.48,18.83 -29.9,32.94 -55.97,38.64 -12.08,2.64 -42.1,2.65 -53.5,0.01 -18.94,-4.4 -33.42,-12.32 -44.5,-24.36 -12.96,-14.07 -18.08,-26.17 -18.76,-44.29 -0.66,-17.5 1.97,-26.76 10.77,-37.89 8.81,-11.15 21.98,-16.69 37.85,-15.93 8.09,0.39 9.88,0.85 17.14,4.46 9.15,4.55 10,4.26 10,-3.39 0,-10.75 -4.09,-22.5 -10.42,-29.89 -9.82,-11.47 -32.41,-16.8 -54.7,-12.89 -16.17,2.83 -28.54,8.14 -40.88,17.53 -20.09,15.29 -30.93,35.7 -31.08,58.5 -0.14,21.81 6.81,40.46 21.85,58.64 21.61,26.12 55.53,42.39 98.73,47.36 z M 665.65,545.75 666.27,556 h -4.16 c -2.47,0 -4.33,-0.51 -4.55,-1.25 -0.2,-0.69 -1.58,-5.3 -3.05,-10.25 -4.94,-16.55 -14.93,-33.53 -27.21,-46.24 l -6.28,-6.5 1.98,-16.13 c 4.8,-39.14 6.62,-82.27 5.06,-120.41 -1.97,-48.42 -6.76,-93.83 -14.1,-133.83 -1.63,-8.86 -2.96,-16.36 -2.96,-16.67 0,-0.31 1.46,-0.88 3.25,-1.26 10.15,-2.2 16.21,-4.81 20.63,-8.9 3.48,-3.22 5.73,-4.44 9.12,-4.95 9.81,-1.46 13.78,-3.53 22.78,-11.88 14.52,-13.47 23.87,-18.5 39.72,-21.4 14.74,-2.69 31.9,0.47 44.49,8.2 3.03,1.86 10.01,7.46 15.51,12.45 10.35,9.38 15.44,12.02 23.17,12.02 2.45,0 4.04,0.81 6.07,3.1 3.81,4.28 9.42,7.34 18.26,9.96 4.12,1.22 7.6,2.29 7.71,2.38 0.12,0.08 -0.68,5.08 -1.77,11.1 -2.88,15.98 -7.6,49.69 -9.37,66.96 -3.25,31.7 -3.94,47.37 -4.01,90 -0.06,46.5 0.62,59.58 5.08,97.75 l 2.54,21.74 -5.89,5.81 c -6.79,6.67 -15.98,20.03 -20.18,29.31 -2.68,5.91 -7.18,19.66 -8.56,26.14 -0.45,2.1 -1.17,2.75 -3.07,2.75 -1.9,0 -2.48,-0.52 -2.48,-2.25 -0.01,-7.17 2.09,-70.76 2.59,-78.5 0.56,-8.62 0.74,-9.25 2.75,-9.26 3.7,-0.02 12.26,-4.62 14.53,-7.81 2.79,-3.92 5.13,-10.57 5.12,-14.56 -0.01,-4.12 -4.02,-12.44 -7.61,-15.82 -6.37,-5.97 -16.97,-7.58 -24.53,-3.73 l -4.06,2.08 0.59,-5.83 c 0.32,-3.2 1.05,-11.9 1.61,-19.32 0.56,-7.42 1.27,-16.71 1.59,-20.62 l 0.57,-7.13 3.9,0.99 c 9.04,2.3 20.56,-2.77 23.92,-10.51 6.37,-14.69 0.22,-28.91 -14.19,-32.79 -4.93,-1.33 -13.54,0.3 -17.31,3.27 l -2.66,2.09 0.68,-6.4 c 0.37,-3.52 1.77,-15.13 3.09,-25.8 1.33,-10.67 2.42,-19.52 2.42,-19.68 0,-0.15 1.46,0.14 3.24,0.65 14.18,4.07 28.18,-4.98 29.54,-19.09 1.83,-19.05 -19.68,-30.53 -35.59,-19 -5.16,3.74 -7.26,7.75 -7.94,15.14 -0.44,4.93 -0.11,6.64 2.19,11.35 1.49,3.05 3.49,5.96 4.45,6.47 1.62,0.87 1.5,2.78 -1.98,30.85 -2.51,20.28 -4.27,31 -5.44,33.26 -1.38,2.68 -1.61,4.87 -1.15,10.9 0.59,7.59 -3.74,45.47 -14.28,125.05 -3.63,27.41 -5.42,41.82 -8.01,64.5 -0.56,4.95 -1.03,9.56 -1.03,10.25 0,0.9 -2.35,1.25 -8.39,1.25 h -8.38 l -1.11,-6.25 c -0.62,-3.44 -2.03,-12.1 -3.16,-19.25 -1.8,-11.46 -4.59,-28.85 -9.46,-59 -3.96,-24.51 -6.71,-42.08 -9.95,-63.5 -1.95,-12.92 -4.19,-27.33 -4.98,-32 -0.8,-4.67 -2.36,-14.8 -3.49,-22.5 -1.12,-7.7 -4.1,-27.6 -6.63,-44.22 l -4.58,-30.22 2.09,-2.25 c 1.15,-1.23 2.75,-4.46 3.55,-7.17 2.9,-9.76 -1.46,-20.21 -10.37,-24.85 -7.18,-3.73 -13.1,-3.73 -20.26,0 -11.98,6.26 -15.44,19.98 -7.91,31.36 5.09,7.68 15,11.3 24.79,9.04 0.49,-0.11 0.93,-0.25 1.32,-0.36 0.79,-0.24 1.38,-0.43 1.88,-0.27 1.78,0.54 2.24,5.41 5.57,27.44 1.95,12.92 3.82,24.4 4.15,25.5 0.47,1.54 -0.17,1.25 -2.74,-1.26 -1.86,-1.82 -5.68,-4 -8.6,-4.92 -13.71,-4.32 -27.73,6.13 -27.73,20.68 0.01,14.32 13.77,25.75 26.71,22.18 0.35,-0.1 0.67,-0.21 0.96,-0.3 0.72,-0.24 1.26,-0.42 1.7,-0.28 1.58,0.5 1.86,5.11 4,25.9 1.14,11 2.31,21.64 2.62,23.65 l 0.54,3.65 -4.74,-2.4 c -5.61,-2.84 -13.56,-3.19 -19.18,-0.85 -21.42,8.95 -15.16,42.32 7.95,42.43 l 4.67,0.02 0.56,6.25 c 0.31,3.44 1.02,19.08 1.59,34.75 0.57,15.67 1.32,33.11 1.66,38.75 z M 292,315.74 c 0,0.84 0.59,1.25 1.38,0.94 3.06,-1.17 25.1,-5.8 34.31,-7.21 5.39,-0.82 18.36,-1.94 28.81,-2.49 36.6,-1.92 50.4,-5.34 61.08,-15.14 6.9,-6.33 8.88,-11.35 8.74,-22.15 -0.06,-4.85 -0.31,-9.02 -0.57,-9.27 -0.25,-0.25 -3.56,2.51 -7.35,6.14 -15.04,14.4 -36.18,24.82 -66.9,32.98 -7.15,1.9 -13.39,3.46 -13.87,3.46 -1.74,0 2.05,-3.47 11.02,-10.1 16.49,-12.19 22.82,-21.04 22.82,-31.89 0,-10.86 -7.1,-17.03 -19.54,-16.99 -7.62,0.03 -12.88,2.14 -18.89,7.57 -12.66,11.43 -14.59,34.37 -3.99,47.6 1.62,2.03 2.95,4.07 2.95,4.52 0,0.46 -3.49,1.56 -7.75,2.44 -16.87,3.5 -32.25,8.07 -32.25,9.59 z m 416.3,232.01 1.36,8.25 h -17.3 l -1.77,-15.25 c -3.45,-29.77 -6.58,-55.46 -8.63,-70.75 -1.26,-9.47 -1.85,-17.85 -1.51,-21.55 0.36,-3.87 0.05,-7.82 -0.87,-11 -0.78,-2.72 -1.92,-9.9 -2.52,-15.95 -0.61,-6.05 -1.99,-18.65 -3.09,-28 -1.09,-9.35 -2.14,-18.56 -2.34,-20.47 -0.28,-2.73 0.23,-4.05 2.4,-6.22 1.52,-1.51 3.21,-4.45 3.76,-6.53 0.99,-3.74 1,-3.74 1.11,-0.7 0.05,1.7 0.55,5.52 1.1,8.5 0.56,2.98 3.51,21.84 6.57,41.92 3.06,20.08 6.92,45.05 8.57,55.5 4.3,27.11 11.57,72.56 13.16,82.25 z m 43.1,4 -0.52,4.25 h -17.11 l 0.69,-6.75 c 0.38,-3.71 4.05,-33.53 8.17,-66.25 4.11,-32.73 8.33,-66.48 9.37,-75 1.04,-8.52 2.65,-21.58 3.58,-29.01 l 1.7,-13.51 3.42,3.42 3.42,3.42 -1.65,27.59 c -1.54,25.75 -1.83,27.98 -4.28,33.41 -3.02,6.69 -3.39,14.45 -0.93,19.21 1.25,2.43 1.38,4.56 0.69,11.48 -1.42,14.25 -4.81,58.76 -5.44,71.49 -0.32,6.6 -0.82,13.91 -1.11,16.25 z M 764,839.25 V 851 h -22 v -19.84 c 0,-10.91 -0.3,-31.38 -0.66,-45.5 L 740.68,760 h 22 l 0.66,33.75 c 0.36,18.56 0.66,39.04 0.66,45.5 z M 738,760 v 91 h -21 v -91 z m 22.66,-125.66 0.66,28.66 h -22 l -0.68,-40.75 c -0.37,-22.41 -0.95,-42.66 -1.29,-45 L 736.74,573 h 13.98 l 0.76,18.25 c 0.42,10.04 1.1,21.85 1.49,26.25 l 0.73,8 0.09,-6.5 c 0.04,-3.58 -0.26,-12.93 -0.68,-20.8 -0.42,-7.86 -0.56,-16.75 -0.31,-19.75 0.45,-5.43 0.46,-5.45 3.82,-5.45 H 760 v 16.34 c 0,8.98 0.3,29.23 0.66,45 z M 713,760 v 91 h -21 v -31.84 c 0,-17.51 0.29,-37.99 0.66,-45.5 L 693.31,760 Z m 49.34,-32.25 0.38,26.25 H 741.3 l -0.65,-15.25 c -0.36,-8.39 -0.68,-27.34 -0.71,-42.12 l -0.07,-26.87 10.46,-0.47 10.45,-0.48 0.59,16.35 c 0.33,8.99 0.76,28.15 0.97,42.59 z M 713,622.64 V 663 h -19.5 l 0.29,-43.75 c 0.16,-24.06 0.48,-44.31 0.72,-45 0.3,-0.87 3,-1.25 8.82,-1.25 h 8.4 l 0.63,4.64 c 0.35,2.55 0.64,22.8 0.64,45 z m 0,46.17 V 754 h -20.02 l 0.52,-84.26 9.75,-0.47 z m 24,70.44 V 754 h -20 v -85 h 18.68 l 0.66,27.75 c 0.36,15.26 0.66,34.39 0.66,42.5 z m -50,94.91 V 851 h -18.5 l 0.62,-30.75 c 0.35,-16.91 0.69,-37.39 0.75,-45.5 L 670,760 h 18.32 l -0.66,28.66 C 687.3,804.43 687,824.9 687,834.16 Z m 98.63,12.09 0.56,4.75 h -9.13 c -6.43,0 -9.24,-0.37 -9.51,-1.25 -0.21,-0.69 -0.63,-21.16 -0.93,-45.5 L 766.08,760 h 16.74 l 0.55,3.75 c 0.3,2.06 0.81,20.4 1.13,40.75 0.31,20.35 0.82,39.14 1.13,41.75 z M 735.4,618.75 736.09,663 H 717 v -90 h 12 l 0.13,11.75 c 0.07,6.46 0.45,15.13 0.84,19.25 0.58,6.13 0.75,4.3 0.94,-10 0.23,-17.8 0.73,-21.49 2.69,-20.21 0.76,0.49 1.32,14.54 1.8,44.96 z M 689.19,621.5 689,663 h -8.5 c -4.67,0 -8.54,-0.34 -8.58,-0.75 -0.35,-3.2 0.23,-61.9 0.74,-74.04 l 0.63,-15.29 16.21,0.58 -0.06,3.25 c -0.03,1.79 -0.14,21.92 -0.25,44.75 z m -0.97,98 L 688,754 h -18.32 l 0.66,-19.66 C 670.7,723.53 671,704.37 671,691.77 v -22.9 l 8.75,0.31 8.75,0.32 -0.03,7.75 c -0.01,4.26 -0.13,23.28 -0.25,42.25 z M 771.4,552.75 770.91,556 h -17.07 l 0.61,-6.25 c 0.34,-3.44 1.27,-16.6 2.07,-29.25 2.35,-37.14 3.53,-53.79 4.05,-57.13 l 0.48,-3.13 13.13,6.26 -0.57,15.5 c -0.32,8.52 -0.84,27.2 -1.15,41.5 -0.31,14.3 -0.79,27.46 -1.06,29.25 z M 783,745.25 V 754 h -16.68 l -0.66,-18.16 C 765.3,725.85 765,706.73 765,693.34 V 669 l 6.75,0.02 c 3.71,0 7.26,0.34 7.89,0.75 1.07,0.69 3.38,52.36 3.36,75.48 z m -2.35,-99.5 0.64,17.25 h -17.03 l -0.61,-16.75 c -0.33,-9.21 -0.73,-29.35 -0.88,-44.75 l -0.27,-28 8.18,-0.6 0.8,25.8 c 1.65,53.18 2.26,59.08 1.77,17.05 L 772.75,573 h 5.95 l 0.66,27.75 c 0.36,15.26 0.94,35.51 1.29,45 z m -93.05,-93.5 0.58,3.75 h -16.79 l -1.78,-42.25 c -0.97,-23.24 -2.14,-46.07 -2.59,-50.73 -0.79,-8.17 -0.73,-8.56 1.58,-10.7 l 2.4,-2.22 v 3.48 c 0,1.92 -0.68,5.1 -1.5,7.07 -1.64,3.93 -1.34,3.86 4.17,-0.95 l 2.18,-1.9 0.58,4.35 c 0.33,2.39 1.96,15.83 3.62,29.85 3.21,26.94 6.6,53.99 7.55,60.25 z m -23.6,278 V 851 h -13.65 l 0.33,-10.75 c 0.18,-5.91 0.78,-24.47 1.33,-41.25 0.55,-16.78 1,-32.41 0.99,-34.75 V 760 h 12.32 l -0.66,24.75 c -0.36,13.61 -0.66,34.09 -0.66,45.5 z m 1.34,-98 -0.66,21.75 h -5.17 c -2.85,0 -5.36,-0.19 -5.59,-0.41 -0.46,-0.46 0.6,-45.47 1.63,-69.34 L 656.21,669 H 666 v 20.75 c 0,11.41 -0.3,30.54 -0.66,42.5 z m 1.01,-80.5 -0.59,11.25 H 655.7 l 0.62,-9.75 c 0.35,-5.36 0.88,-23.7 1.2,-40.75 0.31,-17.05 0.81,-32.94 1.09,-35.3 l 0.53,-4.31 4.18,0.31 4.18,0.3 -0.28,33.5 c -0.16,18.42 -0.55,38.56 -0.87,44.75 z M 662,449.5 c 0,3.18 -0.26,3.5 -2.85,3.5 -3.7,0 -9.37,-3.85 -10.53,-7.14 -0.5,-1.42 -0.58,-3.88 -0.18,-5.47 l 0.73,-2.89 1.33,3.17 c 3.07,7.3 12.51,6.98 15.78,-0.52 1.13,-2.57 1.17,-2.52 1.51,1.77 0.19,2.43 0.05,5.57 -0.3,6.98 l -0.64,2.56 -1.66,-2.73 c -2.22,-3.67 -3.19,-3.44 -3.19,0.77 z m 1.38,-89.45 c -4.61,1.75 -8.36,1.12 -11.41,-1.92 -3.36,-3.36 -4.58,-7.24 -3.09,-9.81 0.93,-1.59 1.06,-1.61 1.09,-0.16 0.04,1.95 5.51,6.84 7.66,6.84 2.98,0 7.56,-3.22 8.81,-6.2 l 1.29,-3.07 0.46,3.13 c 0.39,2.61 0.13,3.14 -1.49,3.14 -1.69,0 -1.88,0.5 -1.39,3.55 0.51,3.11 0.28,3.66 -1.93,4.5 z m -0.14,-89.77 c -2.42,2.19 -7.07,2.94 -10.24,1.65 -3.97,-1.62 -5.96,-4.94 -5.94,-9.93 l 0.02,-4.5 1.57,3 c 2.94,5.64 7.59,7.12 12.19,3.9 2.63,-1.84 2.78,-1.78 3.64,1.65 0.45,1.8 0.09,3.03 -1.24,4.23 z M 780,359 c -4.3,2.2 -5.4,2.32 -8.77,0.96 -2.87,-1.15 -3.69,-3.23 -2.3,-5.83 1.03,-1.92 1.24,-1.94 3.87,-0.43 2.57,1.47 3.06,1.46 6.54,-0.19 2.76,-1.31 3.92,-2.58 4.36,-4.76 0.51,-2.55 0.73,-2.73 1.57,-1.24 0.65,1.16 0.58,3.04 -0.19,5.62 -0.89,2.96 -2.08,4.34 -5.08,5.87 z m 2.03,-88.65 c -3.11,2.07 -6.93,2.11 -9.81,0.09 -2.57,-1.8 -2.69,-2.41 -0.93,-4.82 1.1,-1.5 1.68,-1.59 3.93,-0.57 3.74,1.71 7.52,0.42 9.81,-3.33 l 1.96,-3.22 0.01,3.56 c 0,3.85 -1.13,5.73 -4.97,8.29 z m -0.43,180.59 c -4.39,2.71 -4.6,2.65 -4.6,-1.34 0,-2.89 0.46,-3.56 3.03,-4.46 1.92,-0.67 3.52,-2.21 4.36,-4.21 1.2,-2.87 1.37,-2.96 1.88,-1.01 1,3.83 -1.11,8.82 -4.67,11.02 z m -6.4,-1.87 c -0.54,3.68 -1.6,3.68 -5.28,0.01 -2.26,-2.26 -2.92,-3.84 -2.92,-6.94 0,-5.15 1.3,-5.96 2.82,-1.75 0.66,1.8 2.23,3.83 3.5,4.51 1.81,0.97 2.22,1.88 1.88,4.17 z m 6.12,-83.19 c -2.19,1.12 -9.72,1.41 -12.07,0.46 -0.69,-0.28 -1.25,-1.6 -1.25,-2.95 0,-2.37 0.06,-2.39 2.52,-0.78 3.21,2.1 9.68,1.36 13.63,-1.57 1.57,-1.15 2.84,-1.75 2.83,-1.32 -0.04,1.35 -3.39,5 -5.66,6.16 z M 780.98,278 c -1,0 -2.42,0.17 -3.15,0.38 -0.73,0.21 -2.23,0.19 -3.33,-0.04 -1.1,-0.23 -3.01,-0.63 -4.25,-0.9 -1.43,-0.3 -2.25,-1.21 -2.25,-2.48 0,-1.9 0.16,-1.93 2.95,-0.49 5,2.59 11.01,1.39 16.3,-3.25 1.25,-1.09 1.75,-1.17 1.75,-0.28 0,1.85 -5.92,7.06 -8.02,7.06 z M 666,274.35 c 0,1.9 -0.75,2.48 -4.25,3.28 -6.46,1.47 -14.57,-1.11 -16.11,-5.12 -0.3,-0.79 0.99,-0.34 3.06,1.06 4.39,2.98 9.62,3.14 14.05,0.44 l 3.25,-1.98 z m -0.2,90.02 c -0.25,1.8 -1.07,2.17 -5.3,2.41 -4.1,0.23 -5.67,-0.2 -8.75,-2.41 -2.06,-1.48 -3.75,-3.1 -3.75,-3.6 0,-0.5 0.69,-0.22 1.53,0.62 2.19,2.19 8.25,3.08 12.73,1.89 3.61,-0.97 3.83,-0.9 3.54,1.09 z m -3.8,93.86 c 0,3.87 -8.69,1.22 -13.4,-4.09 -2.47,-2.77 -1.32,-2.73 2.49,0.09 1.92,1.42 4.45,2.22 6.96,2.22 3.11,0 3.95,0.38 3.95,1.78 z m 120,-0.48 c -4.2,2.87 -5,2.83 -5,-0.25 0,-2.08 0.48,-2.5 2.87,-2.5 1.57,0 4.16,-1.01 5.75,-2.24 l 2.88,-2.25 -1.6,2.5 c -0.88,1.37 -3.09,3.5 -4.9,4.74 z m -7.02,-1.56 c -0.05,4.71 -4.16,3.67 -8.44,-2.14 -2.74,-3.71 -2.44,-5.87 0.34,-2.45 2.15,2.66 5.86,4.68 7.14,3.89 0.54,-0.34 0.97,-0.02 0.96,0.7 z m -6,-106.66 c 0.01,0.56 -0.88,1.8 -1.98,2.74 -1.93,1.65 -2,1.61 -1.98,-1.03 0,-1.51 0.45,-3.41 1,-4.24 0.87,-1.33 1.09,-1.33 1.96,0 0.55,0.83 1,1.96 1,2.53 z m 1.33,-90.44 c 0.35,1.34 -0.16,2.9 -1.37,4.21 l -1.94,2.08 0.03,-2.44 c 0.02,-1.34 0.64,-3.24 1.38,-4.21 1.27,-1.67 1.38,-1.65 1.9,0.36 z M 665.6,257.84 c 1.73,2.46 1.63,3.15 -0.35,2.44 -0.69,-0.25 -1.25,-1.41 -1.25,-2.59 0,-2.12 0.01,-2.12 1.6,0.15 z" />
    <path
       style="fill:#fcf6f5"
       id="path831"
       d="m 636.47,935.75 c 0.29,-5.64 0.99,-26 1.56,-45.25 0.57,-19.25 1.92,-62 3,-95 1.08,-33 2.87,-87.9 3.97,-122 1.11,-34.1 2.44,-74 2.97,-88.66 1.02,-28.14 0.93,-29.16 -3.64,-43.34 -4.07,-12.65 -12.92,-26.83 -24.23,-38.84 -6.48,-6.87 -8.04,-9.1 -7.62,-10.9 0.79,-3.39 4.52,-34.73 4.52,-37.95 V 451 h -7.87 -7.87 l -0.69,6.08 c -1.3,11.49 -4.13,13.96 -16.84,14.72 -9.41,0.56 -16.02,-1.5 -18.12,-5.64 -4.5,-8.91 -5.47,-29.17 -1.79,-37.49 2.79,-6.31 6.11,-7.67 18.7,-7.67 15.22,0 18.48,2.9 18.48,16.45 V 445 h 8.4 8.41 l 0.56,-5.25 c 0.3,-2.89 0.86,-22.46 1.23,-43.5 L 620.27,358 H 610.14 600 v 6.05 c 0,3.41 -0.65,7.31 -1.49,8.94 -2.68,5.17 -4.94,6.01 -16.28,6.01 -16.21,0 -18.2,-1.86 -20.28,-18.98 -1.14,-9.37 -0.28,-19 2.17,-24.38 2.37,-5.2 12.25,-7.7 24.44,-6.18 4.43,0.56 6.44,1.39 8.61,3.56 2.64,2.64 2.83,3.37 2.83,10.9 V 352 h 10.04 10.04 l -0.53,-7.25 c -2.02,-27.36 -2.8,-36.99 -4.09,-50.25 -0.8,-8.25 -1.7,-16.46 -2,-18.25 L 612.91,273 h -6.82 -6.82 l -0.49,6.77 c -0.83,11.6 -4.2,14.23 -18.28,14.23 -14.65,0 -17.39,-2.64 -19.4,-18.67 -1.05,-8.41 -0.09,-20.07 2.05,-24.76 1.88,-4.13 6.26,-5.88 15.98,-6.37 9.93,-0.5 14.9,0.76 17.85,4.51 1.64,2.07 2.02,4.05 2.02,10.42 V 267 h 6.33 c 3.49,0 6.56,-0.23 6.84,-0.5 0.74,-0.75 -8.62,-61.76 -9.77,-63.65 -0.21,-0.35 0.4,-1.61 1.36,-2.78 1.13,-1.39 4.45,-2.82 9.45,-4.06 9.44,-2.36 14.27,-4.77 18.64,-9.32 2.77,-2.89 4.31,-3.6 9,-4.17 8.49,-1.04 12.69,-3.42 23.52,-13.37 18.93,-17.36 39.92,-24.46 62.88,-21.25 16.7,2.33 27.96,8.02 42.62,21.54 10.92,10.05 13.41,11.53 20.86,12.3 4.77,0.49 6.24,1.21 11.05,5.42 5.44,4.76 11.91,7.56 21.63,9.39 3.39,0.64 8.1,4.81 7.15,6.35 -0.57,0.92 -9.38,54.73 -9.75,59.6 l -0.31,4 6.25,0.3 6.25,0.3 v -7.65 c 0,-8.43 1.62,-12.5 5.71,-14.36 3.74,-1.71 19.58,-1.36 24.31,0.53 4.96,1.99 6.57,4.87 8.05,14.42 1.84,11.84 -0.82,26.5 -5.62,31.01 -2.44,2.29 -3.32,2.45 -13.38,2.45 -15.49,0 -17.78,-1.73 -18.82,-14.25 L 832.73,273 h -6.87 c -6.81,0 -6.86,0.02 -6.87,2.75 -0.01,1.51 -0.68,10.4 -1.48,19.75 -0.81,9.35 -1.72,24.65 -2.04,34 -0.31,9.35 -0.76,18.24 -0.99,19.75 l -0.43,2.75 h 8.98 8.97 v -6.53 c 0,-7.55 1.85,-12.78 5.13,-14.54 1.27,-0.68 6.4,-1.45 11.4,-1.71 7.68,-0.4 9.83,-0.15 13.72,1.57 6.46,2.85 7.97,6.21 8.55,18.98 0.58,12.79 -1.05,21.36 -4.89,25.66 -2.72,3.05 -2.83,3.07 -14.34,3.41 l -11.6,0.33 -3.41,-3.41 c -3.03,-3.03 -3.48,-4.2 -4.11,-10.58 L 831.74,358 H 822.87 814 l 0.01,18.75 c 0,18.31 1.39,52.51 2.55,63 l 0.58,5.25 h 7.93 7.93 v -7.95 c 0,-13.83 2.42,-16.05 17.48,-16.05 15.8,0 18.62,2.31 20.75,16.95 1.26,8.62 0.12,19.87 -2.68,26.59 -2.31,5.53 -8.56,7.87 -19.24,7.2 -5.38,-0.34 -9.24,-1.12 -10.9,-2.21 -3.38,-2.21 -5.41,-7.27 -5.41,-13.5 V 451 h -7.8 -7.8 l 0.77,7.75 c 0.42,4.26 1.61,14.04 2.63,21.73 l 1.86,13.97 -6.25,6.26 c -7.59,7.58 -16.55,20.93 -20.56,30.63 -5.19,12.56 -9.02,26.73 -8.41,31.16 0.3,2.2 1.67,40.45 3.03,85 1.37,44.55 3.66,119.03 5.08,165.5 1.42,46.47 2.89,93.5 3.27,104.5 0.53,15.68 0.38,20.92 -0.69,24.25 -1.32,4.12 -1.5,4.25 -5.61,4.25 h -4.24 l -0.63,-21.25 c -0.35,-11.69 -0.92,-31.49 -1.28,-44 L 785.72,858 h -8.94 -8.94 l 0.73,44 c 0.64,38.69 0.55,44 -0.77,44 -1.96,0 -2.8,-15.07 -2.8,-50.51 0,-14.41 -0.28,-28.85 -0.62,-32.09 l -0.61,-5.9 -10.58,0.12 -10.57,0.12 0.27,44.13 0.28,44.13 h -2.08 C 739,946 739,945.93 739,902.06 c 0,-24.17 -0.34,-44.09 -0.75,-44.26 -0.41,-0.18 -5.36,-0.17 -11,0.01 L 717,858.13 v 43.94 c 0,43.26 -0.03,43.93 -2,43.93 -1.97,0 -2,-0.67 -2,-44 V 858 H 702.5 692 v 36.35 c 0,43.59 -0.49,51.65 -3.15,51.65 -1.77,0 -1.85,-1.83 -1.85,-44.25 V 857.5 l -9.25,0.1 -9.25,0.11 -0.61,36.39 c -0.34,20.02 -0.68,39.89 -0.75,44.15 -0.14,7.54 -0.21,7.75 -2.61,7.75 h -2.47 l 0.63,-44 0.63,-44 h -6.51 -6.52 l -0.63,16.25 c -0.35,8.94 -0.93,28.74 -1.29,44 L 647.71,946 h -5.89 -5.88 z M 664,830.25 c 0,-11.41 0.3,-31.89 0.66,-45.5 L 665.32,760 H 659.16 653 v 4.25 c 0.01,2.34 -0.44,17.97 -0.99,34.75 -0.55,16.78 -1.15,35.34 -1.33,41.25 L 650.35,851 h 6.83 6.82 z m 23,3.91 c 0,-9.26 0.3,-29.73 0.66,-45.5 L 688.32,760 H 679.16 670 l -0.13,14.75 c -0.06,8.11 -0.4,28.59 -0.75,45.5 L 668.5,851 h 9.25 9.25 z M 713,805.5 V 760 h -9.84 -9.85 l -0.65,13.66 c -0.37,7.51 -0.66,27.99 -0.66,45.5 V 851 h 10.5 10.5 z m 25,0 V 760 H 727.5 717 v 45.5 45.5 h 10.5 10.5 z m 26,33.75 c 0,-6.46 -0.3,-26.94 -0.66,-45.5 L 762.68,760 h -11 -11 l 0.66,25.66 c 0.36,14.12 0.66,34.59 0.66,45.5 V 851 h 11 11 z m 21.63,7 c -0.31,-2.61 -0.82,-21.4 -1.13,-41.75 -0.32,-20.35 -0.83,-38.69 -1.13,-40.75 L 782.82,760 h -8.37 -8.37 l 0.54,44.25 c 0.3,24.34 0.72,44.81 0.93,45.5 0.27,0.88 3.08,1.25 9.51,1.25 h 9.13 z m -120.29,-114 C 665.7,720.29 666,701.16 666,689.75 V 669 h -4.89 -4.9 l -0.66,15.25 c -1.03,23.87 -2.09,68.88 -1.63,69.34 0.23,0.22 2.74,0.41 5.59,0.41 h 5.17 z m 22.88,-12.75 c 0.12,-18.97 0.24,-37.99 0.25,-42.25 l 0.03,-7.75 -8.75,-0.32 -8.75,-0.31 v 22.9 c 0,12.6 -0.3,31.76 -0.66,42.57 L 669.68,754 h 9.16 9.16 z M 713,711.4 v -42.59 l -9.75,0.46 -9.75,0.47 -0.26,42.13 -0.26,42.13 H 702.99 713 Z m 24,27.85 c 0,-8.11 -0.3,-27.24 -0.66,-42.5 L 735.68,669 H 726.34 717 v 42.5 42.5 h 10 10 z m 25.34,-11.5 c -0.21,-14.44 -0.64,-33.6 -0.97,-42.59 l -0.59,-16.35 -10.45,0.48 -10.46,0.47 0.07,26.87 c 0.03,14.78 0.35,33.73 0.71,42.12 L 741.3,754 h 10.71 10.71 z m 20.66,17.5 c 0.02,-23.12 -2.29,-74.79 -3.36,-75.48 -0.63,-0.41 -4.18,-0.75 -7.89,-0.75 L 765,669 v 24.34 c 0,13.39 0.3,32.51 0.66,42.5 l 0.66,18.16 h 8.34 8.34 z m -116.65,-93.5 c 0.32,-6.19 0.71,-26.33 0.87,-44.75 l 0.28,-33.5 -4.18,-0.3 -4.18,-0.31 -0.53,4.31 c -0.28,2.36 -0.78,18.25 -1.09,35.3 -0.32,17.05 -0.85,35.39 -1.2,40.75 L 655.7,663 h 5.03 5.03 z m 22.84,-30.25 c 0.11,-22.83 0.22,-42.96 0.25,-44.75 l 0.06,-3.25 -8.1,-0.29 -8.11,-0.29 -0.63,15.29 c -0.51,12.14 -1.09,70.84 -0.74,74.04 0.04,0.41 3.91,0.75 8.58,0.75 h 8.5 z m 23.81,1.14 c 0,-22.2 -0.29,-42.45 -0.64,-45 L 711.73,573 h -8.4 c -5.82,0 -8.52,0.38 -8.82,1.25 -0.24,0.69 -0.56,20.94 -0.72,45 L 693.5,663 h 9.75 9.75 z m 22.4,-3.89 c -0.48,-30.42 -1.04,-44.47 -1.8,-44.96 -1.96,-1.28 -2.46,2.41 -2.69,20.21 -0.19,14.3 -0.36,16.13 -0.94,10 -0.39,-4.12 -0.77,-12.79 -0.84,-19.25 L 729,573 h -6 -6 v 45 45 h 9.55 9.54 z m 25.26,15.59 C 760.3,618.57 760,598.32 760,589.34 V 573 h -3.38 c -3.36,0 -3.37,0.02 -3.82,5.45 -0.25,3 -0.11,11.89 0.31,19.75 0.42,7.87 0.72,17.22 0.68,20.8 l -0.09,6.5 -0.73,-8 c -0.39,-4.4 -1.07,-16.21 -1.49,-26.25 L 750.72,573 h -6.99 -6.99 l 0.61,4.25 c 0.34,2.34 0.92,22.59 1.29,45 l 0.68,40.75 h 11 11 z m 19.99,11.41 c -0.35,-9.49 -0.93,-29.74 -1.29,-45 L 778.7,573 h -2.97 -2.98 l 0.5,42.75 c 0.49,42.03 -0.12,36.13 -1.77,-17.05 l -0.8,-25.8 -4.09,0.3 -4.09,0.3 0.27,28 c 0.15,15.4 0.55,35.54 0.88,44.75 l 0.61,16.75 h 8.51 8.52 z m -115,-100 c -0.34,-5.64 -1.09,-23.08 -1.66,-38.75 -0.57,-15.67 -1.28,-31.31 -1.59,-34.75 l -0.56,-6.25 -4.67,-0.02 c -23.11,-0.11 -29.37,-33.48 -7.95,-42.43 5.62,-2.34 13.57,-1.99 19.18,0.85 l 4.74,2.4 -0.54,-3.65 c -0.31,-2.01 -1.48,-12.65 -2.62,-23.65 -2.99,-28.97 -2.34,-26.52 -6.66,-25.32 -12.94,3.57 -26.7,-7.86 -26.71,-22.18 0,-14.55 14.02,-25 27.73,-20.68 2.92,0.92 6.74,3.1 8.6,4.92 2.57,2.51 3.21,2.8 2.74,1.26 -0.33,-1.1 -2.2,-12.58 -4.15,-25.5 -4.72,-31.17 -3.68,-27.98 -8.77,-26.81 -9.79,2.26 -19.7,-1.36 -24.79,-9.04 -7.53,-11.38 -4.07,-25.1 7.91,-31.36 7.16,-3.73 13.08,-3.73 20.26,0 8.91,4.64 13.27,15.09 10.37,24.85 -0.8,2.71 -2.4,5.94 -3.55,7.17 l -2.09,2.25 4.58,30.22 c 2.53,16.62 5.51,36.52 6.63,44.22 1.13,7.7 2.69,17.83 3.49,22.5 0.79,4.67 3.03,19.08 4.98,32 3.24,21.42 5.99,38.99 9.95,63.5 4.87,30.15 7.66,47.54 9.46,59 1.13,7.15 2.54,15.81 3.16,19.25 l 1.11,6.25 h 8.38 c 6.04,0 8.39,-0.35 8.39,-1.25 0,-0.69 0.47,-5.3 1.03,-10.25 2.59,-22.68 4.38,-37.09 8.01,-64.5 10.54,-79.58 14.87,-117.46 14.28,-125.05 -0.46,-6.03 -0.23,-8.22 1.15,-10.9 1.17,-2.26 2.93,-12.98 5.44,-33.26 3.48,-28.07 3.6,-29.98 1.98,-30.85 -0.96,-0.51 -2.96,-3.42 -4.45,-6.47 -2.3,-4.71 -2.63,-6.42 -2.19,-11.35 0.68,-7.39 2.78,-11.4 7.94,-15.14 15.91,-11.53 37.42,-0.05 35.59,19 -1.36,14.11 -15.36,23.16 -29.54,19.09 -1.78,-0.51 -3.24,-0.8 -3.24,-0.65 0,0.16 -1.09,9.01 -2.42,19.68 -1.32,10.67 -2.72,22.28 -3.09,25.8 l -0.68,6.4 2.66,-2.09 c 3.77,-2.97 12.38,-4.6 17.31,-3.27 14.41,3.88 20.56,18.1 14.19,32.79 -3.36,7.74 -14.88,12.81 -23.92,10.51 l -3.9,-0.99 -0.57,7.13 c -0.32,3.91 -1.03,13.2 -1.59,20.62 -0.56,7.42 -1.29,16.12 -1.61,19.32 l -0.59,5.83 4.06,-2.08 c 7.56,-3.85 18.16,-2.24 24.53,3.73 3.59,3.38 7.6,11.7 7.61,15.82 0.01,3.99 -2.33,10.64 -5.12,14.56 -2.27,3.19 -10.83,7.79 -14.53,7.81 -2.01,0.01 -2.19,0.64 -2.75,9.26 -0.5,7.74 -2.6,71.33 -2.59,78.5 0,1.73 0.58,2.25 2.48,2.25 1.9,0 2.62,-0.65 3.07,-2.75 1.38,-6.48 5.88,-20.23 8.56,-26.14 4.2,-9.28 13.39,-22.64 20.18,-29.31 l 5.89,-5.81 -2.54,-21.74 c -4.46,-38.17 -5.14,-51.25 -5.08,-97.75 0.07,-42.63 0.76,-58.3 4.01,-90 1.77,-17.27 6.49,-50.98 9.37,-66.96 1.09,-6.02 1.89,-11.02 1.77,-11.1 -0.11,-0.09 -3.59,-1.16 -7.71,-2.38 -8.84,-2.62 -14.45,-5.68 -18.26,-9.96 -2.03,-2.29 -3.62,-3.1 -6.07,-3.1 -7.73,0 -12.82,-2.64 -23.17,-12.02 -5.5,-4.99 -12.48,-10.59 -15.51,-12.45 -12.59,-7.73 -29.75,-10.89 -44.49,-8.2 -15.85,2.9 -25.2,7.93 -39.72,21.4 -9,8.35 -12.97,10.42 -22.78,11.88 -3.39,0.51 -5.64,1.73 -9.12,4.95 -4.42,4.09 -10.48,6.7 -20.63,8.9 -1.79,0.38 -3.25,0.95 -3.25,1.26 0,0.31 1.33,7.81 2.96,16.67 7.34,40 12.13,85.41 14.1,133.83 1.56,38.14 -0.26,81.27 -5.06,120.41 l -1.98,16.13 6.28,6.5 c 12.28,12.71 22.27,29.69 27.21,46.24 1.47,4.95 2.85,9.56 3.05,10.25 0.22,0.74 2.08,1.25 4.55,1.25 h 4.16 z m 21.95,6.5 c -0.95,-6.26 -4.34,-33.31 -7.55,-60.25 -1.66,-14.02 -3.29,-27.46 -3.62,-29.85 l -0.58,-4.35 -2.18,1.9 c -5.51,4.81 -5.81,4.88 -4.17,0.95 0.82,-1.97 1.5,-5.15 1.5,-7.07 v -3.48 l -2.4,2.22 c -2.31,2.14 -2.37,2.53 -1.58,10.7 0.45,4.66 1.62,27.49 2.59,50.73 l 1.78,42.25 h 8.39 8.4 z m 20.7,-4.5 c -1.59,-9.69 -8.86,-55.14 -13.16,-82.25 -1.65,-10.45 -5.51,-35.42 -8.57,-55.5 -3.06,-20.08 -6.01,-38.94 -6.57,-41.92 -0.55,-2.98 -1.05,-6.8 -1.1,-8.5 -0.11,-3.04 -0.12,-3.04 -1.11,0.7 -0.55,2.08 -2.24,5.02 -3.76,6.53 -2.17,2.17 -2.68,3.49 -2.4,6.22 0.2,1.91 1.25,11.12 2.34,20.47 1.1,9.35 2.48,21.95 3.09,28 0.6,6.05 1.74,13.23 2.52,15.95 0.92,3.18 1.23,7.13 0.87,11 -0.34,3.7 0.25,12.08 1.51,21.55 2.05,15.29 5.18,40.98 8.63,70.75 l 1.77,15.25 h 8.65 8.65 z m 43.1,4 c 0.29,-2.34 0.79,-9.65 1.11,-16.25 0.63,-12.73 4.02,-57.24 5.44,-71.49 0.69,-6.92 0.56,-9.05 -0.69,-11.48 -2.46,-4.76 -2.09,-12.52 0.93,-19.21 2.45,-5.43 2.74,-7.66 4.28,-33.41 l 1.65,-27.59 -3.42,-3.42 -3.42,-3.42 -1.7,13.51 c -0.93,7.43 -2.54,20.49 -3.58,29.01 -1.04,8.52 -5.26,42.27 -9.37,75 -4.12,32.72 -7.79,62.54 -8.17,66.25 l -0.69,6.75 h 8.55 8.56 z m 20,1 c 0.27,-1.79 0.75,-14.95 1.06,-29.25 0.31,-14.3 0.83,-32.98 1.15,-41.5 l 0.57,-15.5 -6.57,-3.13 -6.56,-3.13 -0.48,3.13 c -0.52,3.34 -1.7,19.99 -4.05,57.13 -0.8,12.65 -1.73,25.81 -2.07,29.25 l -0.61,6.25 h 8.54 8.53 z M 662,458.23 c 0,-1.4 -0.84,-1.78 -3.95,-1.78 -2.51,0 -5.04,-0.8 -6.96,-2.22 -3.81,-2.82 -4.96,-2.86 -2.49,-0.09 4.71,5.31 13.4,7.96 13.4,4.09 z m 112.98,-2.04 c 0.01,-0.72 -0.42,-1.04 -0.96,-0.7 -1.28,0.79 -4.99,-1.23 -7.14,-3.89 -2.78,-3.42 -3.08,-1.26 -0.34,2.45 4.28,5.81 8.39,6.85 8.44,2.14 z m 7.02,1.56 c 1.81,-1.24 4.02,-3.37 4.9,-4.74 l 1.6,-2.5 -2.88,2.25 c -1.59,1.23 -4.18,2.24 -5.75,2.24 -2.39,0 -2.87,0.42 -2.87,2.5 0,3.08 0.8,3.12 5,0.25 z M 662,449.5 c 0,-4.21 0.97,-4.44 3.19,-0.77 l 1.66,2.73 0.64,-2.56 c 0.35,-1.41 0.49,-4.55 0.3,-6.98 -0.34,-4.29 -0.38,-4.34 -1.51,-1.77 -3.27,7.5 -12.71,7.82 -15.78,0.52 l -1.33,-3.17 -0.73,2.89 c -0.4,1.59 -0.32,4.05 0.18,5.47 1.16,3.29 6.83,7.14 10.53,7.14 2.59,0 2.85,-0.32 2.85,-3.5 z m 119.6,1.44 c 3.56,-2.2 5.67,-7.19 4.67,-11.02 -0.51,-1.95 -0.68,-1.86 -1.88,1.01 -0.84,2 -2.44,3.54 -4.36,4.21 -2.57,0.9 -3.03,1.57 -3.03,4.46 0,3.99 0.21,4.05 4.6,1.34 z m -6.4,-1.87 c 0.34,-2.29 -0.07,-3.2 -1.88,-4.17 -1.27,-0.68 -2.84,-2.71 -3.5,-4.51 -1.52,-4.21 -2.82,-3.4 -2.82,1.75 0,3.1 0.66,4.68 2.92,6.94 3.68,3.67 4.74,3.67 5.28,-0.01 z m -109.4,-84.7 c 0.29,-1.99 0.07,-2.06 -3.54,-1.09 -4.48,1.19 -10.54,0.3 -12.73,-1.89 -0.84,-0.84 -1.53,-1.12 -1.53,-0.62 0,0.5 1.69,2.12 3.75,3.6 3.08,2.21 4.65,2.64 8.75,2.41 4.23,-0.24 5.05,-0.61 5.3,-2.41 z m 115.52,1.51 c 2.27,-1.16 5.62,-4.81 5.66,-6.16 0.01,-0.43 -1.26,0.17 -2.83,1.32 -3.95,2.93 -10.42,3.67 -13.63,1.57 -2.46,-1.61 -2.52,-1.59 -2.52,0.78 0,1.35 0.56,2.67 1.25,2.95 2.35,0.95 9.88,0.66 12.07,-0.46 z m -117.94,-5.83 c 2.21,-0.84 2.44,-1.39 1.93,-4.5 -0.49,-3.05 -0.3,-3.55 1.39,-3.55 1.62,0 1.88,-0.53 1.49,-3.14 l -0.46,-3.13 -1.29,3.07 c -1.25,2.98 -5.83,6.2 -8.81,6.2 -2.15,0 -7.62,-4.89 -7.66,-6.84 -0.03,-1.45 -0.16,-1.43 -1.09,0.16 -1.49,2.57 -0.27,6.45 3.09,9.81 3.05,3.04 6.8,3.67 11.41,1.92 z M 780,359 c 3,-1.53 4.19,-2.91 5.08,-5.87 0.77,-2.58 0.84,-4.46 0.19,-5.62 -0.84,-1.49 -1.06,-1.31 -1.57,1.24 -0.44,2.18 -1.6,3.45 -4.36,4.76 -3.48,1.65 -3.97,1.66 -6.54,0.19 -2.63,-1.51 -2.84,-1.49 -3.87,0.43 -1.39,2.6 -0.57,4.68 2.3,5.83 3.37,1.36 4.47,1.24 8.77,-0.96 z m -11.02,-9.47 c 0,-0.57 -0.45,-1.7 -1,-2.53 -0.87,-1.33 -1.09,-1.33 -1.96,0 -0.55,0.83 -1,2.73 -1,4.24 -0.02,2.64 0.05,2.68 1.98,1.03 1.1,-0.94 1.99,-2.18 1.98,-2.74 z M 666,274.35 v -2.32 l -3.25,1.98 c -4.43,2.7 -9.66,2.54 -14.05,-0.44 -2.07,-1.4 -3.36,-1.85 -3.06,-1.06 1.54,4.01 9.65,6.59 16.11,5.12 3.5,-0.8 4.25,-1.38 4.25,-3.28 z M 780.98,278 c 2.1,0 8.02,-5.21 8.02,-7.06 0,-0.89 -0.5,-0.81 -1.75,0.28 -5.29,4.64 -11.3,5.84 -16.3,3.25 -2.79,-1.44 -2.95,-1.41 -2.95,0.49 0,1.27 0.82,2.18 2.25,2.48 1.24,0.27 3.15,0.67 4.25,0.9 1.1,0.23 2.6,0.25 3.33,0.04 0.73,-0.21 2.15,-0.38 3.15,-0.38 z m -117.74,-7.72 c 1.33,-1.2 1.69,-2.43 1.24,-4.23 -0.86,-3.43 -1.01,-3.49 -3.64,-1.65 -4.6,3.22 -9.25,1.74 -12.19,-3.9 l -1.57,-3 -0.02,4.5 c -0.02,4.99 1.97,8.31 5.94,9.93 3.17,1.29 7.82,0.54 10.24,-1.65 z m 118.79,0.07 c 3.84,-2.56 4.97,-4.44 4.97,-8.29 l -0.01,-3.56 -1.96,3.22 c -2.29,3.75 -6.07,5.04 -9.81,3.33 -2.25,-1.02 -2.83,-0.93 -3.93,0.57 -1.76,2.41 -1.64,3.02 0.93,4.82 2.88,2.02 6.7,1.98 9.81,-0.09 z m -11.72,-11.26 c -0.52,-2.01 -0.63,-2.03 -1.9,-0.36 -0.74,0.97 -1.36,2.87 -1.38,4.21 l -0.03,2.44 1.94,-2.08 c 1.21,-1.31 1.72,-2.87 1.37,-4.21 z M 665.6,257.84 c -1.59,-2.27 -1.6,-2.27 -1.6,-0.15 0,1.18 0.56,2.34 1.25,2.59 1.98,0.71 2.08,0.02 0.35,-2.44 z M 284.5,727.5 c -43.2,-4.97 -77.12,-21.24 -98.73,-47.36 -15.04,-18.18 -21.99,-36.83 -21.85,-58.64 0.15,-22.8 10.99,-43.21 31.08,-58.5 12.34,-9.39 24.71,-14.7 40.88,-17.53 22.29,-3.91 44.88,1.42 54.7,12.89 6.33,7.39 10.42,19.14 10.42,29.89 0,7.65 -0.85,7.94 -10,3.39 -7.26,-3.61 -9.05,-4.07 -17.14,-4.46 -15.87,-0.76 -29.04,4.78 -37.85,15.93 -8.8,11.13 -11.43,20.39 -10.77,37.89 0.68,18.12 5.8,30.22 18.76,44.29 11.08,12.04 25.56,19.96 44.5,24.36 11.4,2.64 41.42,2.63 53.5,-0.01 26.07,-5.7 46.49,-19.81 55.97,-38.64 6.59,-13.1 7.53,-17.53 7.45,-35 -0.06,-14.62 -0.24,-16 -3.13,-24.29 C 395.94,593.49 383.95,578.39 364.07,563.6 351.32,554.11 335.51,544.66 297,523.49 269.06,508.14 251.65,495.88 237.49,481.6 225.45,469.46 221.07,462.55 216.84,449 c -2.06,-6.6 -2.33,-9.41 -2.28,-23.5 0.06,-14.5 0.33,-16.84 2.81,-24.96 7.37,-24.09 21.36,-42.58 43.18,-57.1 36.36,-24.19 84.91,-30.41 143.95,-18.43 26.79,5.44 37.44,5.09 46.11,-1.52 3.1,-2.37 3.55,-2.45 6.61,-1.17 1.8,0.75 3.8,2 4.44,2.78 1.21,1.46 1.33,1.16 -24.08,61.4 -5.34,12.65 -12.44,29.64 -15.78,37.75 -6,14.56 -6.11,14.75 -9.19,14.73 -4.07,-0.04 -11.71,-1.82 -13.24,-3.09 -0.93,-0.77 -0.41,-2.71 2.18,-8.2 4.91,-10.39 6.78,-18.63 6.73,-29.69 -0.09,-23.87 -11.08,-42.28 -31.27,-52.39 -12.51,-6.26 -21.33,-8.11 -38.51,-8.09 -16.69,0.01 -27.02,2.42 -36.27,8.44 -14.82,9.64 -22.2,22.95 -22.21,40.04 0,14.32 5.22,25.23 18.47,38.59 11.21,11.31 23.26,19.8 49.51,34.91 46.23,26.6 63.78,37.79 81.07,51.67 16.19,13 29.67,28.55 36.67,42.33 3.64,7.15 8.03,20.92 9.28,29.05 1.52,9.91 1.53,28.69 0.04,37.95 -7.76,47.9 -43.72,83.78 -99.79,99.52 -28.72,8.06 -61.92,10.8 -90.77,7.48 z M 292,315.74 c 0,-1.52 15.38,-6.09 32.25,-9.59 4.26,-0.88 7.75,-1.98 7.75,-2.44 0,-0.45 -1.33,-2.49 -2.95,-4.52 -10.6,-13.23 -8.67,-36.17 3.99,-47.6 6.01,-5.43 11.27,-7.54 18.89,-7.57 12.44,-0.04 19.54,6.13 19.54,16.99 0,10.85 -6.33,19.7 -22.82,31.89 -8.97,6.63 -12.76,10.1 -11.02,10.1 0.48,0 6.72,-1.56 13.87,-3.46 30.72,-8.16 51.86,-18.58 66.9,-32.98 3.79,-3.63 7.1,-6.39 7.35,-6.14 0.26,0.25 0.51,4.42 0.57,9.27 0.14,10.8 -1.84,15.82 -8.74,22.15 -10.68,9.8 -24.48,13.22 -61.08,15.14 -10.45,0.55 -23.42,1.67 -28.81,2.49 -9.21,1.41 -31.25,6.04 -34.31,7.21 -0.79,0.31 -1.38,-0.1 -1.38,-0.94 z" />
  </g>
</svg>
