<svg xmlns="http://www.w3.org/2000/svg" width="1024" height="1024" viewBox="0 0 1024 1024">
<g>
<path d="M 387.66 606.15 L 388.32 655.81 L 385.66 655.65 L 383.00 655.50 L 382.99 616.00 C382.97,560.11 381.03,272.69 380.66,272.33 C380.50,272.17 378.59,272.95 376.43,274.08 C367.81,278.58 356.29,274.75 349.54,265.15 C346.79,261.24 346.50,260.09 346.50,253.14 C346.50,243.05 349.46,236.84 356.31,232.61 C365.38,227.01 375.12,228.07 382.52,235.47 C390.37,243.32 391.97,255.17 386.49,264.83 C384.08,269.06 384.06,269.29 384.56,289.80 C384.83,301.18 385.49,365.85 386.02,433.50 C386.56,501.15 387.29,578.84 387.66,606.15 ZM 421.16 781.24 C420.68,781.72 413.62,782.19 405.47,782.30 C392.23,782.48 390.37,782.30 388.22,780.60 C386.21,779.02 385.66,778.93 384.92,780.10 C384.39,780.93 384.02,765.35 384.02,741.99 L 384.00 702.49 L 386.91 701.20 C388.51,700.49 396.19,699.59 403.98,699.20 C416.18,698.59 419.75,698.87 421.85,700.58 C422.63,701.22 421.95,780.45 421.16,781.24 ZM 363.02 631.13 C363.00,653.23 362.88,654.80 361.16,655.25 C359.40,655.71 359.29,653.61 358.66,606.20 C358.30,578.96 358.00,511.36 358.00,455.98 C358.00,400.59 357.72,353.24 357.38,350.74 L 356.76 346.20 L 353.41 347.60 C342.89,352.00 329.19,345.91 324.55,334.78 C322.45,329.75 322.60,320.47 324.87,315.50 C328.36,307.82 337.14,302.02 345.28,302.01 C351.96,301.99 360.24,307.86 364.31,315.50 C367.58,321.66 367.26,331.18 363.55,337.51 L 360.70 342.37 L 361.87 474.93 C362.51,547.85 363.03,618.14 363.02,631.13 ZM 389.50 701.50 L 388.98 781.00 L 421.00 781.00 L 421.00 700.95 ZM 335.79 612.75 C335.67,610.96 335.34,616.47 335.04,625.00 C334.09,652.29 333.00,584.43 333.00,497.63 L 333.00 419.77 L 330.75 420.47 C322.34,423.09 320.34,423.24 314.94,421.65 C304.81,418.66 298.60,410.09 298.54,399.00 C298.49,390.79 301.82,383.85 307.88,379.55 C313.61,375.48 322.86,374.78 329.37,377.94 C337.19,381.72 342.01,390.05 341.98,399.72 C341.96,405.38 339.44,412.99 337.12,414.43 C336.36,414.89 336.17,421.18 336.49,434.80 C337.70,486.46 338.12,616.00 337.08,616.00 C336.49,616.00 335.91,614.54 335.79,612.75 ZM 312.69 572.21 C313.04,617.74 313.03,655.00 312.66,655.00 C312.30,655.00 312.00,654.58 312.00,654.07 C312.00,653.55 311.10,652.85 310.00,652.50 C308.02,651.87 308.00,650.99 308.00,572.93 C308.00,529.52 307.89,494.02 307.75,494.02 C307.61,494.02 305.70,494.68 303.50,495.47 C288.81,500.76 274.74,491.23 273.27,475.00 C272.19,463.13 280.82,451.95 292.27,450.38 C309.55,448.01 322.76,468.29 314.53,484.54 L 312.06 489.42 ZM 916.93 780.91 C916.38,787.73 915.60,793.89 915.21,794.59 C915.21,794.59 915.21,794.59 915.21,794.59 C914.82,794.59 914.50,664.32 914.50,504.50 C914.50,344.67 914.81,214.38 915.19,214.38 C915.19,214.38 915.19,214.38 915.19,214.38 C917.75,218.95 918.02,247.33 917.98,502.48 C917.96,672.17 917.58,772.99 916.93,780.91 ZM 108.54 478.71 C108.69,614.44 108.48,737.42 108.08,752.00 C108.05,752.86 108.03,753.28 108.00,753.28 C107.62,753.28 107.25,646.34 107.17,504.58 C107.08,354.14 107.28,231.29 107.63,231.29 L 107.63 231.29 C107.97,231.64 108.38,342.98 108.54,478.71 ZM 281.82 654.25 C281.52,656.34 280.98,656.51 274.00,656.60 L 266.50 656.70 L 273.50 656.10 L 280.50 655.50 L 280.76 611.71 C280.98,574.02 281.23,567.85 282.51,567.36 C283.33,567.04 284.00,566.16 284.00,565.39 C284.00,564.63 284.45,564.00 285.00,564.00 C285.65,564.00 286.00,579.33 286.00,608.00 C286.00,650.80 285.95,652.00 284.07,652.00 C282.83,652.00 282.02,652.80 281.82,654.25 ZM 280.51 780.98 C280.14,781.58 276.10,781.91 270.69,781.79 L 261.50 781.58 L 270.59 781.26 L 279.68 780.93 L 280.34 754.71 C280.70,740.30 281.00,722.78 281.00,715.78 C281.00,705.51 281.26,703.16 282.35,703.58 C283.10,703.87 284.45,702.96 285.38,701.55 C286.95,699.15 287.55,699.00 295.44,699.00 C308.07,699.00 309.18,700.42 297.00,701.00 L 286.50 701.50 L 286.50 734.25 C286.50,752.26 286.16,767.00 285.75,767.00 C285.34,767.00 284.99,765.09 284.98,762.75 C284.97,759.64 284.71,758.90 284.00,760.00 C283.20,761.24 283.03,761.16 283.00,759.50 C282.97,757.84 282.80,757.76 282.01,759.00 C281.48,759.83 281.07,764.88 281.10,770.23 C281.12,775.58 280.86,780.42 280.51,780.98 ZM 291.35 493.12 C293.94,495.53 295.50,495.49 299.09,492.94 C300.68,491.80 302.78,490.95 303.74,491.05 C307.25,491.41 308.00,490.96 308.00,488.50 C308.00,486.50 307.50,486.00 305.50,486.00 C303.70,486.00 303.00,485.46 303.00,484.07 C303.00,481.81 298.00,479.00 293.97,479.00 C292.27,479.00 290.69,478.17 289.78,476.80 C288.60,475.01 287.50,474.64 284.07,474.84 C281.73,474.98 279.18,474.57 278.41,473.92 C276.64,472.45 276.61,473.18 278.18,481.70 C279.43,488.47 280.12,489.25 285.92,490.50 C287.80,490.90 290.24,492.08 291.35,493.12 ZM 281.47 375.46 C272.72,401.92 270.00,409.33 270.00,406.72 C270.00,404.77 272.35,394.93 273.60,391.64 C275.50,386.66 274.23,385.00 268.53,385.00 C263.69,385.00 262.50,386.04 258.54,393.70 C255.72,399.14 250.69,403.06 246.69,402.92 C244.95,402.86 245.16,402.61 247.72,401.67 C252.37,399.98 254.92,397.02 257.92,389.83 L 260.57 383.50 L 265.37 383.50 C269.38,383.50 270.56,383.04 272.58,380.69 C276.92,375.66 275.46,369.06 269.46,366.55 C265.85,365.04 265.37,363.46 266.90,358.00 C267.51,355.81 267.68,355.73 268.29,357.32 C268.68,358.32 268.54,360.00 267.98,361.04 C267.12,362.65 267.58,363.36 271.04,365.64 C273.71,367.42 275.31,369.32 275.68,371.17 C276.00,372.73 276.53,373.98 276.88,373.96 C278.25,373.88 283.00,365.82 283.00,363.57 C283.00,362.25 283.43,361.02 283.95,360.83 C284.47,360.65 285.94,357.16 287.22,353.08 C288.49,348.99 289.99,345.50 290.55,345.32 C291.10,345.13 287.02,358.70 281.47,375.46 ZM 319.21 262.25 C311.27,286.04 304.42,305.88 304.00,306.34 C303.57,306.80 302.96,306.75 302.64,306.23 C301.70,304.71 302.74,301.15 304.95,298.34 C306.08,296.90 307.00,294.53 307.00,293.05 C307.00,291.58 307.90,288.51 309.00,286.24 C310.10,283.96 311.00,281.24 311.00,280.20 C311.00,277.42 313.05,272.00 314.10,272.00 C314.59,272.00 315.00,270.42 315.00,268.50 C315.00,266.58 315.43,265.00 315.95,265.00 C317.04,265.00 318.99,258.69 318.99,255.15 C319.00,253.86 319.84,251.61 320.86,250.15 C321.88,248.69 322.96,245.48 323.24,243.00 C323.53,240.52 323.93,237.82 324.13,237.00 C324.38,235.99 323.60,235.40 321.72,235.18 L 318.94 234.86 L 321.91 232.08 C325.73,228.51 326.62,224.96 324.67,221.05 C323.24,218.18 323.27,218.00 325.08,218.00 C326.61,218.00 327.00,218.71 327.00,221.54 C327.00,224.72 327.19,224.97 328.93,224.04 C330.00,223.47 331.15,222.10 331.50,221.00 C331.85,219.90 332.48,219.00 332.90,219.00 C333.31,219.00 327.16,238.46 319.21,262.25 ZM 261.41 567.95 C263.66,568.98 264.83,569.85 264.00,569.88 C260.42,569.98 252.63,564.42 253.43,562.33 C253.70,561.61 253.39,561.13 252.73,561.26 C250.50,561.71 247.62,553.93 247.65,547.53 C247.72,533.30 257.84,523.24 271.13,524.20 C281.06,524.92 288.84,532.41 291.21,543.55 C292.24,548.34 290.45,556.68 287.59,560.50 C286.20,562.36 286.13,562.22 286.70,558.50 C287.03,556.30 287.91,553.61 288.65,552.53 C290.76,549.45 290.37,542.42 287.97,540.19 C286.86,539.15 286.17,537.67 286.45,536.90 C287.69,533.40 276.39,526.01 271.15,526.90 C270.41,527.03 270.10,526.65 270.46,526.07 C271.45,524.46 266.79,524.76 264.37,526.46 C263.22,527.26 260.66,529.54 258.67,531.53 C256.68,533.52 254.69,534.92 254.24,534.65 C252.78,533.74 248.72,546.88 249.32,550.57 C250.28,556.48 256.77,565.81 261.41,567.95 ZM 385.98 829.50 C385.83,828.95 385.39,830.30 385.00,832.50 C384.59,834.80 384.22,827.73 384.14,815.92 L 384.00 795.35 L 390.00 796.23 L 390.00 816.11 C390.00,828.70 389.63,836.00 389.00,836.00 C388.45,836.00 387.95,833.41 387.88,830.25 C387.78,825.52 387.63,825.03 387.00,827.50 C386.58,829.15 386.12,830.05 385.98,829.50 ZM 292.83 476.31 C296.03,478.33 299.80,477.74 302.25,474.85 C304.38,472.32 304.49,468.84 302.54,465.07 C300.15,460.45 295.05,459.60 290.63,463.07 C286.44,466.37 287.54,472.98 292.83,476.31 ZM 318.11 401.60 C326.71,406.37 333.10,395.95 325.96,388.81 C323.42,386.26 322.40,385.87 319.71,386.39 C311.85,387.90 310.83,397.57 318.11,401.60 ZM 343.59 328.47 C347.49,330.50 347.69,330.46 351.19,326.96 C353.73,324.42 354.13,323.40 353.60,320.76 C351.60,310.77 337.94,310.02 338.03,319.90 C338.07,324.09 339.55,326.36 343.59,328.47 ZM 339.66 758.84 C340.13,773.97 340.00,780.00 339.22,780.00 C338.27,780.00 337.10,747.26 337.02,718.54 C337.02,715.32 336.67,713.93 336.03,714.57 C335.50,715.10 334.92,722.06 334.75,730.02 C334.49,742.10 334.40,740.97 334.22,723.25 L 334.00 702.00 L 339.00 702.00 L 339.00 719.84 C339.00,729.65 339.30,747.20 339.66,758.84 ZM 363.92 253.08 C367.74,256.90 372.06,257.01 374.93,253.37 C377.69,249.85 377.54,246.79 374.41,243.08 C372.41,240.70 371.01,240.00 368.24,240.00 C360.80,240.00 358.33,247.48 363.92,253.08 ZM 310.58 685.00 C309.80,685.00 308.94,685.56 308.66,686.25 C308.38,686.94 308.12,684.01 308.08,679.75 L 308.00 672.00 L 297.50 672.00 C291.73,672.00 287.00,671.60 287.00,671.12 C287.00,669.53 306.23,669.10 308.71,670.63 C311.68,672.46 312.69,672.36 315.26,669.98 C316.52,668.80 318.07,668.22 318.96,668.60 C319.81,668.95 322.64,669.47 325.25,669.75 C332.79,670.55 330.77,672.00 322.11,672.00 C312.90,672.00 312.74,672.18 313.66,681.03 C314.10,685.20 313.94,687.00 313.14,687.00 C312.51,687.00 312.00,686.55 312.00,686.00 C312.00,685.45 311.36,685.00 310.58,685.00 ZM 308.91 780.61 C308.03,781.67 305.12,781.95 296.63,781.79 L 285.50 781.57 L 296.75 781.25 L 308.00 780.93 L 308.00 741.40 C308.00,704.54 308.11,701.97 309.66,703.52 C311.03,704.89 311.09,705.33 309.96,706.03 C308.82,706.73 308.80,707.70 309.86,711.82 C310.78,715.43 310.92,720.27 310.35,729.64 C309.92,736.71 309.68,750.76 309.82,760.86 C309.99,773.62 309.72,779.64 308.91,780.61 ZM 203.06 550.97 C200.11,552.55 199.54,552.20 201.90,550.25 C203.06,549.29 205.34,545.35 206.96,541.50 C209.87,534.59 209.95,534.50 213.70,534.48 C219.18,534.46 221.82,533.25 223.51,529.98 C226.43,524.33 224.72,519.37 219.04,517.02 C215.82,515.68 215.29,513.33 217.00,508.00 C217.68,505.87 217.82,506.13 217.90,509.73 C217.98,513.09 218.52,514.29 220.55,515.63 C221.95,516.54 223.82,518.69 224.69,520.40 C225.56,522.10 226.75,523.81 227.33,524.18 C228.53,524.95 232.00,521.38 232.00,519.39 C232.00,517.57 234.17,513.00 235.05,513.00 C235.44,513.00 234.09,517.96 232.04,524.01 C228.33,534.95 226.15,539.38 227.44,533.35 C228.37,528.99 226.82,528.50 223.17,531.99 C221.47,533.61 218.82,535.22 217.29,535.55 C211.59,536.80 209.00,538.24 209.00,540.16 C209.00,543.01 205.28,549.78 203.06,550.97 ZM 362.79 774.74 C361.06,774.55 360.43,775.16 359.91,777.50 C359.54,779.15 359.18,762.89 359.12,741.36 L 359.00 702.22 L 356.33 701.55 C354.86,701.18 350.47,700.98 346.58,701.11 C342.51,701.24 339.71,700.95 340.00,700.42 C340.85,698.86 356.13,699.26 360.25,700.94 C363.93,702.44 365.60,706.00 362.62,706.00 C360.37,706.00 360.00,710.88 360.00,741.00 C360.00,765.34 360.23,769.95 361.50,771.00 C362.54,771.86 363.00,771.90 363.00,771.12 C363.00,770.51 363.45,770.00 364.00,770.00 C364.55,770.00 365.00,771.12 365.00,772.49 C365.00,774.46 364.54,774.93 362.79,774.74 ZM 361.33 816.45 C360.66,841.41 359.07,840.70 359.03,815.42 L 359.00 794.35 L 365.00 795.23 L 364.78 815.86 L 364.57 836.50 L 364.03 817.75 C363.74,807.43 363.12,799.11 362.65,799.25 C362.18,799.39 361.58,807.13 361.33,816.45 ZM 275.05 551.72 C273.13,553.23 269.75,553.35 268.35,551.95 C267.77,551.37 266.10,550.77 264.65,550.61 C263.19,550.46 261.66,549.96 261.25,549.50 C260.84,549.05 261.06,549.00 261.75,549.40 C263.41,550.35 263.28,548.96 261.50,546.60 C260.71,545.56 260.28,544.35 260.55,543.92 C261.14,542.97 259.19,541.67 256.56,541.26 C255.49,541.09 254.38,540.72 254.09,540.42 C253.15,539.48 256.16,538.23 258.11,538.74 C259.55,539.12 260.37,538.37 261.52,535.62 C263.11,531.81 263.80,531.58 270.28,532.65 C272.98,533.09 274.67,534.16 276.21,536.39 L 278.36 539.50 L 275.86 537.25 C273.36,534.99 267.78,534.22 265.31,535.79 C262.83,537.37 261.94,541.92 263.42,545.47 C265.04,549.33 267.58,551.00 271.86,551.00 C275.88,551.00 279.39,546.68 278.59,542.72 C278.25,540.99 278.41,540.14 279.02,540.51 C281.44,542.01 279.15,548.48 275.05,551.72 ZM 284.25 679.00 C283.29,680.12 282.23,682.71 281.89,684.77 C281.47,687.38 281.24,686.03 281.14,680.25 L 281.00 672.00 L 275.75 671.78 C272.86,671.67 268.81,671.64 266.75,671.72 C262.91,671.88 261.62,670.53 264.75,669.63 C269.87,668.16 279.96,668.95 284.25,671.17 C285.21,671.66 286.00,673.17 286.00,674.52 C286.00,675.87 285.21,677.89 284.25,679.00 ZM 301.14 299.43 C301.32,302.51 300.99,304.50 300.26,304.75 C299.46,305.01 299.28,304.05 299.67,301.62 C300.63,295.74 299.42,293.15 294.87,291.33 C290.92,289.75 290.81,289.58 291.45,286.10 C293.30,276.00 293.30,274.71 291.44,271.26 C290.32,269.18 287.56,266.64 284.54,264.91 C278.44,261.41 279.24,261.08 285.78,264.39 C293.70,268.41 294.38,269.68 293.76,279.24 C293.15,288.68 293.43,290.00 296.06,290.00 C298.79,290.00 300.81,293.75 301.14,299.43 ZM 297.94 325.69 C292.56,341.78 290.94,345.93 291.04,343.42 C291.06,342.91 291.78,339.80 292.64,336.50 C293.50,333.20 294.44,328.92 294.73,327.00 C295.02,325.08 295.88,322.61 296.63,321.53 C297.38,320.44 298.00,318.81 298.00,317.90 C298.00,316.99 298.64,315.71 299.43,315.06 C300.22,314.40 300.90,313.00 300.93,311.93 C300.97,310.87 301.03,309.07 301.06,307.92 C301.10,306.29 301.40,306.09 302.47,306.97 C303.58,307.90 302.79,311.19 297.94,325.69 ZM 386.88 686.28 C385.93,685.33 385.41,685.43 384.47,686.71 C383.50,688.04 383.23,686.57 383.08,679.10 C382.90,669.97 382.93,669.85 385.20,670.17 C387.37,670.48 387.52,670.99 387.79,678.99 C388.02,685.64 387.83,687.23 386.88,686.28 ZM 227.84 475.93 C226.18,477.48 224.30,478.00 220.37,478.00 C217.48,478.00 214.85,477.57 214.53,477.04 C214.17,476.46 215.80,476.29 218.72,476.60 C225.85,477.37 228.78,475.10 232.53,465.92 L 235.57 458.50 L 240.78 458.50 C248.51,458.50 247.43,461.18 239.62,461.39 C236.06,461.49 235.45,461.83 235.16,463.91 C234.75,466.79 230.94,473.04 227.84,475.93 ZM 364.00 678.99 C364.00,685.83 363.95,685.97 361.50,685.77 C359.10,685.57 359.00,685.29 359.00,678.78 C359.00,672.21 359.08,672.00 361.50,672.00 C363.93,672.00 364.00,672.20 364.00,678.99 ZM 339.00 678.08 C339.00,681.36 338.55,684.00 338.00,684.00 C337.45,684.00 337.00,683.50 337.00,682.89 C337.00,682.28 336.33,682.05 335.50,682.36 C334.28,682.83 334.00,681.93 334.00,677.58 C334.00,672.28 334.97,670.76 337.75,671.73 C338.56,672.01 339.00,674.25 339.00,678.08 ZM 317.53 419.04 C318.78,421.06 327.30,419.05 329.75,416.16 C332.61,412.77 332.58,412.00 329.55,412.00 C327.88,412.00 326.68,412.87 325.76,414.75 C324.76,416.79 323.78,417.43 321.99,417.22 C318.82,416.86 316.71,417.72 317.53,419.04 ZM 178.94 547.25 C181.92,548.76 183.49,549.96 182.43,549.92 C179.66,549.80 174.78,547.48 172.80,545.34 C169.88,542.19 167.20,539.55 165.66,538.29 C164.74,537.54 164.39,536.22 164.75,534.83 C165.31,532.72 165.40,532.70 166.42,534.44 C170.09,540.72 174.05,544.77 178.94,547.25 ZM 304.73 250.48 C303.53,251.32 301.64,251.97 300.53,251.94 C298.55,251.87 298.55,251.85 300.61,251.02 C302.82,250.13 307.00,245.40 307.00,243.80 C307.00,243.29 307.96,240.64 309.13,237.91 C310.95,233.69 311.58,233.04 313.38,233.59 C316.76,234.60 317.33,235.70 314.25,235.25 C311.57,234.86 311.35,235.14 309.17,241.90 C307.80,246.15 306.03,249.56 304.73,250.48 ZM 175.00 495.35 C173.07,497.32 171.14,498.95 170.69,498.97 C169.06,499.03 173.42,493.12 175.92,491.87 C177.34,491.16 179.21,489.74 180.07,488.71 C181.12,487.45 182.61,486.95 184.57,487.18 C187.46,487.53 187.44,487.56 183.00,489.64 C180.52,490.81 176.93,493.37 175.00,495.35 ZM 222.50 348.17 C220.85,350.11 218.96,352.55 218.31,353.60 C217.19,355.39 217.11,355.39 217.06,353.68 C217.03,352.69 217.48,350.98 218.06,349.89 C219.22,347.72 230.59,339.00 232.26,339.00 C232.83,339.00 231.55,340.27 229.40,341.83 C227.26,343.38 224.15,346.24 222.50,348.17 ZM 356.00 671.07 C356.00,671.58 352.85,672.00 349.00,672.00 C340.92,672.00 339.69,670.51 346.94,669.51 C352.10,668.80 356.00,669.47 356.00,671.07 ZM 247.31 478.18 C246.02,482.14 244.72,485.61 244.42,485.92 C243.00,487.33 245.22,474.41 246.67,472.81 C249.56,469.62 249.70,470.83 247.31,478.18 ZM 332.67 700.50 C332.87,701.12 329.56,701.50 324.00,701.50 C319.05,701.50 315.00,701.16 315.00,700.75 C315.00,700.10 318.33,699.83 329.67,699.56 C331.13,699.53 332.48,699.95 332.67,700.50 ZM 253.62 458.80 C253.30,460.62 252.16,464.00 251.10,466.30 L 249.17 470.50 L 249.08 466.70 C249.03,464.11 249.83,461.71 251.61,459.20 L 254.21 455.50 ZM 559.61 462.50 C559.68,470.48 558.66,472.45 557.66,466.27 C557.01,462.30 557.82,455.00 558.90,455.00 C559.26,455.00 559.58,458.38 559.61,462.50 ZM 306.23 481.60 C308.05,485.60 311.83,484.18 310.50,479.99 C309.90,478.12 307.05,477.28 305.73,478.60 C305.40,478.93 305.63,480.28 306.23,481.60 ZM 849.33 883.75 C842.98,887.13 838.90,888.15 842.44,885.47 C843.51,884.66 844.83,884.00 845.38,884.00 C845.92,884.00 847.37,883.06 848.59,881.92 C849.88,880.71 851.78,879.97 853.13,880.17 C855.03,880.44 854.35,881.08 849.33,883.75 ZM 565.40 428.08 C562.15,436.11 561.58,436.69 562.51,431.00 C562.91,428.52 563.57,426.27 563.97,426.00 C564.37,425.73 565.25,424.45 565.93,423.16 C568.30,418.66 567.97,421.73 565.40,428.08 ZM 245.95 440.25 C247.84,442.31 249.19,443.94 248.95,443.87 C248.70,443.80 246.81,442.86 244.75,441.79 C241.87,440.29 241.00,439.23 241.00,437.22 C241.00,435.78 241.34,435.03 241.75,435.55 C242.17,436.07 244.06,438.19 245.95,440.25 ZM 441.42 172.12 C441.13,172.60 440.57,172.95 440.19,172.88 C439.81,172.81 436.58,172.19 433.00,171.50 L 426.50 170.24 L 431.12 170.12 C436.96,169.97 442.13,170.97 441.42,172.12 ZM 268.53 414.26 C266.89,419.69 264.42,424.31 265.47,420.00 C265.80,418.62 266.36,415.93 266.71,414.01 C267.06,412.09 267.94,409.92 268.67,409.19 C270.35,407.51 270.33,408.34 268.53,414.26 ZM 314.87 826.25 C314.94,831.61 314.81,836.00 314.58,836.00 C313.47,836.00 313.12,829.79 313.89,823.50 L 314.74 816.50 ZM 763.45 284.10 C764.01,284.64 759.55,284.94 752.45,284.85 L 740.50 284.70 L 751.50 283.95 C757.79,283.52 762.91,283.59 763.45,284.10 ZM 278.92 837.36 C277.90,838.25 262.97,838.75 262.45,837.92 C262.12,837.39 265.54,837.00 270.61,837.00 C275.41,837.00 279.15,837.16 278.92,837.36 ZM 421.85 794.55 C422.32,795.07 422.39,800.67 422.01,807.00 L 421.32 818.50 L 421.16 806.05 C421.07,799.15 421.38,794.02 421.85,794.55 ZM 308.85 795.55 C309.32,796.07 309.39,801.67 309.01,808.00 L 308.32 819.50 L 308.16 807.05 C308.07,800.15 308.38,795.02 308.85,795.55 ZM 378.75 699.77 C383.15,700.69 382.80,700.76 374.00,700.76 C365.20,700.76 364.85,700.69 369.25,699.77 C372.38,699.12 375.62,699.12 378.75,699.77 ZM 396.00 171.92 C395.17,172.39 392.48,173.09 390.00,173.48 C385.79,174.14 385.63,174.09 387.50,172.63 C388.60,171.77 391.30,171.06 393.50,171.06 C396.22,171.06 397.02,171.33 396.00,171.92 ZM 332.92 837.36 C331.93,838.23 322.20,838.67 319.00,838.00 C316.42,837.46 317.85,837.23 324.42,837.13 C329.32,837.06 333.15,837.16 332.92,837.36 ZM 385.14 772.96 C385.01,778.06 385.11,778.32 386.66,776.76 C387.88,775.55 388.04,774.75 387.26,773.80 C386.67,773.09 385.98,771.38 385.73,770.00 C385.48,768.62 385.21,769.96 385.14,772.96 ZM 830.50 118.07 C832.09,118.71 831.78,118.88 829.00,118.90 C827.08,118.92 824.60,118.23 823.50,117.37 C821.61,115.89 821.69,115.84 825.00,116.53 C826.92,116.93 829.40,117.62 830.50,118.07 ZM 115.89 195.50 C115.92,196.60 115.06,199.30 113.97,201.50 C112.29,204.89 112.07,205.06 112.55,202.61 C112.86,201.02 113.72,198.32 114.47,196.61 C115.50,194.27 115.85,194.00 115.89,195.50 ZM 281.00 459.00 C281.00,460.51 281.52,461.05 282.75,460.81 C283.71,460.62 284.50,459.81 284.50,459.00 C284.50,458.19 283.71,457.38 282.75,457.19 C281.52,456.95 281.00,457.49 281.00,459.00 ZM 642.92 365.35 C642.69,365.54 641.04,366.20 639.25,366.80 C636.57,367.70 636.00,367.64 636.00,366.45 C636.00,365.45 637.13,365.00 639.67,365.00 C641.68,365.00 643.15,365.16 642.92,365.35 ZM 226.92 539.75 C225.98,542.22 224.00,542.81 224.00,540.62 C224.00,539.22 226.75,536.39 227.41,537.11 C227.61,537.32 227.38,538.51 226.92,539.75 ZM 201.86 485.89 C202.60,486.36 202.83,486.94 202.36,487.18 C200.97,487.87 197.00,486.94 197.00,485.93 C197.00,484.77 200.04,484.74 201.86,485.89 ZM 422.07 828.50 C422.58,831.52 422.53,833.87 421.95,834.45 C421.35,835.05 421.04,833.22 421.12,829.45 L 421.24 823.50 ZM 237.55 507.50 C236.70,511.20 234.99,513.20 235.03,510.45 C235.05,509.38 235.78,507.60 236.65,506.50 C238.17,504.58 238.21,504.62 237.55,507.50 ZM 340.00 797.09 C340.00,798.14 339.55,799.00 339.00,799.00 C338.45,799.00 338.00,798.52 338.00,797.94 C338.00,797.36 337.55,797.16 337.00,797.50 C336.45,797.84 336.00,797.69 336.00,797.18 C336.00,796.66 336.90,796.00 338.00,795.71 C339.48,795.32 340.00,795.68 340.00,797.09 ZM 168.52 502.96 C166.73,506.41 166.00,506.79 166.00,504.24 C166.00,503.27 166.92,501.91 168.04,501.20 C170.05,499.95 170.06,499.99 168.52,502.96 ZM 466.10 395.28 C467.24,397.24 466.95,400.63 465.75,399.42 C465.34,399.01 465.01,397.50 465.03,396.08 C465.06,393.82 465.19,393.72 466.10,395.28 ZM 335.75 678.42 C336.16,678.84 336.65,678.42 336.84,677.48 C337.03,676.55 336.70,675.30 336.09,674.69 C335.30,673.90 335.00,674.16 335.00,675.63 C335.00,676.75 335.34,678.01 335.75,678.42 ZM 471.94 422.63 C472.61,423.25 472.96,425.05 472.73,426.63 C472.49,428.21 472.23,428.83 472.14,428.00 C472.05,427.17 471.69,425.38 471.35,424.00 C470.87,422.07 471.00,421.76 471.94,422.63 ZM 329.00 405.00 C329.00,405.55 329.65,406.00 330.44,406.00 C331.23,406.00 332.16,405.55 332.50,405.00 C332.84,404.45 332.19,404.00 331.06,404.00 C329.93,404.00 329.00,404.45 329.00,405.00 Z" fill="rgb(163,15,23)"/>
<path d="M 108.54 478.71 C108.42,375.08 108.15,285.67 107.88,249.02 C107.96,234.42 108.05,225.73 108.16,224.80 C108.52,221.67 109.05,218.72 109.34,218.26 C109.63,217.79 110.11,215.63 110.41,213.46 C110.84,210.37 111.49,207.23 112.33,204.05 C112.31,204.70 112.77,203.93 113.97,201.50 C115.06,199.30 115.92,196.60 115.89,195.50 C115.86,194.39 115.66,194.25 115.14,195.20 C123.65,172.22 141.43,148.98 162.26,134.87 C177.38,124.63 199.19,115.63 212.00,114.34 C214.48,114.09 218.07,113.47 220.00,112.96 C225.06,111.61 803.67,112.38 811.50,113.75 C816.36,114.60 821.04,115.57 824.75,116.48 C821.69,115.85 821.66,115.93 823.50,117.37 C824.60,118.23 827.08,118.92 829.00,118.90 C831.42,118.88 831.97,118.75 831.01,118.29 C831.72,118.56 832.19,118.79 832.39,118.99 C832.94,119.54 834.32,120.03 835.45,120.07 C838.12,120.16 852.48,127.99 863.11,135.15 C872.09,141.19 891.00,159.64 891.00,162.36 C891.00,163.26 891.41,164.00 891.90,164.00 C892.40,164.00 894.44,166.46 896.43,169.46 C898.42,172.46 900.49,175.18 901.02,175.51 C901.56,175.85 902.00,176.78 902.00,177.58 C902.00,178.38 903.09,180.72 904.41,182.77 C905.74,184.82 907.60,188.98 908.55,192.00 C909.50,195.02 910.66,198.27 911.13,199.22 C911.95,200.89 912.44,202.63 915.78,216.00 C915.95,216.69 916.11,217.64 916.25,219.19 C915.95,216.44 915.60,215.11 915.19,214.38 C915.19,214.38 915.19,214.38 915.19,214.38 C914.81,214.38 914.50,344.67 914.50,504.50 C914.50,657.52 914.79,783.46 915.16,793.89 C913.83,801.16 912.07,807.63 910.43,810.78 C909.65,812.28 909.01,814.23 909.01,815.11 C908.99,819.94 898.17,838.21 887.17,852.00 C880.47,860.41 864.69,875.00 862.30,875.00 C861.96,875.00 859.39,876.75 856.59,878.88 C855.81,879.48 854.96,880.10 854.09,880.71 C854.18,880.42 853.83,880.27 853.13,880.17 C851.78,879.97 849.88,880.71 848.59,881.92 C847.37,883.06 845.92,884.00 845.38,884.00 C844.83,884.00 843.51,884.66 842.44,885.47 C838.90,888.15 842.98,887.13 849.33,883.75 C849.64,883.59 849.93,883.43 850.20,883.28 C849.43,883.76 848.75,884.16 848.23,884.42 C841.95,887.59 822.70,894.22 813.64,896.32 L 804.50 898.44 L 517.50 898.55 C359.65,898.61 228.48,898.50 226.00,898.30 C212.85,897.25 187.07,890.18 183.03,886.52 C182.10,885.69 180.71,885.00 179.95,885.00 C176.78,885.00 159.56,873.31 150.77,865.20 C138.61,853.97 135.47,850.37 128.56,839.74 C120.06,826.68 111.65,806.64 110.40,796.50 C110.20,794.85 109.78,792.44 109.47,791.14 C109.16,789.84 108.59,786.46 108.20,783.64 C108.07,782.66 107.96,769.70 107.86,748.31 C107.91,751.58 107.96,753.28 108.00,753.28 C108.03,753.28 108.05,752.86 108.08,752.00 C108.48,737.42 108.69,614.44 108.54,478.71 ZM 363.02 631.13 C363.02,623.36 362.84,595.13 362.55,558.11 C363.17,618.99 363.78,655.14 364.23,655.72 C364.91,656.57 367.77,656.82 373.71,656.53 C378.39,656.30 382.47,655.87 382.76,655.57 C383.11,655.22 382.49,513.46 381.81,402.48 C382.40,486.48 382.98,585.57 382.99,616.00 L 383.00 655.50 L 385.66 655.65 L 388.32 655.81 L 387.67 606.95 C388.31,655.46 388.34,655.86 390.41,656.40 C391.56,656.71 399.06,656.67 407.07,656.33 L 421.65 655.70 L 423.98 648.60 C428.06,636.13 437.54,619.99 447.53,608.50 C454.72,600.23 468.01,587.35 472.65,584.15 C474.77,582.69 476.65,581.16 476.83,580.75 C477.02,580.34 477.63,580.00 478.20,580.00 C478.77,580.00 482.22,578.02 485.87,575.60 C489.51,573.18 496.89,569.12 502.25,566.59 C507.61,564.05 512.00,561.55 512.00,561.03 C512.00,560.50 511.07,557.60 509.94,554.57 C508.81,551.54 507.67,547.89 507.41,546.46 C507.15,545.03 504.21,535.23 500.89,524.68 C497.56,514.13 494.03,502.58 493.04,499.00 C490.24,488.96 480.03,454.68 479.32,453.00 C478.98,452.17 478.54,450.60 478.34,449.50 C478.14,448.40 477.13,444.80 476.11,441.50 C475.14,438.38 473.87,433.66 472.45,428.01 C472.54,427.71 472.64,427.24 472.73,426.63 C472.96,425.05 472.61,423.25 471.94,422.63 C471.38,422.10 471.10,422.01 471.08,422.44 C469.38,415.39 467.56,407.41 465.86,399.53 C466.97,400.42 467.20,397.18 466.10,395.28 C465.25,393.83 465.08,393.81 465.04,395.64 L 465.01 395.50 C461.46,378.57 460.76,354.74 463.44,342.15 C467.45,323.40 473.69,313.79 498.33,288.42 C516.27,269.95 519.98,263.32 520.78,248.34 C521.28,238.81 520.38,234.40 515.79,224.00 C513.22,218.19 506.33,208.64 500.83,203.28 C493.30,195.94 481.89,187.00 480.04,187.00 C479.07,187.00 477.20,186.20 475.88,185.22 C474.57,184.24 469.67,181.92 465.00,180.07 C460.33,178.22 455.15,176.14 453.50,175.45 C451.16,174.48 446.48,173.50 440.89,172.68 C441.09,172.54 441.29,172.35 441.42,172.12 C442.13,170.97 436.96,169.97 431.12,170.12 L 426.50 170.24 L 433.00 171.50 C433.80,171.65 434.59,171.81 435.33,171.95 C428.79,171.19 421.73,170.70 416.00,170.71 C407.92,170.72 400.30,171.43 393.08,172.87 C394.41,172.54 395.52,172.19 396.00,171.92 C397.02,171.33 396.22,171.06 393.50,171.06 C391.30,171.06 388.60,171.77 387.50,172.63 C385.63,174.09 385.79,174.14 390.00,173.48 C390.25,173.44 390.51,173.40 390.76,173.35 C377.31,176.35 365.23,181.92 354.07,190.21 C348.75,194.16 339.08,206.07 336.27,212.13 C335.69,213.39 331.02,226.98 324.05,247.63 C329.50,230.98 333.22,219.00 332.90,219.00 C332.48,219.00 331.85,219.90 331.50,221.00 C331.15,222.10 330.00,223.47 328.93,224.04 C327.19,224.97 327.00,224.72 327.00,221.54 C327.00,218.71 326.61,218.00 325.08,218.00 C323.27,218.00 323.24,218.18 324.67,221.05 C324.74,221.18 324.80,221.31 324.86,221.44 C324.08,219.96 322.76,218.57 320.89,217.26 C317.15,214.65 316.96,214.28 317.51,210.50 C318.94,200.65 318.48,197.61 314.89,193.53 C310.63,188.68 303.22,186.56 292.93,187.27 C284.20,187.87 282.48,188.60 276.22,194.36 C270.06,200.03 267.35,204.66 266.11,211.61 C264.07,223.09 264.17,225.15 267.13,231.78 C272.02,242.71 276.85,247.41 286.50,250.64 C291.92,252.45 299.05,251.97 302.57,249.72 C301.85,250.32 301.17,250.79 300.61,251.02 C298.55,251.85 298.55,251.87 300.53,251.94 C301.64,251.97 303.53,251.32 304.73,250.48 C306.03,249.56 307.80,246.15 309.17,241.90 C311.35,235.14 311.57,234.86 314.25,235.25 C317.33,235.70 316.76,234.60 313.38,233.59 C313.31,233.56 313.23,233.54 313.16,233.52 C313.64,233.55 314.22,233.62 314.93,233.72 C317.47,234.06 319.49,233.78 321.14,232.80 L 318.94 234.86 L 321.72 235.18 C323.60,235.40 324.38,235.99 324.13,237.00 C323.93,237.82 323.53,240.52 323.24,243.00 C322.96,245.48 321.88,248.69 320.86,250.15 C319.84,251.61 319.00,253.86 318.99,255.15 C318.99,258.69 317.04,265.00 315.95,265.00 C315.43,265.00 315.00,266.58 315.00,268.50 C315.00,270.42 314.59,272.00 314.10,272.00 C313.05,272.00 311.00,277.42 311.00,280.20 C311.00,281.24 310.10,283.96 309.00,286.24 C307.90,288.51 307.00,291.58 307.00,293.05 C307.00,294.53 306.08,296.90 304.95,298.34 C302.74,301.15 301.70,304.71 302.64,306.23 C302.96,306.75 303.57,306.80 304.00,306.34 C304.24,306.08 306.53,299.61 309.92,289.73 C306.92,298.72 303.78,308.15 300.56,317.83 C295.43,333.27 290.45,348.19 285.90,361.77 C289.02,351.91 290.94,345.19 290.55,345.32 C289.99,345.50 288.49,348.99 287.22,353.08 C285.94,357.16 284.47,360.65 283.95,360.83 C283.43,361.02 283.00,362.25 283.00,363.57 C283.00,365.82 278.25,373.88 276.88,373.96 C276.53,373.98 276.00,372.73 275.68,371.17 C275.31,369.32 273.71,367.42 271.04,365.64 C267.58,363.36 267.12,362.65 267.98,361.04 C268.54,360.00 268.68,358.32 268.29,357.32 C268.00,356.55 267.80,356.17 267.61,356.23 L 267.64 356.16 C268.98,352.00 269.06,350.56 268.07,348.16 C266.36,344.04 262.38,340.69 256.04,338.05 C251.46,336.13 249.55,335.87 244.17,336.42 C240.65,336.78 235.95,338.00 233.74,339.13 C227.45,342.34 220.63,349.34 218.08,355.21 C216.81,358.12 215.37,361.28 214.89,362.24 C213.48,365.00 213.92,373.96 215.80,380.67 C218.41,390.01 223.97,395.72 234.26,399.63 C240.86,402.14 246.53,402.39 250.38,400.42 C249.57,400.91 248.69,401.32 247.72,401.67 C245.16,402.61 244.95,402.86 246.69,402.92 C250.69,403.06 255.72,399.14 258.54,393.70 C262.50,386.04 263.69,385.00 268.53,385.00 C274.23,385.00 275.50,386.66 273.60,391.64 C272.35,394.93 270.00,404.77 270.00,406.72 C270.00,407.82 270.49,407.13 271.72,403.95 C271.05,405.92 270.42,407.78 269.82,409.53 C270.09,408.07 269.70,408.16 268.67,409.19 C267.94,409.92 267.06,412.09 266.71,414.01 C266.36,415.93 265.80,418.62 265.47,420.00 C264.96,422.10 265.28,422.08 265.94,420.88 C264.89,423.89 264.21,425.82 263.94,426.49 C262.32,430.53 261.00,434.82 261.00,436.02 C261.00,437.22 260.39,439.62 259.64,441.35 C259.24,442.28 256.92,449.09 253.56,459.14 C253.58,459.02 253.60,458.91 253.62,458.80 L 254.21 455.50 L 251.61 459.20 C249.83,461.71 249.03,464.11 249.08,466.70 L 249.17 470.50 L 251.10 466.30 C251.19,466.11 251.28,465.91 251.37,465.70 C250.42,468.54 249.43,471.54 248.39,474.67 C249.55,470.53 249.01,470.22 246.67,472.81 C245.22,474.41 243.00,487.33 244.42,485.92 C244.57,485.76 245.00,484.74 245.56,483.25 C244.72,485.78 243.87,488.38 243.00,491.00 C241.14,496.68 239.29,502.26 237.54,507.54 L 237.55 507.50 C238.21,504.62 238.17,504.58 236.65,506.50 C235.78,507.60 235.05,509.38 235.03,510.45 C235.00,512.39 235.84,511.97 236.63,510.26 C235.29,514.29 234.01,518.12 232.82,521.65 C234.42,516.72 235.39,513.00 235.05,513.00 C234.17,513.00 232.00,517.57 232.00,519.39 C232.00,521.38 228.53,524.95 227.33,524.18 C226.75,523.81 225.56,522.10 224.69,520.40 C223.82,518.69 221.95,516.54 220.55,515.63 C218.52,514.29 217.98,513.09 217.90,509.73 C217.82,506.25 217.69,505.89 217.07,507.79 C218.29,499.51 217.67,497.44 214.13,493.89 C209.94,489.70 202.38,487.00 194.86,487.00 C183.63,487.00 172.46,494.82 166.89,506.60 C164.40,511.85 164.00,513.89 164.00,521.29 C164.00,529.28 164.24,530.31 167.41,535.70 C168.22,537.07 168.96,538.27 169.68,539.33 C168.56,537.87 167.48,536.25 166.42,534.44 C165.40,532.70 165.31,532.72 164.75,534.83 C164.39,536.22 164.74,537.54 165.66,538.29 C167.20,539.55 169.88,542.19 172.80,545.34 C174.78,547.48 179.66,549.80 182.43,549.92 C183.30,549.96 182.41,549.16 180.43,548.04 C181.10,548.35 181.82,548.67 182.59,549.00 C190.77,552.49 198.58,552.99 201.90,550.25 C199.54,552.20 200.11,552.55 203.06,550.97 C205.28,549.78 209.00,543.01 209.00,540.16 C209.00,538.24 211.59,536.80 217.29,535.55 C218.82,535.22 221.47,533.61 223.17,531.99 C226.82,528.50 228.37,528.99 227.44,533.35 C226.24,538.96 228.04,535.53 231.28,526.23 C229.79,530.64 228.49,534.42 227.48,537.34 C227.47,537.23 227.45,537.15 227.41,537.11 C226.75,536.39 224.00,539.22 224.00,540.62 C224.00,542.31 225.17,542.34 226.14,541.15 C225.74,542.26 225.44,543.06 225.26,543.50 C221.70,552.16 220.45,555.75 218.69,562.50 C217.83,565.80 215.93,572.55 214.46,577.50 C211.63,587.12 211.51,593.16 214.08,598.44 C215.42,601.20 217.06,602.61 228.66,611.00 C233.51,614.50 254.00,634.86 254.00,636.17 C254.00,636.55 255.36,639.06 257.03,641.74 C258.70,644.43 260.30,647.90 260.58,649.47 C261.72,655.78 262.30,656.10 271.81,655.79 L 280.50 655.50 L 273.50 656.10 L 266.50 656.70 L 274.00 656.60 C280.98,656.51 281.52,656.34 281.82,654.25 C282.02,652.80 282.83,652.00 284.07,652.00 C285.95,652.00 286.00,650.80 286.00,608.00 C286.00,579.33 285.65,564.00 285.00,564.00 C284.45,564.00 284.00,564.63 284.00,565.39 C284.00,566.16 283.33,567.04 282.51,567.36 C281.28,567.83 281.01,573.55 280.79,607.51 L 281.02 568.26 L 276.76 569.20 C269.04,570.91 266.93,571.16 263.29,569.83 C263.54,569.87 263.78,569.88 264.00,569.88 C264.83,569.85 263.66,568.98 261.41,567.95 C256.77,565.81 250.28,556.48 249.32,550.57 C248.72,546.88 252.78,533.74 254.24,534.65 C254.69,534.92 256.68,533.52 258.67,531.53 C260.66,529.54 263.22,527.26 264.37,526.46 C266.79,524.76 271.45,524.46 270.46,526.07 C270.10,526.65 270.41,527.03 271.15,526.90 C276.39,526.01 287.69,533.40 286.45,536.90 C286.17,537.67 286.86,539.15 287.97,540.19 C290.37,542.42 290.76,549.45 288.65,552.53 C287.91,553.61 287.03,556.30 286.70,558.50 C286.14,562.16 286.19,562.35 287.52,560.59 L 285.98 563.74 L 286.24 609.62 L 286.50 655.50 L 297.25 655.78 L 308.00 656.07 L 308.00 575.03 C308.00,651.00 308.04,651.88 310.00,652.50 C311.10,652.85 312.00,653.55 312.00,654.07 C312.00,654.58 312.30,655.00 312.66,655.00 C313.03,655.00 313.04,617.74 312.69,572.21 L 312.11 495.68 L 312.78 572.52 L 313.50 655.50 L 333.50 655.50 L 333.18 557.28 C333.53,612.12 334.32,645.56 335.04,625.00 C335.34,616.47 335.67,610.96 335.79,612.75 C335.91,614.54 336.49,616.00 337.08,616.00 C337.52,616.00 337.70,593.69 337.67,563.89 C337.74,571.83 337.82,580.20 337.90,589.00 L 338.50 655.50 L 358.50 655.50 L 358.32 565.80 C358.42,582.63 358.54,596.81 358.66,606.20 C359.29,653.61 359.40,655.71 361.16,655.25 C362.88,654.80 363.00,653.23 363.02,631.13 ZM 659.97 715.65 C660.80,716.50 705.79,715.19 712.50,714.12 C715.80,713.60 721.42,712.71 725.00,712.15 C732.66,710.94 736.42,709.93 748.50,705.82 C774.07,697.14 794.69,681.72 807.78,661.48 C812.96,653.48 819.43,635.96 820.59,626.82 C823.88,600.95 822.90,590.50 815.25,569.63 C808.68,551.72 788.51,530.26 765.24,516.41 C754.15,509.81 754.05,509.76 716.50,492.53 C683.33,477.30 668.78,468.13 660.45,457.23 C652.82,447.24 651.80,432.88 658.00,422.65 C664.67,411.64 677.31,405.81 694.92,405.64 C704.56,405.54 720.68,407.61 722.45,409.16 C722.97,409.62 724.16,410.00 725.10,410.00 C728.98,410.00 746.59,420.07 755.25,427.25 C761.46,432.40 772.88,447.66 777.13,456.50 L 780.50 463.50 L 789.76 463.79 C798.65,464.06 799.06,463.98 799.90,461.75 C800.91,459.09 801.29,398.82 800.38,385.97 L 799.78 377.43 L 795.64 375.87 C785.21,371.95 758.71,366.35 734.00,362.85 C720.95,361.00 669.57,361.01 658.00,362.86 C642.10,365.41 624.88,370.69 613.63,376.47 C609.85,378.41 606.23,380.00 605.58,380.00 C603.58,380.00 585.72,394.83 581.50,400.00 C573.79,409.44 571.29,413.58 567.10,423.85 C561.47,437.61 559.83,446.48 559.85,463.00 C559.86,474.52 560.24,477.79 562.43,485.27 C563.85,490.09 565.00,494.76 565.00,495.65 C565.00,497.66 573.90,513.30 577.69,517.94 C586.82,529.12 599.21,541.00 601.74,541.00 C602.26,541.00 603.55,541.95 604.60,543.11 C607.25,546.05 616.39,552.00 618.25,552.00 C619.09,552.00 620.01,552.56 620.28,553.25 C620.94,554.91 658.55,573.64 665.00,575.52 C666.38,575.92 668.01,576.65 668.63,577.15 C669.25,577.64 674.20,580.33 679.63,583.12 C706.26,596.79 717.56,608.42 719.51,624.17 C720.45,631.80 717.93,641.93 713.42,648.59 C709.75,654.01 703.06,660.00 700.68,660.00 C699.89,660.00 698.70,660.65 698.04,661.45 C695.43,664.60 686.02,666.35 671.50,666.39 C659.31,666.43 656.08,666.07 646.50,663.61 C621.77,657.25 602.98,644.24 590.03,624.49 C585.40,617.43 583.73,614.22 578.71,602.75 L 577.51 600.00 L 555.74 600.00 L 556.38 634.25 C556.73,653.09 557.29,673.37 557.63,679.31 L 558.23 690.13 L 563.77 692.57 C566.81,693.92 571.37,695.70 573.90,696.53 C576.43,697.37 579.40,698.43 580.50,698.91 C581.60,699.38 584.53,700.35 587.00,701.07 C589.47,701.78 591.95,702.68 592.50,703.08 C593.05,703.47 597.78,704.79 603.00,705.99 C608.22,707.20 613.53,708.60 614.80,709.09 C616.06,709.59 618.42,710.00 620.03,710.00 C621.65,710.00 624.89,710.43 627.24,710.95 C634.89,712.66 644.36,714.05 651.97,714.59 C656.08,714.88 659.68,715.36 659.97,715.65 ZM 421.16 781.24 C421.95,780.45 422.63,701.22 421.85,700.58 C419.75,698.87 416.18,698.59 403.98,699.20 C396.19,699.59 388.51,700.49 386.91,701.20 L 384.01 702.48 L 384.02 701.00 L 364.00 701.00 L 364.00 704.19 C363.56,703.08 362.18,701.73 360.25,700.94 C356.13,699.26 340.85,698.86 340.00,700.42 C339.74,700.89 341.97,701.18 345.37,701.13 C342.81,701.27 340.70,701.53 340.09,701.92 C338.89,702.68 338.78,708.74 339.37,741.55 C339.75,762.85 340.31,780.69 340.61,781.18 C340.92,781.67 345.07,781.95 349.83,781.79 L 358.50 781.50 L 358.76 741.87 L 359.01 704.60 L 359.12 741.36 C359.18,762.89 359.54,779.15 359.91,777.50 C360.43,775.16 361.06,774.55 362.79,774.74 C363.99,774.87 364.59,774.69 364.84,773.92 L 365.31 782.07 L 374.40 781.79 L 383.50 781.50 L 383.76 741.25 L 384.00 704.38 L 384.02 741.99 C384.02,765.35 384.39,780.93 384.92,780.10 C385.66,778.93 386.21,779.02 388.22,780.60 C390.37,782.30 392.23,782.48 405.47,782.30 C413.62,782.19 420.68,781.72 421.16,781.24 ZM 659.50 347.15 C662.80,347.51 672.62,347.65 681.32,347.46 L 697.15 347.11 L 702.30 343.81 C705.14,341.99 711.07,337.71 715.48,334.30 C719.89,330.88 725.72,326.38 728.44,324.30 C735.78,318.66 766.00,288.25 766.00,286.51 C766.00,285.24 763.81,284.99 752.25,284.93 C744.69,284.89 737.38,284.71 736.00,284.53 C734.62,284.34 728.55,283.68 722.50,283.05 C716.45,282.42 709.47,281.51 707.00,281.03 C701.40,279.93 698.89,281.33 695.87,287.26 C694.69,289.59 691.64,294.20 689.11,297.49 C683.19,305.18 680.00,309.88 680.00,310.90 C680.00,311.34 678.88,312.92 677.50,314.41 C676.12,315.89 675.00,317.37 675.00,317.69 C675.00,318.01 673.31,320.18 671.25,322.50 C664.77,329.81 654.14,343.57 653.81,345.06 C653.58,346.13 655.03,346.67 659.50,347.15 ZM 280.51 780.98 C280.86,780.42 281.12,775.58 281.10,770.23 C281.07,764.88 281.48,759.83 282.01,759.00 C282.80,757.76 282.97,757.84 283.00,759.50 C283.03,761.16 283.20,761.24 284.00,760.00 C284.71,758.90 284.97,759.64 284.98,762.75 C284.99,765.09 285.34,767.00 285.75,767.00 C285.97,767.00 286.16,762.95 286.30,756.49 C286.30,769.74 286.40,779.25 286.55,779.75 C286.83,780.65 289.92,781.00 297.47,781.00 L 305.69 781.00 L 296.75 781.25 L 285.50 781.57 L 296.63 781.79 C305.12,781.95 308.03,781.67 308.91,780.61 C309.72,779.64 309.99,773.62 309.82,760.86 C309.68,750.76 309.92,736.71 310.35,729.64 C310.92,720.27 310.78,715.43 309.86,711.82 C308.80,707.70 308.82,706.73 309.96,706.03 C311.09,705.33 311.03,704.89 309.66,703.52 C308.12,701.98 308.00,704.52 308.00,740.97 L 308.00 700.93 L 297.25 701.22 L 286.50 701.50 L 297.00 701.00 C309.18,700.42 308.07,699.00 295.44,699.00 C287.55,699.00 286.95,699.15 285.38,701.55 C284.45,702.96 283.10,703.87 282.35,703.58 C281.26,703.16 281.00,705.51 281.00,715.78 C281.00,722.78 280.70,740.30 280.34,754.71 L 280.13 763.09 L 280.48 745.75 C280.87,726.36 281.03,708.48 280.84,706.01 C280.52,701.74 280.33,701.50 277.00,700.99 C275.08,700.70 270.91,700.62 267.75,700.82 L 262.00 701.19 L 262.00 740.43 C262.00,762.01 262.30,779.97 262.67,780.33 C263.03,780.70 267.03,781.00 271.55,781.00 L 277.72 781.00 L 270.59 781.26 L 261.50 781.58 L 270.69 781.79 C276.10,781.91 280.14,781.58 280.51,780.98 ZM 227.84 475.93 C230.94,473.04 234.75,466.79 235.16,463.91 C235.45,461.83 236.06,461.49 239.62,461.39 C246.18,461.22 248.00,459.29 243.82,458.68 C245.22,458.42 246.28,457.80 247.60,456.67 C249.98,454.62 250.37,453.60 250.15,449.92 C249.95,446.59 249.39,444.73 247.76,443.32 C248.40,443.63 248.84,443.84 248.95,443.87 C249.19,443.94 247.84,442.31 245.95,440.25 C244.06,438.19 242.17,436.07 241.75,435.55 C241.69,435.47 241.63,435.42 241.57,435.40 C241.81,434.45 242.16,433.31 242.61,431.95 C244.61,425.85 243.87,422.56 239.62,418.55 C235.18,414.38 227.93,411.99 219.72,412.00 C209.19,412.00 201.92,415.89 195.99,424.67 C190.33,433.05 188.71,438.53 189.44,446.78 C190.28,456.26 193.40,464.31 197.58,467.78 C203.27,472.50 208.35,475.21 213.00,476.00 C214.05,476.18 215.03,476.33 215.95,476.45 C214.84,476.48 214.31,476.68 214.53,477.04 C214.85,477.57 217.48,478.00 220.37,478.00 C224.30,478.00 226.18,477.48 227.84,475.93 ZM 301.14 299.43 C300.81,293.75 298.79,290.00 296.06,290.00 C293.43,290.00 293.15,288.68 293.76,279.24 C294.38,269.68 293.70,268.41 285.78,264.39 C279.24,261.08 278.44,261.41 284.54,264.91 C285.21,265.30 285.88,265.72 286.51,266.18 C282.04,263.23 274.89,260.75 270.52,260.88 C263.54,261.09 253.33,265.82 248.79,270.94 C241.12,279.59 237.78,291.70 240.32,301.59 C242.72,310.88 243.54,312.44 248.87,317.78 C252.65,321.55 255.45,323.31 260.19,324.88 C271.53,328.63 278.48,326.52 282.15,318.20 C285.22,311.24 286.09,309.26 287.45,308.82 C287.99,308.65 288.61,308.72 289.48,308.81 L 289.49 308.81 C294.68,309.39 298.26,307.19 299.51,302.88 C299.38,304.38 299.62,304.96 300.26,304.75 C300.99,304.50 301.32,302.51 301.14,299.43 ZM 332.67 700.50 C332.48,699.95 331.13,699.53 329.67,699.56 C318.33,699.83 315.00,700.10 315.00,700.75 C315.00,700.97 316.21,701.18 318.10,701.32 C316.69,701.47 315.59,701.68 315.09,701.95 C313.43,702.84 313.35,705.32 313.71,741.20 C313.92,762.26 314.29,780.06 314.52,780.75 C314.80,781.60 317.35,782.00 322.53,782.00 C323.58,782.00 324.52,782.03 325.38,782.05 C328.01,782.13 329.84,782.18 331.12,781.37 C334.08,779.48 334.06,772.93 334.01,751.25 C334.01,748.18 334.00,744.80 334.00,741.08 L 334.00 702.23 L 331.75 701.63 C331.25,701.50 330.60,701.39 329.84,701.30 C331.77,701.13 332.78,700.85 332.67,700.50 ZM 422.07 828.50 L 421.27 823.70 L 421.19 816.08 C421.08,804.85 420.88,795.55 420.74,795.41 C420.61,795.28 413.75,795.04 405.50,794.89 L 390.50 794.60 L 390.23 814.92 C390.07,826.47 390.36,835.73 390.89,836.37 C391.54,837.16 396.29,837.35 406.61,837.00 L 421.40 836.50 L 421.37 834.02 C421.51,834.54 421.71,834.69 421.95,834.45 C422.53,833.87 422.58,831.52 422.07,828.50 ZM 385.98 829.50 C386.12,830.05 386.58,829.15 387.00,827.50 C387.63,825.03 387.78,825.52 387.88,830.25 C387.95,833.41 388.45,836.00 389.00,836.00 C389.63,836.00 390.00,828.70 390.00,816.11 L 390.00 796.23 L 384.04 795.35 L 384.04 795.16 L 376.77 794.83 C375.61,794.78 374.56,794.71 373.61,794.65 C370.07,794.43 367.97,794.30 366.73,795.27 C364.91,796.69 364.93,800.46 364.98,809.74 C364.99,811.44 365.00,813.32 365.00,815.40 C365.00,826.55 365.32,835.98 365.70,836.37 C366.09,836.76 370.25,836.94 374.95,836.79 L 383.50 836.50 L 383.77 815.83 L 384.01 797.23 L 384.14 815.92 C384.22,827.73 384.59,834.80 385.00,832.50 C385.39,830.30 385.83,828.95 385.98,829.50 ZM 308.85 795.55 C308.38,795.02 308.07,800.15 308.16,807.05 L 308.21 810.76 L 307.68 795.00 L 297.46 795.00 C287.70,795.00 287.21,795.10 286.63,797.25 C285.45,801.67 285.93,834.53 287.20,835.80 C288.64,837.24 307.58,837.48 308.45,836.07 C308.74,835.61 308.73,827.54 308.44,817.64 L 309.01 808.00 C309.39,801.67 309.32,796.07 308.85,795.55 ZM 310.58 685.00 C311.36,685.00 312.00,685.45 312.00,686.00 C312.00,686.55 312.51,687.00 313.14,687.00 C313.81,687.00 314.03,685.73 313.83,682.86 C314.24,686.41 314.83,688.02 315.76,688.20 C316.57,688.37 320.89,688.28 325.37,688.00 L 333.50 687.50 L 333.79 679.75 L 334.08 672.00 L 324.15 672.00 L 323.63 672.00 C317.89,672.00 315.19,672.00 314.05,673.33 C313.25,674.26 313.21,675.83 313.41,678.49 C312.87,672.14 313.88,672.00 322.11,672.00 C330.77,672.00 332.79,670.55 325.25,669.75 C322.64,669.47 319.81,668.95 318.96,668.60 C318.07,668.22 316.52,668.80 315.26,669.98 C312.69,672.36 311.68,672.46 308.71,670.63 C306.23,669.10 287.00,669.53 287.00,671.12 C287.00,671.60 291.73,672.00 297.50,672.00 L 286.00 672.00 L 286.00 688.67 L 296.25 688.34 C301.89,688.16 306.84,688.01 307.25,688.00 C307.66,688.00 308.00,684.40 308.00,680.00 L 308.00 672.00 L 308.08 679.75 C308.12,684.01 308.38,686.94 308.66,686.25 C308.94,685.56 309.80,685.00 310.58,685.00 ZM 347.13 837.00 C348.24,837.08 349.24,837.16 350.15,837.24 C353.76,837.54 355.91,837.72 357.19,836.75 C359.08,835.31 359.06,831.35 359.02,821.52 C359.01,819.84 359.00,817.99 359.00,815.95 C359.00,796.98 358.84,795.09 357.25,794.64 C355.38,794.11 341.09,794.57 340.48,795.19 C340.28,795.39 340.03,804.77 339.93,816.03 L 339.76 836.50 ZM 315.46 835.76 C315.84,836.74 318.19,837.00 324.73,836.79 L 333.50 836.50 L 333.77 816.07 C333.95,802.29 333.69,795.43 332.97,794.98 C332.37,794.61 328.20,794.38 323.70,794.45 L 315.50 794.58 L 315.23 814.51 C315.08,825.48 315.18,835.04 315.46,835.76 ZM 262.67 836.33 C263.03,836.70 266.84,837.00 271.13,837.00 C277.73,837.00 279.08,836.71 279.93,835.13 C280.52,834.03 280.84,825.51 280.72,814.38 L 280.50 795.50 L 272.50 794.95 C268.10,794.65 263.94,794.82 263.25,795.33 C262.32,796.01 262.00,801.34 262.00,815.96 C262.00,826.80 262.30,835.97 262.67,836.33 ZM 388.69 687.36 C389.07,687.74 396.38,687.93 404.94,687.77 L 420.50 687.50 L 420.79 679.91 L 421.08 672.31 L 407.29 671.72 C399.71,671.39 392.26,671.37 390.75,671.68 C388.06,672.22 388.00,672.38 388.00,679.45 C388.00,683.42 388.31,686.98 388.69,687.36 ZM 286.00 674.52 C286.00,673.17 285.21,671.66 284.25,671.17 C279.96,668.95 269.87,668.16 264.75,669.63 C262.19,670.37 262.58,671.41 264.92,671.67 C264.86,671.68 264.80,671.69 264.75,671.70 C262.03,672.23 262.00,672.32 262.00,680.05 C262.00,687.36 262.15,687.89 264.25,688.29 C267.83,688.98 276.29,689.03 278.75,688.37 C280.84,687.81 281.00,687.21 281.00,680.03 L 281.00 672.29 L 274.32 671.74 C274.82,671.75 275.30,671.77 275.75,671.78 L 281.00 672.00 L 281.14 680.25 C281.24,686.03 281.47,687.38 281.89,684.77 C282.23,682.71 283.29,680.12 284.25,679.00 C285.21,677.89 286.00,675.87 286.00,674.52 ZM 291.35 493.12 C290.24,492.08 287.80,490.90 285.92,490.50 C280.12,489.25 279.43,488.47 278.18,481.70 C276.61,473.18 276.64,472.45 278.41,473.92 C279.18,474.57 281.73,474.98 284.07,474.84 C287.50,474.64 288.60,475.01 289.78,476.80 C290.69,478.17 292.27,479.00 293.97,479.00 C298.00,479.00 303.00,481.81 303.00,484.07 C303.00,485.46 303.70,486.00 305.50,486.00 C307.50,486.00 308.00,486.50 308.00,488.50 C308.00,490.96 307.25,491.41 303.74,491.05 C302.78,490.95 300.68,491.80 299.09,492.94 C295.50,495.49 293.94,495.53 291.35,493.12 ZM 386.88 686.28 C387.83,687.23 388.02,685.64 387.79,678.99 C387.52,670.99 387.37,670.48 385.20,670.17 C382.93,669.85 382.90,669.97 383.08,679.10 C383.10,679.78 383.11,680.42 383.13,681.00 L 383.10 680.01 C382.96,675.89 382.73,672.40 382.58,672.25 C382.01,671.68 366.71,671.17 365.39,671.68 C364.36,672.07 364.00,674.29 364.00,680.14 L 364.00 688.07 L 373.67 687.79 L 383.34 687.50 L 383.18 682.53 C383.35,687.00 383.67,687.80 384.47,686.71 C385.41,685.43 385.93,685.33 386.88,686.28 ZM 339.00 678.08 L 339.00 688.07 L 348.75 687.79 L 358.50 687.50 L 358.79 679.75 L 359.08 672.00 L 349.04 672.00 C352.87,672.00 356.00,671.58 356.00,671.07 C356.00,669.47 352.10,668.80 346.94,669.51 C339.69,670.51 340.92,672.00 349.00,672.00 L 339.00 672.00 L 339.00 678.08 ZM 275.05 551.72 C279.15,548.48 281.44,542.01 279.02,540.51 C278.41,540.14 278.25,540.99 278.59,542.72 C278.69,543.22 278.73,543.73 278.69,544.24 C278.72,543.70 278.68,543.14 278.56,542.56 C278.03,539.91 276.66,537.78 274.78,536.46 C275.18,536.70 275.55,536.96 275.86,537.25 L 278.36 539.50 L 276.21 536.39 C274.67,534.16 272.98,533.09 270.28,532.65 C263.80,531.58 263.11,531.81 261.52,535.62 C260.37,538.37 259.55,539.12 258.11,538.74 C256.16,538.23 253.15,539.48 254.09,540.42 C254.38,540.72 255.49,541.09 256.56,541.26 C259.19,541.67 261.14,542.97 260.55,543.92 C260.28,544.35 260.71,545.56 261.50,546.60 C263.28,548.96 263.41,550.35 261.75,549.40 C261.06,549.00 260.84,549.05 261.25,549.50 C261.66,549.96 263.19,550.46 264.65,550.61 C266.10,550.77 267.77,551.37 268.35,551.95 C269.75,553.35 273.13,553.23 275.05,551.72 ZM 364.65 770.60 C364.47,770.23 364.25,770.00 364.00,770.00 C363.45,770.00 363.00,770.51 363.00,771.12 C363.00,771.90 362.54,771.86 361.50,771.00 C360.23,769.95 360.00,765.34 360.00,741.00 C360.00,710.88 360.37,706.00 362.62,706.00 C363.34,706.00 363.79,705.79 364.00,705.46 L 364.00 730.25 C364.01,746.18 364.30,764.22 364.65,770.60 ZM 339.66 758.84 C339.30,747.20 339.00,729.65 339.00,719.84 L 339.00 702.00 L 334.00 702.00 L 334.22 723.25 C334.40,740.97 334.49,742.10 334.75,730.02 C334.92,722.06 335.50,715.10 336.03,714.57 C336.67,713.93 337.02,715.32 337.02,718.54 C337.10,747.26 338.27,780.00 339.22,780.00 C340.00,780.00 340.13,773.97 339.66,758.84 ZM 361.33 816.45 C361.58,807.13 362.18,799.39 362.65,799.25 C363.12,799.11 363.74,807.43 364.03,817.75 L 364.57 836.50 L 364.78 815.86 L 365.00 795.23 L 359.00 794.35 L 359.03 815.42 C359.07,840.70 360.66,841.41 361.33,816.45 ZM 297.94 325.69 C302.79,311.19 303.58,307.90 302.47,306.97 C301.40,306.09 301.10,306.29 301.06,307.92 C301.03,309.07 300.97,310.87 300.93,311.93 C300.90,313.00 300.22,314.40 299.43,315.06 C298.64,315.71 298.00,316.99 298.00,317.90 C298.00,318.81 297.38,320.44 296.63,321.53 C295.88,322.61 295.02,325.08 294.73,327.00 C294.44,328.92 293.50,333.20 292.64,336.50 C291.78,339.80 291.06,342.91 291.04,343.42 C290.94,345.93 292.56,341.78 297.94,325.69 ZM 364.00 678.99 C364.00,672.20 363.93,672.00 361.50,672.00 C359.08,672.00 359.00,672.21 359.00,678.78 C359.00,685.29 359.10,685.57 361.50,685.77 C363.95,685.97 364.00,685.83 364.00,678.99 ZM 339.00 678.08 C339.00,674.25 338.56,672.01 337.75,671.73 C334.97,670.76 334.00,672.28 334.00,677.58 C334.00,681.93 334.28,682.83 335.50,682.36 C336.33,682.05 337.00,682.28 337.00,682.89 C337.00,683.50 337.45,684.00 338.00,684.00 C338.55,684.00 339.00,681.36 339.00,678.08 ZM 317.53 419.04 C316.71,417.72 318.82,416.86 321.99,417.22 C323.78,417.43 324.76,416.79 325.76,414.75 C326.68,412.87 327.88,412.00 329.55,412.00 C332.58,412.00 332.61,412.77 329.75,416.16 C327.30,419.05 318.78,421.06 317.53,419.04 ZM 175.00 495.35 C176.93,493.37 180.52,490.81 183.00,489.64 C187.44,487.56 187.46,487.53 184.57,487.18 C182.61,486.95 181.12,487.45 180.07,488.71 C179.21,489.74 177.34,491.16 175.92,491.87 C173.42,493.12 169.06,499.03 170.69,498.97 C171.14,498.95 173.07,497.32 175.00,495.35 ZM 222.50 348.17 C224.15,346.24 227.26,343.38 229.40,341.83 C231.55,340.27 232.83,339.00 232.26,339.00 C230.59,339.00 219.22,347.72 218.06,349.89 C217.48,350.98 217.03,352.69 217.06,353.68 C217.11,355.39 217.19,355.39 218.31,353.60 C218.96,352.55 220.85,350.11 222.50,348.17 ZM 559.61 462.50 C559.58,458.38 559.26,455.00 558.90,455.00 C557.82,455.00 557.01,462.30 557.66,466.27 C558.66,472.45 559.68,470.48 559.61,462.50 ZM 306.23 481.60 C305.63,480.28 305.40,478.93 305.73,478.60 C307.05,477.28 309.90,478.12 310.50,479.99 C311.83,484.18 308.05,485.60 306.23,481.60 ZM 565.40 428.08 C567.97,421.73 568.30,418.66 565.93,423.16 C565.25,424.45 564.37,425.73 563.97,426.00 C563.57,426.27 562.91,428.52 562.51,431.00 C561.58,436.69 562.15,436.11 565.40,428.08 ZM 314.87 826.25 L 314.74 816.50 L 313.89 823.50 C313.12,829.79 313.47,836.00 314.58,836.00 C314.81,836.00 314.94,831.61 314.87,826.25 ZM 330.48 420.55 C330.57,420.52 330.66,420.50 330.75,420.47 L 333.00 419.77 L 333.00 497.63 C333.00,500.21 333.00,502.78 333.00,505.32 C332.82,456.42 332.60,420.33 332.48,420.19 C332.40,420.10 331.63,420.25 330.48,420.55 ZM 763.45 284.10 C762.91,283.59 757.79,283.52 751.50,283.95 L 740.50 284.70 L 752.45 284.85 C759.55,284.94 764.01,284.64 763.45,284.10 ZM 278.92 837.36 C279.15,837.16 275.41,837.00 270.61,837.00 C265.54,837.00 262.12,837.39 262.45,837.92 C262.97,838.75 277.90,838.25 278.92,837.36 ZM 421.85 794.55 C421.38,794.02 421.07,799.15 421.16,806.05 L 421.32 818.50 L 422.01 807.00 C422.39,800.67 422.32,795.07 421.85,794.55 ZM 378.75 699.77 C375.62,699.12 372.38,699.12 369.25,699.77 C364.85,700.69 365.20,700.76 374.00,700.76 C382.80,700.76 383.15,700.69 378.75,699.77 ZM 332.92 837.36 C333.15,837.16 329.32,837.06 324.42,837.13 C317.85,837.23 316.42,837.46 319.00,838.00 C322.20,838.67 331.93,838.23 332.92,837.36 ZM 336.82 451.88 C336.71,445.58 336.60,439.82 336.49,434.80 C336.17,421.18 336.36,414.89 337.12,414.43 C337.28,414.33 337.44,414.20 337.60,414.05 C336.98,415.45 336.71,421.94 336.82,451.88 ZM 385.14 772.96 C385.21,769.96 385.48,768.62 385.73,770.00 C385.98,771.38 386.67,773.09 387.26,773.80 C388.04,774.75 387.88,775.55 386.66,776.76 C385.11,778.32 385.01,778.06 385.14,772.96 ZM 281.00 459.00 C281.00,457.49 281.52,456.95 282.75,457.19 C283.71,457.38 284.50,458.19 284.50,459.00 C284.50,459.81 283.71,460.62 282.75,460.81 C281.52,461.05 281.00,460.51 281.00,459.00 ZM 642.92 365.35 C643.15,365.16 641.68,365.00 639.67,365.00 C637.13,365.00 636.00,365.45 636.00,366.45 C636.00,367.64 636.57,367.70 639.25,366.80 C641.04,366.20 642.69,365.54 642.92,365.35 ZM 201.86 485.89 C200.04,484.74 197.00,484.77 197.00,485.93 C197.00,486.94 200.97,487.87 202.36,487.18 C202.83,486.94 202.60,486.36 201.86,485.89 ZM 340.00 797.09 C340.00,795.68 339.48,795.32 338.00,795.71 C336.90,796.00 336.00,796.66 336.00,797.18 C336.00,797.69 336.45,797.84 337.00,797.50 C337.55,797.16 338.00,797.36 338.00,797.94 C338.00,798.52 338.45,799.00 339.00,799.00 C339.55,799.00 340.00,798.14 340.00,797.09 ZM 168.52 502.96 C170.06,499.99 170.05,499.95 168.04,501.20 C166.92,501.91 166.00,503.27 166.00,504.24 C166.00,506.79 166.73,506.41 168.52,502.96 ZM 335.75 678.42 C335.34,678.01 335.00,676.75 335.00,675.63 C335.00,674.16 335.30,673.90 336.09,674.69 C336.70,675.30 337.03,676.55 336.84,677.48 C336.65,678.42 336.16,678.84 335.75,678.42 ZM 357.98 433.84 C357.80,386.60 357.55,353.29 357.34,351.34 L 356.93 347.48 L 357.38 350.74 C357.67,352.90 357.92,388.50 357.98,433.84 ZM 329.00 405.00 C329.00,404.45 329.93,404.00 331.06,404.00 C332.19,404.00 332.84,404.45 332.50,405.00 C332.16,405.55 331.23,406.00 330.44,406.00 C329.65,406.00 329.00,405.55 329.00,405.00 ZM 249.38 538.00 C248.28,540.86 247.67,544.07 247.65,547.53 C247.64,550.37 248.20,553.48 249.02,556.02 C247.48,552.19 246.91,548.02 247.62,544.11 C248.02,541.92 248.61,539.88 249.38,538.00 ZM 361.48 430.47 L 360.70 342.37 L 360.77 342.25 ZM 300.36 389.07 C299.14,392.06 298.52,395.41 298.54,399.00 C298.56,402.23 299.10,405.25 300.10,407.98 C297.75,402.15 297.62,395.35 300.36,389.07 ZM 251.59 560.86 C251.98,561.19 252.36,561.34 252.73,561.26 C253.39,561.13 253.70,561.61 253.43,562.33 C253.31,562.62 253.37,562.99 253.57,563.40 C252.86,562.60 252.20,561.75 251.59,560.86 ZM 341.98 399.34 C341.89,390.02 337.27,381.98 329.80,378.15 C334.46,380.40 338.07,384.53 340.55,390.47 C341.58,392.93 342.03,396.09 341.98,399.34 ZM 265.31 535.79 C266.42,535.08 268.17,534.85 269.98,535.02 C265.63,535.04 264.40,535.82 263.07,539.32 C262.98,539.56 262.90,539.82 262.84,540.08 C263.17,538.22 264.02,536.60 265.31,535.79 ZM 216.15 513.91 C216.45,515.39 217.40,516.34 219.04,517.02 C221.71,518.12 223.50,519.81 224.35,521.87 C223.49,519.80 221.66,518.10 218.93,516.97 C216.70,516.05 216.05,515.72 216.15,513.91 ZM 318.86 422.56 C321.27,422.88 323.46,422.58 327.20,421.53 C327.14,421.55 327.09,421.57 327.03,421.58 C323.47,422.75 321.76,423.02 318.86,422.56 ZM 312.06 489.52 L 312.06 489.42 L 314.53 484.54 C314.77,484.07 314.99,483.60 315.19,483.13 C318.01,476.37 317.39,469.12 314.48,463.14 C310.43,454.88 301.99,449.04 292.27,450.38 C302.02,449.04 310.44,454.87 314.48,463.14 C317.42,469.13 318.05,476.40 315.19,483.13 C314.99,483.61 314.77,484.09 314.53,484.57 ZM 277.34 547.94 C276.06,549.73 274.04,551.00 271.86,551.00 C271.78,551.00 271.70,551.00 271.62,551.00 C273.93,550.80 276.03,549.66 277.34,547.94 ZM 916.93 780.91 C917.11,778.73 917.27,769.54 917.40,753.84 C917.29,769.25 917.15,778.29 916.99,780.23 C916.96,780.61 916.93,780.99 916.89,781.37 C916.91,781.22 916.92,781.06 916.93,780.91 ZM 307.41 242.29 C307.15,243.05 307.00,243.60 307.00,243.80 C307.00,244.40 306.41,245.44 305.56,246.55 C306.06,245.82 306.44,245.12 306.60,244.59 C306.74,244.10 307.04,243.28 307.41,242.29 ZM 292.23 281.64 C292.03,282.90 291.76,284.37 291.45,286.10 C291.31,286.84 291.21,287.43 291.17,287.92 C291.18,286.72 291.56,284.92 292.16,282.01 C292.18,281.89 292.21,281.76 292.23,281.64 ZM 254.03 397.09 C255.32,395.21 256.85,392.40 257.91,389.86 C256.60,392.99 255.38,395.32 254.03,397.09 ZM 228.91 472.88 C227.00,475.45 224.87,476.56 221.86,476.72 C224.97,476.45 227.08,475.29 228.91,472.88 ZM 309.85 378.35 C309.16,378.71 308.50,379.11 307.88,379.55 C306.41,380.60 305.09,381.80 303.95,383.15 C305.64,381.07 307.59,379.49 309.85,378.35 ZM 241.21 438.65 C241.47,439.42 242.01,440.06 242.95,440.73 C241.94,440.18 241.38,439.58 241.21,438.65 ZM 266.10 362.91 C266.24,364.70 267.28,365.64 269.46,366.55 C267.21,365.61 266.16,364.78 266.10,362.91 ZM 290.90 552.18 C291.26,550.46 291.47,548.71 291.50,547.10 C291.51,548.77 291.31,550.46 290.90,552.18 ZM 339.85 410.20 C340.54,408.49 341.12,406.44 341.50,404.38 C341.14,406.47 340.59,408.46 339.85,410.20 ZM 324.65 228.71 C325.27,227.47 325.61,226.27 325.67,225.11 C325.64,226.33 325.30,227.53 324.65,228.71 ZM 312.25 420.69 C313.11,421.05 314.01,421.38 314.94,421.65 C315.56,421.83 316.13,421.99 316.68,422.13 C316.63,422.12 316.57,422.10 316.52,422.09 C315.02,421.76 313.59,421.28 312.25,420.69 ZM 380.67 272.35 C380.36,272.24 378.51,273.00 376.43,274.08 C378.59,272.95 380.50,272.17 380.66,272.33 C380.67,272.33 380.67,272.34 380.67,272.35 ZM 292.47 273.58 C292.72,274.36 292.84,275.18 292.84,276.22 C292.81,275.26 292.70,274.39 292.47,273.58 ZM 311.00 234.27 C310.70,234.65 310.40,235.18 310.05,235.89 C310.39,235.16 310.68,234.64 311.00,234.27 ZM 359.00 702.23 L 358.04 701.98 L 359.00 702.22 ZM 292.63 290.36 C293.18,290.65 293.91,290.95 294.87,291.33 C293.93,290.95 293.19,290.66 292.63,290.36 ZM 299.93 297.23 C299.94,297.40 299.96,297.57 299.96,297.75 C299.95,297.57 299.94,297.40 299.93,297.23 Z" fill="rgb(192,12,20)"/>
<path d="M 0.00 512.00 L 0.00 0.00 L 512.00 0.00 L 1024.00 0.00 L 1024.00 512.00 L 1024.00 1024.00 L 512.00 1024.00 L 0.00 1024.00 L 0.00 512.00 ZM 813.64 896.32 C822.70,894.22 841.95,887.59 848.23,884.42 C850.03,883.51 853.79,881.02 856.59,878.88 C859.39,876.75 861.96,875.00 862.30,875.00 C864.69,875.00 880.47,860.41 887.17,852.00 C898.17,838.21 908.99,819.94 909.01,815.11 C909.01,814.23 909.65,812.28 910.43,810.78 C913.08,805.71 916.02,792.01 916.99,780.23 C917.60,772.92 917.86,665.52 917.69,495.50 C917.43,247.33 917.26,221.91 915.78,216.00 C912.44,202.63 911.95,200.89 911.13,199.22 C910.66,198.27 909.50,195.02 908.55,192.00 C907.60,188.98 905.74,184.82 904.41,182.77 C903.09,180.72 902.00,178.38 902.00,177.58 C902.00,176.78 901.56,175.85 901.02,175.51 C900.49,175.18 898.42,172.46 896.43,169.46 C894.44,166.46 892.40,164.00 891.90,164.00 C891.41,164.00 891.00,163.26 891.00,162.36 C891.00,159.64 872.09,141.19 863.11,135.15 C852.48,127.99 838.12,120.16 835.45,120.07 C834.32,120.03 832.94,119.54 832.39,118.99 C831.33,117.93 821.82,115.55 811.50,113.75 C803.67,112.38 225.06,111.61 220.00,112.96 C218.07,113.47 214.48,114.09 212.00,114.34 C199.19,115.63 177.38,124.63 162.26,134.87 C135.83,152.76 114.33,185.35 110.41,213.46 C110.11,215.63 109.63,217.79 109.34,218.26 C109.05,218.72 108.52,221.67 108.16,224.80 C107.27,232.49 107.31,777.13 108.20,783.64 C108.59,786.46 109.16,789.84 109.47,791.14 C109.78,792.44 110.20,794.85 110.40,796.50 C111.65,806.64 120.06,826.68 128.56,839.74 C135.47,850.37 138.61,853.97 150.77,865.20 C159.56,873.31 176.78,885.00 179.95,885.00 C180.71,885.00 182.10,885.69 183.03,886.52 C187.07,890.18 212.85,897.25 226.00,898.30 C228.48,898.50 359.65,898.61 517.50,898.55 L 804.50 898.44 L 813.64 896.32 ZM 347.13 837.00 L 339.76 836.50 L 339.93 816.03 C340.03,804.77 340.28,795.39 340.48,795.19 C341.09,794.57 355.38,794.11 357.25,794.64 C358.84,795.09 359.00,796.98 359.00,815.95 C359.00,840.01 360.20,837.89 347.13,837.00 ZM 390.89 836.37 C390.36,835.73 390.07,826.47 390.23,814.92 L 390.50 794.60 L 405.50 794.89 C413.75,795.04 420.61,795.28 420.74,795.41 C420.88,795.55 421.08,804.85 421.19,816.08 L 421.40 836.50 L 406.61 837.00 C396.29,837.35 391.54,837.16 390.89,836.37 ZM 262.67 836.33 C262.30,835.97 262.00,826.80 262.00,815.96 C262.00,801.34 262.32,796.01 263.25,795.33 C263.94,794.82 268.10,794.65 272.50,794.95 L 280.50 795.50 L 280.72 814.38 C280.84,825.51 280.52,834.03 279.93,835.13 C279.08,836.71 277.73,837.00 271.13,837.00 C266.84,837.00 263.03,836.70 262.67,836.33 ZM 287.20 835.80 C285.93,834.53 285.45,801.67 286.63,797.25 C287.21,795.10 287.70,795.00 297.46,795.00 L 307.68 795.00 L 308.35 815.07 C308.72,826.12 308.77,835.57 308.45,836.07 C307.58,837.48 288.64,837.24 287.20,835.80 ZM 315.46 835.76 C315.18,835.04 315.08,825.48 315.23,814.51 L 315.50 794.58 L 323.70 794.45 C328.20,794.38 332.37,794.61 332.97,794.98 C333.69,795.43 333.95,802.29 333.77,816.07 L 333.50 836.50 L 324.73 836.79 C318.19,837.00 315.84,836.74 315.46,835.76 ZM 365.70 836.37 C365.32,835.98 365.00,826.55 365.00,815.40 C365.00,792.03 363.74,794.24 376.77,794.83 L 384.04 795.16 L 383.77 815.83 L 383.50 836.50 L 374.95 836.79 C370.25,836.94 366.09,836.76 365.70,836.37 ZM 314.52 780.75 C314.29,780.06 313.92,762.26 313.71,741.20 C313.35,705.32 313.43,702.84 315.09,701.95 C317.06,700.90 328.22,700.68 331.75,701.63 L 334.00 702.23 L 334.00 741.08 C334.00,786.02 335.13,782.00 322.53,782.00 C317.35,782.00 314.80,781.60 314.52,780.75 ZM 340.61 781.18 C340.31,780.69 339.75,762.85 339.37,741.55 C338.78,708.74 338.89,702.68 340.09,701.92 C341.68,700.91 353.32,700.71 356.76,701.63 L 359.02 702.24 L 358.76 741.87 L 358.50 781.50 L 349.83 781.79 C345.07,781.95 340.92,781.67 340.61,781.18 ZM 364.66 770.79 C364.30,764.58 364.01,746.34 364.00,730.25 L 364.00 701.00 L 374.01 701.00 L 384.02 701.00 L 383.76 741.25 L 383.50 781.50 L 374.40 781.79 L 365.31 782.07 L 364.66 770.79 ZM 262.67 780.33 C262.30,779.97 262.00,762.01 262.00,740.43 L 262.00 701.19 L 267.75 700.82 C270.91,700.62 275.08,700.70 277.00,700.99 C280.33,701.50 280.52,701.74 280.84,706.01 C281.03,708.48 280.87,726.36 280.48,745.75 L 279.77 781.00 L 271.55 781.00 C267.03,781.00 263.03,780.70 262.67,780.33 ZM 286.55 779.75 C286.34,779.06 286.24,761.17 286.33,740.00 L 286.50 701.50 L 297.25 701.22 L 308.00 700.93 L 308.00 740.97 L 308.00 781.00 L 297.47 781.00 C289.92,781.00 286.83,780.65 286.55,779.75 ZM 389.24 741.25 L 389.50 701.50 L 405.25 701.22 L 421.00 700.95 L 421.00 740.97 L 421.00 781.00 L 404.99 781.00 L 388.98 781.00 L 389.24 741.25 ZM 659.97 715.65 C659.68,715.36 656.08,714.88 651.97,714.59 C644.36,714.05 634.89,712.66 627.24,710.95 C624.89,710.43 621.65,710.00 620.03,710.00 C618.42,710.00 616.06,709.59 614.80,709.09 C613.53,708.60 608.22,707.20 603.00,705.99 C597.78,704.79 593.05,703.47 592.50,703.08 C591.95,702.68 589.47,701.78 587.00,701.07 C584.53,700.35 581.60,699.38 580.50,698.91 C579.40,698.43 576.43,697.37 573.90,696.53 C571.37,695.70 566.81,693.92 563.77,692.57 L 558.23 690.13 L 557.63 679.31 C557.29,673.37 556.73,653.09 556.38,634.25 L 555.74 600.00 L 566.63 600.00 L 577.51 600.00 L 578.71 602.75 C583.73,614.22 585.40,617.43 590.03,624.49 C602.98,644.24 621.77,657.25 646.50,663.61 C656.08,666.07 659.31,666.43 671.50,666.39 C686.02,666.35 695.43,664.60 698.04,661.45 C698.70,660.65 699.89,660.00 700.68,660.00 C703.06,660.00 709.75,654.01 713.42,648.59 C717.93,641.93 720.45,631.80 719.51,624.17 C717.56,608.42 706.26,596.79 679.63,583.12 C674.20,580.33 669.25,577.64 668.63,577.15 C668.01,576.65 666.38,575.92 665.00,575.52 C658.55,573.64 620.94,554.91 620.28,553.25 C620.01,552.56 619.09,552.00 618.25,552.00 C616.39,552.00 607.25,546.05 604.60,543.11 C603.55,541.95 602.26,541.00 601.74,541.00 C599.21,541.00 586.82,529.12 577.69,517.94 C573.90,513.30 565.00,497.66 565.00,495.65 C565.00,494.76 563.85,490.09 562.43,485.27 C560.24,477.79 559.86,474.52 559.85,463.00 C559.83,446.48 561.47,437.61 567.10,423.85 C571.29,413.58 573.79,409.44 581.50,400.00 C585.72,394.83 603.58,380.00 605.58,380.00 C606.23,380.00 609.85,378.41 613.63,376.47 C624.88,370.69 642.10,365.41 658.00,362.86 C669.57,361.01 720.95,361.00 734.00,362.85 C758.71,366.35 785.21,371.95 795.64,375.87 L 799.78 377.43 L 800.38 385.97 C801.29,398.82 800.91,459.09 799.90,461.75 C799.06,463.98 798.65,464.06 789.76,463.79 L 780.50 463.50 L 777.13 456.50 C772.88,447.66 761.46,432.40 755.25,427.25 C746.59,420.07 728.98,410.00 725.10,410.00 C724.16,410.00 722.97,409.62 722.45,409.16 C720.68,407.61 704.56,405.54 694.92,405.64 C677.31,405.81 664.67,411.64 658.00,422.65 C651.80,432.88 652.82,447.24 660.45,457.23 C668.78,468.13 683.33,477.30 716.50,492.53 C754.05,509.76 754.15,509.81 765.24,516.41 C788.51,530.26 808.68,551.72 815.25,569.63 C822.90,590.50 823.88,600.95 820.59,626.82 C819.43,635.96 812.96,653.48 807.78,661.48 C794.69,681.72 774.07,697.14 748.50,705.82 C736.42,709.93 732.66,710.94 725.00,712.15 C721.42,712.71 715.80,713.60 712.50,714.12 C705.79,715.19 660.80,716.50 659.97,715.65 ZM 264.25 688.29 C262.15,687.89 262.00,687.36 262.00,680.05 C262.00,672.32 262.03,672.23 264.75,671.70 C266.26,671.41 270.54,671.42 274.25,671.73 L 281.00 672.29 L 281.00 680.03 C281.00,687.21 280.84,687.81 278.75,688.37 C276.29,689.03 267.83,688.98 264.25,688.29 ZM 286.00 680.34 L 286.00 672.00 L 297.00 672.00 L 308.00 672.00 L 308.00 680.00 C308.00,684.40 307.66,688.00 307.25,688.00 C306.84,688.01 301.89,688.16 296.25,688.34 L 286.00 688.67 L 286.00 680.34 ZM 315.76 688.20 C314.72,688.00 314.10,685.99 313.68,681.44 C312.78,671.85 312.62,672.00 324.15,672.00 L 334.08 672.00 L 333.79 679.75 L 333.50 687.50 L 325.37 688.00 C320.89,688.28 316.57,688.37 315.76,688.20 ZM 339.00 680.04 L 339.00 672.00 L 349.04 672.00 L 359.08 672.00 L 358.79 679.75 L 358.50 687.50 L 348.75 687.79 L 339.00 688.07 L 339.00 680.04 ZM 364.00 680.14 C364.00,674.29 364.36,672.07 365.39,671.68 C366.71,671.17 382.01,671.68 382.58,672.25 C382.73,672.40 382.96,675.89 383.10,680.01 L 383.34 687.50 L 373.67 687.79 L 364.00 688.07 L 364.00 680.14 ZM 388.69 687.36 C388.31,686.98 388.00,683.42 388.00,679.45 C388.00,672.38 388.06,672.22 390.75,671.68 C392.26,671.37 399.71,671.39 407.29,671.72 L 421.08 672.31 L 420.79 679.91 L 420.50 687.50 L 404.94 687.77 C396.38,687.93 389.07,687.74 388.69,687.36 ZM 364.23 655.72 C363.64,654.97 362.79,594.70 362.02,498.38 L 360.77 342.25 L 363.58 337.45 C367.25,331.18 367.57,321.63 364.31,315.50 C360.24,307.86 351.96,301.99 345.28,302.01 C337.14,302.02 328.36,307.82 324.87,315.50 C322.60,320.47 322.45,329.75 324.55,334.78 C329.20,345.92 342.89,352.00 353.43,347.59 L 356.79 346.19 L 357.34 351.34 C357.65,354.18 358.03,423.77 358.20,506.00 L 358.50 655.50 L 348.50 655.50 L 338.50 655.50 L 337.90 589.00 C336.46,431.03 336.45,415.37 337.73,413.83 C341.90,408.80 343.32,397.09 340.55,390.47 C336.33,380.36 328.85,375.52 318.47,376.18 C310.35,376.70 304.90,380.25 301.11,387.50 C293.81,401.48 301.49,418.73 316.52,422.09 C321.05,423.10 322.62,423.03 327.03,421.58 C329.88,420.65 332.34,420.03 332.48,420.19 C332.62,420.36 332.91,473.38 333.12,538.00 L 333.50 655.50 L 323.50 655.50 L 313.50 655.50 L 312.78 572.52 L 312.05 489.53 L 314.53 484.57 C322.69,468.18 309.57,448.01 292.27,450.38 C280.82,451.95 272.19,463.13 273.27,475.00 C274.74,491.23 288.81,500.76 303.50,495.47 C305.70,494.68 307.61,494.02 307.75,494.02 C307.89,494.01 308.00,530.47 308.00,575.03 L 308.00 656.07 L 297.25 655.78 L 286.50 655.50 L 286.24 609.62 L 285.98 563.74 L 288.73 558.13 C292.56,550.30 292.42,543.19 288.31,535.86 C284.17,528.50 278.67,524.75 271.22,524.21 C259.23,523.34 249.97,531.15 247.62,544.11 C245.86,553.78 251.95,565.01 261.08,568.94 C266.34,571.20 267.62,571.22 276.76,569.20 L 281.02 568.26 L 280.76 611.88 L 280.50 655.50 L 271.81 655.79 C262.30,656.10 261.72,655.78 260.58,649.47 C260.30,647.90 258.70,644.43 257.03,641.74 C255.36,639.06 254.00,636.55 254.00,636.17 C254.00,634.86 233.51,614.50 228.66,611.00 C217.06,602.61 215.42,601.20 214.08,598.44 C211.51,593.16 211.63,587.12 214.46,577.50 C215.93,572.55 217.83,565.80 218.69,562.50 C220.45,555.75 221.70,552.16 225.26,543.50 C226.62,540.20 234.60,516.58 243.00,491.00 C251.41,465.42 258.89,443.08 259.64,441.35 C260.39,439.62 261.00,437.22 261.00,436.02 C261.00,434.82 262.32,430.53 263.94,426.49 C265.55,422.46 282.03,373.56 300.56,317.83 C319.09,262.10 335.15,214.53 336.27,212.13 C339.08,206.07 348.75,194.16 354.07,190.21 C371.78,177.05 391.81,170.74 416.00,170.71 C428.69,170.69 447.88,173.12 453.50,175.45 C455.15,176.14 460.33,178.22 465.00,180.07 C469.67,181.92 474.57,184.24 475.88,185.22 C477.20,186.20 479.07,187.00 480.04,187.00 C481.89,187.00 493.30,195.94 500.83,203.28 C506.33,208.64 513.22,218.19 515.79,224.00 C520.38,234.40 521.28,238.81 520.78,248.34 C519.98,263.32 516.27,269.95 498.33,288.42 C473.69,313.79 467.45,323.40 463.44,342.15 C460.76,354.74 461.46,378.57 465.01,395.50 C468.81,413.63 473.54,433.23 476.11,441.50 C477.13,444.80 478.14,448.40 478.34,449.50 C478.54,450.60 478.98,452.17 479.32,453.00 C480.03,454.68 490.24,488.96 493.04,499.00 C494.03,502.58 497.56,514.13 500.89,524.68 C504.21,535.23 507.15,545.03 507.41,546.46 C507.67,547.89 508.81,551.54 509.94,554.57 C511.07,557.60 512.00,560.50 512.00,561.03 C512.00,561.55 507.61,564.05 502.25,566.59 C496.89,569.12 489.51,573.18 485.87,575.60 C482.22,578.02 478.77,580.00 478.20,580.00 C477.63,580.00 477.02,580.34 476.83,580.75 C476.65,581.16 474.77,582.69 472.65,584.15 C468.01,587.35 454.72,600.23 447.53,608.50 C437.54,619.99 428.06,636.13 423.98,648.60 L 421.65 655.70 L 407.07 656.33 C399.06,656.67 391.56,656.71 390.41,656.40 C388.33,655.85 388.31,655.46 387.66,606.17 C387.29,578.85 386.56,501.15 386.02,433.50 C385.49,365.85 384.83,301.18 384.56,289.80 C384.06,269.29 384.08,269.06 386.49,264.83 C391.97,255.17 390.37,243.32 382.52,235.47 C375.12,228.07 365.38,227.01 356.31,232.61 C349.46,236.84 346.50,243.05 346.50,253.14 C346.50,260.09 346.79,261.24 349.54,265.15 C356.29,274.75 367.81,278.58 376.43,274.08 C378.59,272.95 380.51,272.18 380.70,272.37 C381.28,272.94 383.34,655.00 382.76,655.57 C382.47,655.87 378.39,656.30 373.71,656.53 C367.77,656.82 364.91,656.57 364.23,655.72 ZM 182.59 549.00 C174.33,545.48 171.90,543.35 167.41,535.70 C164.24,530.31 164.00,529.28 164.00,521.29 C164.00,513.89 164.40,511.85 166.89,506.60 C172.46,494.82 183.63,487.00 194.86,487.00 C202.38,487.00 209.94,489.70 214.13,493.89 C218.10,497.87 218.40,499.99 216.54,511.08 C215.79,515.56 215.85,515.69 218.93,516.97 C224.72,519.37 226.45,524.29 223.51,529.98 C221.82,533.25 219.18,534.46 213.70,534.48 C209.95,534.50 209.87,534.59 206.96,541.50 C205.34,545.35 203.06,549.29 201.90,550.25 C198.58,552.99 190.77,552.49 182.59,549.00 ZM 266.66 549.87 C263.70,548.15 261.82,542.61 263.07,539.32 C264.41,535.79 265.64,535.03 270.08,535.02 C274.27,535.00 277.65,538.01 278.56,542.56 C279.80,548.76 272.48,553.25 266.66,549.87 ZM 292.83 476.31 C287.54,472.98 286.44,466.37 290.63,463.07 C295.05,459.60 300.15,460.45 302.54,465.07 C304.49,468.84 304.38,472.32 302.25,474.85 C299.80,477.74 296.03,478.33 292.83,476.31 ZM 213.00 476.00 C208.35,475.21 203.27,472.50 197.58,467.78 C193.40,464.31 190.28,456.26 189.44,446.78 C188.71,438.53 190.33,433.05 195.99,424.67 C201.92,415.89 209.19,412.00 219.72,412.00 C227.93,411.99 235.18,414.38 239.62,418.55 C243.87,422.56 244.61,425.85 242.61,431.95 C240.37,438.79 240.55,439.78 244.25,441.33 C248.71,443.20 249.85,444.86 250.15,449.92 C250.37,453.60 249.98,454.62 247.60,456.67 C245.36,458.60 243.88,459.02 240.21,458.79 L 235.61 458.50 L 232.55 465.92 C228.20,476.48 225.14,478.06 213.00,476.00 ZM 318.11 401.60 C310.83,397.57 311.85,387.90 319.71,386.39 C322.40,385.87 323.42,386.26 325.96,388.81 C333.10,395.95 326.71,406.37 318.11,401.60 ZM 234.26 399.63 C223.97,395.72 218.41,390.01 215.80,380.67 C213.92,373.96 213.48,365.00 214.89,362.24 C215.37,361.28 216.81,358.12 218.08,355.21 C220.63,349.34 227.45,342.34 233.74,339.13 C235.95,338.00 240.65,336.78 244.17,336.42 C249.55,335.87 251.46,336.13 256.04,338.05 C262.38,340.69 266.36,344.04 268.07,348.16 C269.06,350.56 268.98,352.00 267.64,356.16 C265.24,363.57 265.48,364.88 269.46,366.55 C275.46,369.06 276.92,375.66 272.58,380.69 C270.56,383.04 269.38,383.50 265.37,383.50 L 260.57 383.50 L 257.92 389.84 C256.46,393.33 254.12,397.33 252.72,398.73 C249.07,402.39 242.36,402.71 234.26,399.63 ZM 659.50 347.15 C655.03,346.67 653.58,346.13 653.81,345.06 C654.14,343.57 664.77,329.81 671.25,322.50 C673.31,320.18 675.00,318.01 675.00,317.69 C675.00,317.37 676.12,315.89 677.50,314.41 C678.88,312.92 680.00,311.34 680.00,310.90 C680.00,309.88 683.19,305.18 689.11,297.49 C691.64,294.20 694.69,289.59 695.87,287.26 C698.89,281.33 701.40,279.93 707.00,281.03 C709.47,281.51 716.45,282.42 722.50,283.05 C728.55,283.68 734.62,284.34 736.00,284.53 C737.38,284.71 744.69,284.89 752.25,284.93 C763.81,284.99 766.00,285.24 766.00,286.51 C766.00,288.25 735.78,318.66 728.44,324.30 C725.72,326.38 719.89,330.88 715.48,334.30 C711.07,337.71 705.14,341.99 702.30,343.81 L 697.15 347.11 L 681.32 347.46 C672.62,347.65 662.80,347.51 659.50,347.15 ZM 343.59 328.47 C339.55,326.36 338.07,324.09 338.03,319.90 C337.94,310.02 351.60,310.77 353.60,320.76 C354.13,323.40 353.73,324.42 351.19,326.96 C347.69,330.46 347.49,330.50 343.59,328.47 ZM 260.19 324.88 C255.45,323.31 252.65,321.55 248.87,317.78 C243.54,312.44 242.72,310.88 240.32,301.59 C237.78,291.70 241.12,279.59 248.79,270.94 C253.33,265.82 263.54,261.09 270.52,260.88 C275.84,260.72 285.28,264.43 288.99,268.15 C292.88,272.03 293.58,275.11 292.16,282.01 C290.57,289.72 290.53,289.59 294.87,291.33 C299.03,292.99 300.00,294.47 300.00,299.13 C300.00,305.87 296.02,309.53 289.49,308.81 C286.43,308.48 286.44,308.47 282.15,318.20 C278.48,326.52 271.53,328.63 260.19,324.88 ZM 363.92 253.08 C358.33,247.48 360.80,240.00 368.24,240.00 C371.01,240.00 372.41,240.70 374.41,243.08 C377.54,246.79 377.69,249.85 374.93,253.37 C372.06,257.01 367.74,256.90 363.92,253.08 ZM 286.50 250.64 C276.85,247.41 272.02,242.71 267.13,231.78 C264.17,225.15 264.07,223.09 266.11,211.61 C267.35,204.66 270.06,200.03 276.22,194.36 C282.48,188.60 284.20,187.87 292.93,187.27 C303.22,186.56 310.63,188.68 314.89,193.53 C318.48,197.61 318.94,200.65 317.51,210.50 C316.96,214.28 317.15,214.65 320.89,217.26 C325.64,220.57 326.86,224.44 324.55,228.90 C322.49,232.88 319.58,234.34 314.93,233.72 C311.24,233.22 311.11,233.31 309.19,237.86 C308.11,240.41 306.94,243.44 306.60,244.59 C306.25,245.74 304.85,247.73 303.49,249.01 C300.46,251.86 292.45,252.62 286.50,250.64 Z" fill="rgb(253,253,253)"/>
</g>
</svg>